<?xml version="1.0" encoding="us-ascii" standalone="no"?><svg xmlns="http://www.w3.org/2000/svg" xmlns:xlink="http://www.w3.org/1999/xlink" contentStyleType="text/css" height="713px" preserveAspectRatio="none" style="width:2179px;height:713px;background:#FFFFFF;" version="1.1" viewBox="0 0 2179 713" width="2179px" zoomAndPan="magnify"><defs/><g><!--class InspectionForm--><g id="elem_InspectionForm"><rect codeLine="2" fill="#F1F1F1" height="96.8906" id="InspectionForm" rx="2.5" ry="2.5" style="stroke:#181818;stroke-width:0.5;" width="142" x="811" y="7"/><ellipse cx="826" cy="23" fill="#ADD1B2" rx="11" ry="11" style="stroke:#181818;stroke-width:1.0;"/><path d="M828.9688,28.6406 Q828.3906,28.9375 827.75,29.0781 Q827.1094,29.2344 826.4063,29.2344 Q823.9063,29.2344 822.5781,27.5938 Q821.2656,25.9375 821.2656,22.8125 Q821.2656,19.6875 822.5781,18.0313 Q823.9063,16.375 826.4063,16.375 Q827.1094,16.375 827.75,16.5313 Q828.4063,16.6875 828.9688,16.9844 L828.9688,19.7031 Q828.3438,19.125 827.75,18.8594 Q827.1563,18.5781 826.5313,18.5781 Q825.1875,18.5781 824.5,19.6563 Q823.8125,20.7188 823.8125,22.8125 Q823.8125,24.9063 824.5,25.9844 Q825.1875,27.0469 826.5313,27.0469 Q827.1563,27.0469 827.75,26.7813 Q828.3438,26.5 828.9688,25.9219 L828.9688,28.6406 Z " fill="#000000"/><text fill="#000000" font-family="sans-serif" font-size="14" lengthAdjust="spacing" textLength="110" x="840" y="27.8467">InspectionForm</text><line style="stroke:#181818;stroke-width:0.5;" x1="812" x2="952" y1="39" y2="39"/><rect fill="none" height="6" style="stroke:#C82930;stroke-width:1.0;" width="6" x="819" y="49.6484"/><text fill="#000000" font-family="sans-serif" font-size="14" lengthAdjust="spacing" textLength="91" x="831" y="55.9951">string formId</text><rect fill="none" height="6" style="stroke:#C82930;stroke-width:1.0;" width="6" x="819" y="65.9453"/><text fill="#000000" font-family="sans-serif" font-size="14" lengthAdjust="spacing" textLength="71" x="831" y="72.292">string title</text><rect fill="none" height="6" style="stroke:#C82930;stroke-width:1.0;" width="6" x="819" y="82.2422"/><text fill="#000000" font-family="sans-serif" font-size="14" lengthAdjust="spacing" textLength="80" x="831" y="88.5889">array fields</text><line style="stroke:#181818;stroke-width:0.5;" x1="812" x2="952" y1="95.8906" y2="95.8906"/></g><!--class ControlField--><g id="elem_ControlField"><rect codeLine="8" fill="#F1F1F1" height="162.0781" id="ControlField" rx="2.5" ry="2.5" style="stroke:#181818;stroke-width:0.5;" width="272" x="746" y="181"/><ellipse cx="834.75" cy="197" fill="#A9DCDF" rx="11" ry="11" style="stroke:#181818;stroke-width:1.0;"/><path d="M834.8594,192.3438 L833.7031,197.4219 L836.0313,197.4219 L834.8594,192.3438 Z M833.375,190.1094 L836.3594,190.1094 L839.7188,202.5 L837.2656,202.5 L836.5,199.4375 L833.2188,199.4375 L832.4688,202.5 L830.0313,202.5 L833.375,190.1094 Z " fill="#000000"/><text fill="#000000" font-family="sans-serif" font-size="14" font-style="italic" lengthAdjust="spacing" textLength="86" x="855.25" y="201.8467">ControlField</text><line style="stroke:#181818;stroke-width:0.5;" x1="747" x2="1017" y1="213" y2="213"/><rect fill="none" height="6" style="stroke:#C82930;stroke-width:1.0;" width="6" x="754" y="223.6484"/><text fill="#000000" font-family="sans-serif" font-size="14" lengthAdjust="spacing" textLength="88" x="766" y="229.9951">string fieldId</text><rect fill="none" height="6" style="stroke:#C82930;stroke-width:1.0;" width="6" x="754" y="239.9453"/><text fill="#000000" font-family="sans-serif" font-size="14" lengthAdjust="spacing" textLength="71" x="766" y="246.292">string title</text><rect fill="none" height="6" style="stroke:#C82930;stroke-width:1.0;" width="6" x="754" y="256.2422"/><text fill="#000000" font-family="sans-serif" font-size="14" lengthAdjust="spacing" textLength="75" x="766" y="262.5889">string type</text><rect fill="none" height="6" style="stroke:#C82930;stroke-width:1.0;" width="6" x="754" y="272.5391"/><text fill="#000000" font-family="sans-serif" font-size="14" lengthAdjust="spacing" textLength="64" x="766" y="278.8857">string ref</text><rect fill="none" height="6" style="stroke:#C82930;stroke-width:1.0;" width="6" x="754" y="288.8359"/><text fill="#000000" font-family="sans-serif" font-size="14" lengthAdjust="spacing" textLength="130" x="766" y="295.1826">?string description</text><rect fill="none" height="6" style="stroke:#C82930;stroke-width:1.0;" width="6" x="754" y="305.1328"/><text fill="#000000" font-family="sans-serif" font-size="14" lengthAdjust="spacing" textLength="246" x="766" y="311.4795">ControlFieldValidations validations</text><line style="stroke:#181818;stroke-width:1.0;" x1="747" x2="1017" y1="318.7813" y2="318.7813"/><ellipse cx="757" cy="332.4297" fill="#84BE84" rx="3" ry="3" style="stroke:#038048;stroke-width:1.0;"/><text fill="#000000" font-family="sans-serif" font-size="14" lengthAdjust="spacing" textLength="105" x="766" y="335.7764">getProperties()</text></g><!--class ControlFieldValidations--><g id="elem_ControlFieldValidations"><rect codeLine="19" fill="#F1F1F1" height="129.4844" id="ControlFieldValidations" rx="2.5" ry="2.5" style="stroke:#181818;stroke-width:0.5;" width="232" x="7" y="420"/><ellipse cx="37.75" cy="436" fill="#ADD1B2" rx="11" ry="11" style="stroke:#181818;stroke-width:1.0;"/><path d="M40.7188,441.6406 Q40.1406,441.9375 39.5,442.0781 Q38.8594,442.2344 38.1563,442.2344 Q35.6563,442.2344 34.3281,440.5938 Q33.0156,438.9375 33.0156,435.8125 Q33.0156,432.6875 34.3281,431.0313 Q35.6563,429.375 38.1563,429.375 Q38.8594,429.375 39.5,429.5313 Q40.1563,429.6875 40.7188,429.9844 L40.7188,432.7031 Q40.0938,432.125 39.5,431.8594 Q38.9063,431.5781 38.2813,431.5781 Q36.9375,431.5781 36.25,432.6563 Q35.5625,433.7188 35.5625,435.8125 Q35.5625,437.9063 36.25,438.9844 Q36.9375,440.0469 38.2813,440.0469 Q38.9063,440.0469 39.5,439.7813 Q40.0938,439.5 40.7188,438.9219 L40.7188,441.6406 Z " fill="#000000"/><text fill="#000000" font-family="sans-serif" font-size="14" lengthAdjust="spacing" textLength="165" x="55.25" y="440.8467">ControlFieldValidations</text><line style="stroke:#181818;stroke-width:0.5;" x1="8" x2="238" y1="452" y2="452"/><rect fill="none" height="6" style="stroke:#C82930;stroke-width:1.0;" width="6" x="15" y="462.6484"/><text fill="#000000" font-family="sans-serif" font-size="14" lengthAdjust="spacing" textLength="96" x="27" y="468.9951">bool required</text><rect fill="none" height="6" style="stroke:#C82930;stroke-width:1.0;" width="6" x="15" y="478.9453"/><text fill="#000000" font-family="sans-serif" font-size="14" lengthAdjust="spacing" textLength="121" x="27" y="485.292">bool enforceable</text><rect fill="none" height="6" style="stroke:#C82930;stroke-width:1.0;" width="6" x="15" y="495.2422"/><text fill="#000000" font-family="sans-serif" font-size="14" lengthAdjust="spacing" textLength="107" x="27" y="501.5889">bool rectifiable</text><rect fill="none" height="6" style="stroke:#C82930;stroke-width:1.0;" width="6" x="15" y="511.5391"/><text fill="#000000" font-family="sans-serif" font-size="14" lengthAdjust="spacing" textLength="150" x="27" y="517.8857">?int gracePeriodDays</text><rect fill="none" height="6" style="stroke:#C82930;stroke-width:1.0;" width="6" x="15" y="527.8359"/><text fill="#000000" font-family="sans-serif" font-size="14" lengthAdjust="spacing" textLength="206" x="27" y="534.1826">?PenaltyLevels penaltyLevels</text><line style="stroke:#181818;stroke-width:0.5;" x1="8" x2="238" y1="541.4844" y2="541.4844"/></g><!--class ControlFieldProperties--><g id="elem_ControlFieldProperties"><rect codeLine="27" fill="#F1F1F1" height="80.5938" id="ControlFieldProperties" rx="2.5" ry="2.5" style="stroke:#181818;stroke-width:0.5;" width="190" x="1660" y="15"/><ellipse cx="1675" cy="31" fill="#ADD1B2" rx="11" ry="11" style="stroke:#181818;stroke-width:1.0;"/><path d="M1677.9688,36.6406 Q1677.3906,36.9375 1676.75,37.0781 Q1676.1094,37.2344 1675.4063,37.2344 Q1672.9063,37.2344 1671.5781,35.5938 Q1670.2656,33.9375 1670.2656,30.8125 Q1670.2656,27.6875 1671.5781,26.0313 Q1672.9063,24.375 1675.4063,24.375 Q1676.1094,24.375 1676.75,24.5313 Q1677.4063,24.6875 1677.9688,24.9844 L1677.9688,27.7031 Q1677.3438,27.125 1676.75,26.8594 Q1676.1563,26.5781 1675.5313,26.5781 Q1674.1875,26.5781 1673.5,27.6563 Q1672.8125,28.7188 1672.8125,30.8125 Q1672.8125,32.9063 1673.5,33.9844 Q1674.1875,35.0469 1675.5313,35.0469 Q1676.1563,35.0469 1676.75,34.7813 Q1677.3438,34.5 1677.9688,33.9219 L1677.9688,36.6406 Z " fill="#000000"/><text fill="#000000" font-family="sans-serif" font-size="14" lengthAdjust="spacing" textLength="158" x="1689" y="35.8467">ControlFieldProperties</text><line style="stroke:#181818;stroke-width:0.5;" x1="1661" x2="1849" y1="47" y2="47"/><rect fill="none" height="6" style="stroke:#C82930;stroke-width:1.0;" width="6" x="1668" y="57.6484"/><text fill="#000000" font-family="sans-serif" font-size="14" lengthAdjust="spacing" textLength="130" x="1680" y="63.9951">?string description</text><rect fill="none" height="6" style="stroke:#C82930;stroke-width:1.0;" width="6" x="1668" y="73.9453"/><text fill="#000000" font-family="sans-serif" font-size="14" lengthAdjust="spacing" textLength="162" x="1680" y="80.292">bool allowAttachments</text><line style="stroke:#181818;stroke-width:0.5;" x1="1661" x2="1849" y1="87.5938" y2="87.5938"/></g><!--class DropdownControlFieldProperties--><g id="elem_DropdownControlFieldProperties"><rect codeLine="32" fill="#F1F1F1" height="96.8906" id="DropdownControlFieldProperties" rx="2.5" ry="2.5" style="stroke:#181818;stroke-width:0.5;" width="263" x="1309.5" y="213.5"/><ellipse cx="1324.5" cy="229.5" fill="#ADD1B2" rx="11" ry="11" style="stroke:#181818;stroke-width:1.0;"/><path d="M1327.4688,235.1406 Q1326.8906,235.4375 1326.25,235.5781 Q1325.6094,235.7344 1324.9063,235.7344 Q1322.4063,235.7344 1321.0781,234.0938 Q1319.7656,232.4375 1319.7656,229.3125 Q1319.7656,226.1875 1321.0781,224.5313 Q1322.4063,222.875 1324.9063,222.875 Q1325.6094,222.875 1326.25,223.0313 Q1326.9063,223.1875 1327.4688,223.4844 L1327.4688,226.2031 Q1326.8438,225.625 1326.25,225.3594 Q1325.6563,225.0781 1325.0313,225.0781 Q1323.6875,225.0781 1323,226.1563 Q1322.3125,227.2188 1322.3125,229.3125 Q1322.3125,231.4063 1323,232.4844 Q1323.6875,233.5469 1325.0313,233.5469 Q1325.6563,233.5469 1326.25,233.2813 Q1326.8438,233 1327.4688,232.4219 L1327.4688,235.1406 Z " fill="#000000"/><text fill="#000000" font-family="sans-serif" font-size="14" lengthAdjust="spacing" textLength="231" x="1338.5" y="234.3467">DropdownControlFieldProperties</text><line style="stroke:#181818;stroke-width:0.5;" x1="1310.5" x2="1571.5" y1="245.5" y2="245.5"/><rect fill="none" height="6" style="stroke:#C82930;stroke-width:1.0;" width="6" x="1317.5" y="256.1484"/><text fill="#000000" font-family="sans-serif" font-size="14" lengthAdjust="spacing" textLength="164" x="1329.5" y="262.4951">bool alphabeticalOrder</text><rect fill="none" height="6" style="stroke:#C82930;stroke-width:1.0;" width="6" x="1317.5" y="272.4453"/><text fill="#000000" font-family="sans-serif" font-size="14" lengthAdjust="spacing" textLength="111" x="1329.5" y="278.792">bool randomize</text><rect fill="none" height="6" style="stroke:#C82930;stroke-width:1.0;" width="6" x="1317.5" y="288.7422"/><text fill="#000000" font-family="sans-serif" font-size="14" lengthAdjust="spacing" textLength="96" x="1329.5" y="295.0889">array choices</text><line style="stroke:#181818;stroke-width:0.5;" x1="1310.5" x2="1571.5" y1="302.3906" y2="302.3906"/></g><!--class MultipleChoiceControlFieldProperties--><g id="elem_MultipleChoiceControlFieldProperties"><rect codeLine="38" fill="#F1F1F1" height="129.4844" id="MultipleChoiceControlFieldProperties" rx="2.5" ry="2.5" style="stroke:#181818;stroke-width:0.5;" width="295" x="1607.5" y="197.5"/><ellipse cx="1622.5" cy="213.5" fill="#ADD1B2" rx="11" ry="11" style="stroke:#181818;stroke-width:1.0;"/><path d="M1625.4688,219.1406 Q1624.8906,219.4375 1624.25,219.5781 Q1623.6094,219.7344 1622.9063,219.7344 Q1620.4063,219.7344 1619.0781,218.0938 Q1617.7656,216.4375 1617.7656,213.3125 Q1617.7656,210.1875 1619.0781,208.5313 Q1620.4063,206.875 1622.9063,206.875 Q1623.6094,206.875 1624.25,207.0313 Q1624.9063,207.1875 1625.4688,207.4844 L1625.4688,210.2031 Q1624.8438,209.625 1624.25,209.3594 Q1623.6563,209.0781 1623.0313,209.0781 Q1621.6875,209.0781 1621,210.1563 Q1620.3125,211.2188 1620.3125,213.3125 Q1620.3125,215.4063 1621,216.4844 Q1621.6875,217.5469 1623.0313,217.5469 Q1623.6563,217.5469 1624.25,217.2813 Q1624.8438,217 1625.4688,216.4219 L1625.4688,219.1406 Z " fill="#000000"/><text fill="#000000" font-family="sans-serif" font-size="14" lengthAdjust="spacing" textLength="263" x="1636.5" y="218.3467">MultipleChoiceControlFieldProperties</text><line style="stroke:#181818;stroke-width:0.5;" x1="1608.5" x2="1901.5" y1="229.5" y2="229.5"/><rect fill="none" height="6" style="stroke:#C82930;stroke-width:1.0;" width="6" x="1615.5" y="240.1484"/><text fill="#000000" font-family="sans-serif" font-size="14" lengthAdjust="spacing" textLength="194" x="1627.5" y="246.4951">bool allowMultipleSelection</text><rect fill="none" height="6" style="stroke:#C82930;stroke-width:1.0;" width="6" x="1615.5" y="256.4453"/><text fill="#000000" font-family="sans-serif" font-size="14" lengthAdjust="spacing" textLength="161" x="1627.5" y="262.792">bool allowOtherChoice</text><rect fill="none" height="6" style="stroke:#C82930;stroke-width:1.0;" width="6" x="1615.5" y="272.7422"/><text fill="#000000" font-family="sans-serif" font-size="14" lengthAdjust="spacing" textLength="111" x="1627.5" y="279.0889">bool randomize</text><rect fill="none" height="6" style="stroke:#C82930;stroke-width:1.0;" width="6" x="1615.5" y="289.0391"/><text fill="#000000" font-family="sans-serif" font-size="14" lengthAdjust="spacing" textLength="161" x="1627.5" y="295.3857">bool verticalAlignment</text><rect fill="none" height="6" style="stroke:#C82930;stroke-width:1.0;" width="6" x="1615.5" y="305.3359"/><text fill="#000000" font-family="sans-serif" font-size="14" lengthAdjust="spacing" textLength="96" x="1627.5" y="311.6826">array choices</text><line style="stroke:#181818;stroke-width:0.5;" x1="1608.5" x2="1901.5" y1="318.9844" y2="318.9844"/></g><!--class YesNoControlFieldProperties--><g id="elem_YesNoControlFieldProperties"><rect codeLine="46" fill="#F1F1F1" height="48" id="YesNoControlFieldProperties" rx="2.5" ry="2.5" style="stroke:#181818;stroke-width:0.5;" width="234" x="1938" y="238"/><ellipse cx="1953" cy="254" fill="#ADD1B2" rx="11" ry="11" style="stroke:#181818;stroke-width:1.0;"/><path d="M1955.9688,259.6406 Q1955.3906,259.9375 1954.75,260.0781 Q1954.1094,260.2344 1953.4063,260.2344 Q1950.9063,260.2344 1949.5781,258.5938 Q1948.2656,256.9375 1948.2656,253.8125 Q1948.2656,250.6875 1949.5781,249.0313 Q1950.9063,247.375 1953.4063,247.375 Q1954.1094,247.375 1954.75,247.5313 Q1955.4063,247.6875 1955.9688,247.9844 L1955.9688,250.7031 Q1955.3438,250.125 1954.75,249.8594 Q1954.1563,249.5781 1953.5313,249.5781 Q1952.1875,249.5781 1951.5,250.6563 Q1950.8125,251.7188 1950.8125,253.8125 Q1950.8125,255.9063 1951.5,256.9844 Q1952.1875,258.0469 1953.5313,258.0469 Q1954.1563,258.0469 1954.75,257.7813 Q1955.3438,257.5 1955.9688,256.9219 L1955.9688,259.6406 Z " fill="#000000"/><text fill="#000000" font-family="sans-serif" font-size="14" lengthAdjust="spacing" textLength="202" x="1967" y="258.8467">YesNoControlFieldProperties</text><line style="stroke:#181818;stroke-width:0.5;" x1="1939" x2="2171" y1="270" y2="270"/><line style="stroke:#181818;stroke-width:1.0;" x1="1939" x2="2171" y1="278" y2="278"/></g><!--class DropdownControlField--><g id="elem_DropdownControlField"><rect codeLine="50" fill="#F1F1F1" height="80.5938" id="DropdownControlField" rx="2.5" ry="2.5" style="stroke:#181818;stroke-width:0.5;" width="371" x="274.5" y="444"/><ellipse cx="376.25" cy="460" fill="#ADD1B2" rx="11" ry="11" style="stroke:#181818;stroke-width:1.0;"/><path d="M379.2188,465.6406 Q378.6406,465.9375 378,466.0781 Q377.3594,466.2344 376.6563,466.2344 Q374.1563,466.2344 372.8281,464.5938 Q371.5156,462.9375 371.5156,459.8125 Q371.5156,456.6875 372.8281,455.0313 Q374.1563,453.375 376.6563,453.375 Q377.3594,453.375 378,453.5313 Q378.6563,453.6875 379.2188,453.9844 L379.2188,456.7031 Q378.5938,456.125 378,455.8594 Q377.4063,455.5781 376.7813,455.5781 Q375.4375,455.5781 374.75,456.6563 Q374.0625,457.7188 374.0625,459.8125 Q374.0625,461.9063 374.75,462.9844 Q375.4375,464.0469 376.7813,464.0469 Q377.4063,464.0469 378,463.7813 Q378.5938,463.5 379.2188,462.9219 L379.2188,465.6406 Z " fill="#000000"/><text fill="#000000" font-family="sans-serif" font-size="14" lengthAdjust="spacing" textLength="159" x="396.75" y="464.8467">DropdownControlField</text><line style="stroke:#181818;stroke-width:0.5;" x1="275.5" x2="644.5" y1="476" y2="476"/><rect fill="none" height="6" style="stroke:#C82930;stroke-width:1.0;" width="6" x="282.5" y="486.6484"/><text fill="#000000" font-family="sans-serif" font-size="14" lengthAdjust="spacing" textLength="308" x="294.5" y="492.9951">DropdownControlFieldProperties properties</text><line style="stroke:#181818;stroke-width:1.0;" x1="275.5" x2="644.5" y1="500.2969" y2="500.2969"/><ellipse cx="285.5" cy="513.9453" fill="#84BE84" rx="3" ry="3" style="stroke:#038048;stroke-width:1.0;"/><text fill="#000000" font-family="sans-serif" font-size="14" lengthAdjust="spacing" textLength="345" x="294.5" y="517.292">getProperties(): DropdownControlFieldProperties</text></g><!--class MultipleChoiceControlField--><g id="elem_MultipleChoiceControlField"><rect codeLine="56" fill="#F1F1F1" height="80.5938" id="MultipleChoiceControlField" rx="2.5" ry="2.5" style="stroke:#181818;stroke-width:0.5;" width="403" x="680.5" y="444"/><ellipse cx="782.25" cy="460" fill="#ADD1B2" rx="11" ry="11" style="stroke:#181818;stroke-width:1.0;"/><path d="M785.2188,465.6406 Q784.6406,465.9375 784,466.0781 Q783.3594,466.2344 782.6563,466.2344 Q780.1563,466.2344 778.8281,464.5938 Q777.5156,462.9375 777.5156,459.8125 Q777.5156,456.6875 778.8281,455.0313 Q780.1563,453.375 782.6563,453.375 Q783.3594,453.375 784,453.5313 Q784.6563,453.6875 785.2188,453.9844 L785.2188,456.7031 Q784.5938,456.125 784,455.8594 Q783.4063,455.5781 782.7813,455.5781 Q781.4375,455.5781 780.75,456.6563 Q780.0625,457.7188 780.0625,459.8125 Q780.0625,461.9063 780.75,462.9844 Q781.4375,464.0469 782.7813,464.0469 Q783.4063,464.0469 784,463.7813 Q784.5938,463.5 785.2188,462.9219 L785.2188,465.6406 Z " fill="#000000"/><text fill="#000000" font-family="sans-serif" font-size="14" lengthAdjust="spacing" textLength="191" x="802.75" y="464.8467">MultipleChoiceControlField</text><line style="stroke:#181818;stroke-width:0.5;" x1="681.5" x2="1082.5" y1="476" y2="476"/><rect fill="none" height="6" style="stroke:#C82930;stroke-width:1.0;" width="6" x="688.5" y="486.6484"/><text fill="#000000" font-family="sans-serif" font-size="14" lengthAdjust="spacing" textLength="340" x="700.5" y="492.9951">MultipleChoiceControlFieldProperties properties</text><line style="stroke:#181818;stroke-width:1.0;" x1="681.5" x2="1082.5" y1="500.2969" y2="500.2969"/><ellipse cx="691.5" cy="513.9453" fill="#84BE84" rx="3" ry="3" style="stroke:#038048;stroke-width:1.0;"/><text fill="#000000" font-family="sans-serif" font-size="14" lengthAdjust="spacing" textLength="377" x="700.5" y="517.292">getProperties(): MultipleChoiceControlFieldProperties</text></g><!--class YesNoControlField--><g id="elem_YesNoControlField"><rect codeLine="62" fill="#F1F1F1" height="80.5938" id="YesNoControlField" rx="2.5" ry="2.5" style="stroke:#181818;stroke-width:0.5;" width="342" x="1119" y="444"/><ellipse cx="1220.75" cy="460" fill="#ADD1B2" rx="11" ry="11" style="stroke:#181818;stroke-width:1.0;"/><path d="M1223.7188,465.6406 Q1223.1406,465.9375 1222.5,466.0781 Q1221.8594,466.2344 1221.1563,466.2344 Q1218.6563,466.2344 1217.3281,464.5938 Q1216.0156,462.9375 1216.0156,459.8125 Q1216.0156,456.6875 1217.3281,455.0313 Q1218.6563,453.375 1221.1563,453.375 Q1221.8594,453.375 1222.5,453.5313 Q1223.1563,453.6875 1223.7188,453.9844 L1223.7188,456.7031 Q1223.0938,456.125 1222.5,455.8594 Q1221.9063,455.5781 1221.2813,455.5781 Q1219.9375,455.5781 1219.25,456.6563 Q1218.5625,457.7188 1218.5625,459.8125 Q1218.5625,461.9063 1219.25,462.9844 Q1219.9375,464.0469 1221.2813,464.0469 Q1221.9063,464.0469 1222.5,463.7813 Q1223.0938,463.5 1223.7188,462.9219 L1223.7188,465.6406 Z " fill="#000000"/><text fill="#000000" font-family="sans-serif" font-size="14" lengthAdjust="spacing" textLength="130" x="1241.25" y="464.8467">YesNoControlField</text><line style="stroke:#181818;stroke-width:0.5;" x1="1120" x2="1460" y1="476" y2="476"/><rect fill="none" height="6" style="stroke:#C82930;stroke-width:1.0;" width="6" x="1127" y="486.6484"/><text fill="#000000" font-family="sans-serif" font-size="14" lengthAdjust="spacing" textLength="279" x="1139" y="492.9951">YesNoControlFieldProperties properties</text><line style="stroke:#181818;stroke-width:1.0;" x1="1120" x2="1460" y1="500.2969" y2="500.2969"/><ellipse cx="1130" cy="513.9453" fill="#84BE84" rx="3" ry="3" style="stroke:#038048;stroke-width:1.0;"/><text fill="#000000" font-family="sans-serif" font-size="14" lengthAdjust="spacing" textLength="316" x="1139" y="517.292">getProperties(): YesNoControlFieldProperties</text></g><!--class Choice--><g id="elem_Choice"><rect codeLine="68" fill="#F1F1F1" height="113.1875" id="Choice" rx="2.5" ry="2.5" style="stroke:#181818;stroke-width:0.5;" width="149" x="1496.5" y="428"/><ellipse cx="1542.25" cy="444" fill="#ADD1B2" rx="11" ry="11" style="stroke:#181818;stroke-width:1.0;"/><path d="M1545.2188,449.6406 Q1544.6406,449.9375 1544,450.0781 Q1543.3594,450.2344 1542.6563,450.2344 Q1540.1563,450.2344 1538.8281,448.5938 Q1537.5156,446.9375 1537.5156,443.8125 Q1537.5156,440.6875 1538.8281,439.0313 Q1540.1563,437.375 1542.6563,437.375 Q1543.3594,437.375 1544,437.5313 Q1544.6563,437.6875 1545.2188,437.9844 L1545.2188,440.7031 Q1544.5938,440.125 1544,439.8594 Q1543.4063,439.5781 1542.7813,439.5781 Q1541.4375,439.5781 1540.75,440.6563 Q1540.0625,441.7188 1540.0625,443.8125 Q1540.0625,445.9063 1540.75,446.9844 Q1541.4375,448.0469 1542.7813,448.0469 Q1543.4063,448.0469 1544,447.7813 Q1544.5938,447.5 1545.2188,446.9219 L1545.2188,449.6406 Z " fill="#000000"/><text fill="#000000" font-family="sans-serif" font-size="14" lengthAdjust="spacing" textLength="49" x="1562.75" y="448.8467">Choice</text><line style="stroke:#181818;stroke-width:0.5;" x1="1497.5" x2="1644.5" y1="460" y2="460"/><rect fill="none" height="6" style="stroke:#C82930;stroke-width:1.0;" width="6" x="1504.5" y="470.6484"/><text fill="#000000" font-family="sans-serif" font-size="14" lengthAdjust="spacing" textLength="79" x="1516.5" y="476.9951">string label</text><rect fill="none" height="6" style="stroke:#C82930;stroke-width:1.0;" width="6" x="1504.5" y="486.9453"/><text fill="#000000" font-family="sans-serif" font-size="14" lengthAdjust="spacing" textLength="64" x="1516.5" y="493.292">string ref</text><rect fill="none" height="6" style="stroke:#C82930;stroke-width:1.0;" width="6" x="1504.5" y="503.2422"/><text fill="#000000" font-family="sans-serif" font-size="14" lengthAdjust="spacing" textLength="123" x="1516.5" y="509.5889">string description</text><rect fill="none" height="6" style="stroke:#C82930;stroke-width:1.0;" width="6" x="1504.5" y="519.5391"/><text fill="#000000" font-family="sans-serif" font-size="14" lengthAdjust="spacing" textLength="118" x="1516.5" y="525.8857">bool compliance</text><line style="stroke:#181818;stroke-width:0.5;" x1="1497.5" x2="1644.5" y1="533.1875" y2="533.1875"/></g><!--class PenaltyLevels--><g id="elem_PenaltyLevels"><rect codeLine="75" fill="#F1F1F1" height="80.5938" id="PenaltyLevels" rx="2.5" ry="2.5" style="stroke:#181818;stroke-width:0.5;" width="153" x="46.5" y="626"/><ellipse cx="72.3" cy="642" fill="#ADD1B2" rx="11" ry="11" style="stroke:#181818;stroke-width:1.0;"/><path d="M75.2688,647.6406 Q74.6906,647.9375 74.05,648.0781 Q73.4094,648.2344 72.7063,648.2344 Q70.2063,648.2344 68.8781,646.5938 Q67.5656,644.9375 67.5656,641.8125 Q67.5656,638.6875 68.8781,637.0313 Q70.2063,635.375 72.7063,635.375 Q73.4094,635.375 74.05,635.5313 Q74.7063,635.6875 75.2688,635.9844 L75.2688,638.7031 Q74.6438,638.125 74.05,637.8594 Q73.4563,637.5781 72.8313,637.5781 Q71.4875,637.5781 70.8,638.6563 Q70.1125,639.7188 70.1125,641.8125 Q70.1125,643.9063 70.8,644.9844 Q71.4875,646.0469 72.8313,646.0469 Q73.4563,646.0469 74.05,645.7813 Q74.6438,645.5 75.2688,644.9219 L75.2688,647.6406 Z " fill="#000000"/><text fill="#000000" font-family="sans-serif" font-size="14" lengthAdjust="spacing" textLength="97" x="88.7" y="646.8467">PenaltyLevels</text><line style="stroke:#181818;stroke-width:0.5;" x1="47.5" x2="198.5" y1="658" y2="658"/><rect fill="none" height="6" style="stroke:#C82930;stroke-width:1.0;" width="6" x="54.5" y="668.6484"/><text fill="#000000" font-family="sans-serif" font-size="14" lengthAdjust="spacing" textLength="127" x="66.5" y="674.9951">bool infringement</text><rect fill="none" height="6" style="stroke:#C82930;stroke-width:1.0;" width="6" x="54.5" y="684.9453"/><text fill="#000000" font-family="sans-serif" font-size="14" lengthAdjust="spacing" textLength="87" x="66.5" y="691.292">bool closure</text><line style="stroke:#181818;stroke-width:0.5;" x1="47.5" x2="198.5" y1="698.5938" y2="698.5938"/></g><!--reverse link ControlFieldProperties to DropdownControlFieldProperties--><g id="link_ControlFieldProperties_DropdownControlFieldProperties"><path d="M1668.4212,105.6055 C1613.9812,139.1155 1555.27,177.76 1503.19,213.35 " fill="none" id="ControlFieldProperties-backto-DropdownControlFieldProperties" style="stroke:#181818;stroke-width:1.0;"/><polygon fill="none" points="1683.75,96.17,1665.2761,100.4959,1671.5664,110.7151,1683.75,96.17" style="stroke:#181818;stroke-width:1.0;"/></g><!--reverse link ControlFieldProperties to DropdownControlFieldProperties--><g id="link_ControlFieldProperties_DropdownControlFieldProperties"><path codeLine="83" d="M1690.2328,106.4335 C1641.9528,139.9435 1583.14,177.76 1525.78,213.35 " fill="none" id="ControlFieldProperties-backto-DropdownControlFieldProperties-1" style="stroke:#181818;stroke-width:1.0;"/><polygon fill="none" points="1705.02,96.17,1686.8116,101.5044,1693.6539,111.3625,1705.02,96.17" style="stroke:#181818;stroke-width:1.0;"/></g><!--reverse link ControlFieldProperties to MultipleChoiceControlFieldProperties--><g id="link_ControlFieldProperties_MultipleChoiceControlFieldProperties"><path d="M1743.0575,114.3494 C1740.5075,143.0594 1741.58,164.44 1743.1,197.44 " fill="none" id="ControlFieldProperties-backto-MultipleChoiceControlFieldProperties" style="stroke:#181818;stroke-width:1.0;"/><polygon fill="none" points="1744.65,96.42,1737.0811,113.8186,1749.034,114.8802,1744.65,96.42" style="stroke:#181818;stroke-width:1.0;"/></g><!--reverse link ControlFieldProperties to MultipleChoiceControlFieldProperties--><g id="link_ControlFieldProperties_MultipleChoiceControlFieldProperties"><path codeLine="84" d="M1767.6454,114.3409 C1770.3454,143.0509 1769.21,164.44 1767.6,197.44 " fill="none" id="ControlFieldProperties-backto-MultipleChoiceControlFieldProperties-1" style="stroke:#181818;stroke-width:1.0;"/><polygon fill="none" points="1765.96,96.42,1761.6717,114.9027,1773.619,113.7791,1765.96,96.42" style="stroke:#181818;stroke-width:1.0;"/></g><!--reverse link ControlFieldProperties to YesNoControlFieldProperties--><g id="link_ControlFieldProperties_YesNoControlFieldProperties"><path d="M1817.4356,106.7456 C1875.5156,148.9156 1957.28,203.56 2012.77,237.96 " fill="none" id="ControlFieldProperties-backto-YesNoControlFieldProperties" style="stroke:#181818;stroke-width:1.0;"/><polygon fill="none" points="1802.87,96.17,1813.9104,111.6008,1820.9608,101.8904,1802.87,96.17" style="stroke:#181818;stroke-width:1.0;"/></g><!--reverse link ControlFieldProperties to YesNoControlFieldProperties--><g id="link_ControlFieldProperties_YesNoControlFieldProperties"><path codeLine="85" d="M1839.2975,105.8783 C1905.1375,148.0483 1985,203.56 2030.12,237.96 " fill="none" id="ControlFieldProperties-backto-YesNoControlFieldProperties-1" style="stroke:#181818;stroke-width:1.0;"/><polygon fill="none" points="1824.14,96.17,1836.0614,110.9308,1842.5336,100.8258,1824.14,96.17" style="stroke:#181818;stroke-width:1.0;"/></g><!--reverse link ControlField to DropdownControlField--><g id="link_ControlField_DropdownControlField"><path d="M729.8952,336.1383 C656.1552,373.7483 584.51,411.68 525.75,443.89 " fill="none" id="ControlField-backto-DropdownControlField" style="stroke:#181818;stroke-width:1.0;"/><polygon fill="none" points="745.93,327.96,727.1691,330.7934,732.6213,341.4833,745.93,327.96" style="stroke:#181818;stroke-width:1.0;"/></g><!--reverse link ControlField to DropdownControlField--><g id="link_ControlField_DropdownControlField"><path codeLine="80" d="M729.9973,349.3512 C664.5173,384.1712 603.94,415.28 546.48,443.88 " fill="none" id="ControlField-backto-DropdownControlField-1" style="stroke:#181818;stroke-width:1.0;"/><polygon fill="none" points="745.89,340.9,727.1803,344.0536,732.8144,354.6487,745.89,340.9" style="stroke:#181818;stroke-width:1.0;"/></g><!--reverse link ControlField to MultipleChoiceControlField--><g id="link_ControlField_MultipleChoiceControlField"><path d="M869.1544,361.2223 C868.1544,395.4523 869.43,415.87 871.94,443.83 " fill="none" id="ControlField-backto-MultipleChoiceControlField" style="stroke:#181818;stroke-width:1.0;"/><polygon fill="none" points="869.68,343.23,863.1569,361.0471,875.1518,361.3975,869.68,343.23" style="stroke:#181818;stroke-width:1.0;"/></g><!--reverse link ControlField to MultipleChoiceControlField--><g id="link_ControlField_MultipleChoiceControlField"><path codeLine="81" d="M895.6024,361.2212 C896.6724,395.4512 895.31,415.87 892.66,443.83 " fill="none" id="ControlField-backto-MultipleChoiceControlField-1" style="stroke:#181818;stroke-width:1.0;"/><polygon fill="none" points="895.04,343.23,889.6053,361.4087,901.5995,361.0337,895.04,343.23" style="stroke:#181818;stroke-width:1.0;"/></g><!--reverse link ControlField to YesNoControlField--><g id="link_ControlField_YesNoControlField"><path d="M1033.6271,351.7351 C1096.0971,386.0451 1152.37,415.92 1206.72,443.93 " fill="none" id="ControlField-backto-YesNoControlField" style="stroke:#181818;stroke-width:1.0;"/><polygon fill="none" points="1017.85,343.07,1030.7387,356.9942,1036.5154,346.4761,1017.85,343.07" style="stroke:#181818;stroke-width:1.0;"/></g><!--reverse link ControlField to YesNoControlField--><g id="link_ControlField_YesNoControlField"><path codeLine="82" d="M1033.9649,338.1503 C1104.6849,375.4103 1171.71,412.18 1227.35,443.89 " fill="none" id="ControlField-backto-YesNoControlField-1" style="stroke:#181818;stroke-width:1.0;"/><polygon fill="none" points="1018.04,329.76,1031.1681,343.4586,1036.7617,332.842,1018.04,329.76" style="stroke:#181818;stroke-width:1.0;"/></g><!--link InspectionForm to ControlField--><g id="link_InspectionForm_ControlField"><path codeLine="86" d="M882,104.19 C882,126.97 882,148.85 882,174.76 " fill="none" id="InspectionForm-to-ControlField" style="stroke:#181818;stroke-width:1.0;"/><polygon fill="#181818" points="882,180.76,886,171.76,882,175.76,878,171.76,882,180.76" style="stroke:#181818;stroke-width:1.0;"/><text fill="#000000" font-family="sans-serif" font-size="13" lengthAdjust="spacing" textLength="36" x="883" y="147.0669">fields</text></g><!--link DropdownControlFieldProperties to Choice--><g id="link_DropdownControlFieldProperties_Choice"><path codeLine="87" d="M1469.05,310.57 C1489.35,345.01 1513.8133,386.4911 1535.1333,422.6611 " fill="none" id="DropdownControlFieldProperties-to-Choice" style="stroke:#181818;stroke-width:1.0;"/><polygon fill="#181818" points="1538.18,427.83,1537.0558,418.0455,1535.641,423.5226,1530.164,422.1078,1538.18,427.83" style="stroke:#181818;stroke-width:1.0;"/><text fill="#000000" font-family="sans-serif" font-size="13" lengthAdjust="spacing" textLength="49" x="1515" y="386.0669">choices</text></g><!--link MultipleChoiceControlFieldProperties to Choice--><g id="link_MultipleChoiceControlFieldProperties_Choice"><path codeLine="88" d="M1701.78,326.78 C1675.14,358.7 1647.0341,392.3831 1621.3841,423.1231 " fill="none" id="MultipleChoiceControlFieldProperties-to-Choice" style="stroke:#181818;stroke-width:1.0;"/><polygon fill="#181818" points="1617.54,427.73,1626.3773,423.3824,1620.7434,423.8909,1620.2348,418.257,1617.54,427.73" style="stroke:#181818;stroke-width:1.0;"/><text fill="#000000" font-family="sans-serif" font-size="13" lengthAdjust="spacing" textLength="49" x="1664" y="386.0669">choices</text></g><!--link ControlField to ControlFieldValidations--><g id="link_ControlField_ControlFieldValidations"><path codeLine="89" d="M745.92,289.12 C617.75,315.6 421.42,361.04 257,420 C251.18,422.09 250.8502,422.11 244.9302,424.48 " fill="none" id="ControlField-to-ControlFieldValidations" style="stroke:#181818;stroke-width:1.0;"/><polygon fill="#181818" points="239.36,426.71,249.202,427.0785,244.0018,424.8517,246.2287,419.6516,239.36,426.71" style="stroke:#181818;stroke-width:1.0;"/><text fill="#000000" font-family="sans-serif" font-size="13" lengthAdjust="spacing" textLength="72" x="393" y="386.0669">validations</text></g><!--link ControlFieldValidations to PenaltyLevels--><g id="link_ControlFieldValidations_PenaltyLevels"><path codeLine="90" d="M123,549.21 C123,574.8 123,597.5 123,619.98 " fill="none" id="ControlFieldValidations-to-PenaltyLevels" style="stroke:#181818;stroke-width:1.0;"/><polygon fill="#181818" points="123,625.98,127,616.98,123,620.98,119,616.98,123,625.98" style="stroke:#181818;stroke-width:1.0;"/><text fill="#000000" font-family="sans-serif" font-size="13" lengthAdjust="spacing" textLength="91" x="124" y="592.0669">penaltyLevels</text></g><!--SRC=[hLNRQjmm47ttL-YnfVW7J6W82O50comK2dtKIkFTWLb9bRIRRY__NlaQoMjh3QrVR8z6PywScP44SUVOat86X4Uj7hKzi5y52q_9dBUeTgmEjYUPsZnwWjx4hULdLYEGTCMVek3RuCI5Pw85lzVAMqsFpVe5T6FCOG-civbOBDIzuRQtI732eccow5VYo5yveUJDecEdj-_EisnV7zWE_CPg0zOZk7VlcsGkSuYHXdIsMbEWzFs85cHi0nNK4y2tOqQzQr2xniXyYygpNP0DDc1HomT-TiFI1XGdV_u49o37JFmtJ_4jYP7Xiaej8KwaN- -yvs9_0EKZt8U09VMhMi277nwKl1g-3sBsV0iU1QSNAy4cad0bzG5_fbqbzXe5H7G-7ycZ8RXl5_uBgP3vWFe5g9k32uyNlmVR1SsnResd9ax8yOvmfnevyobz0_Ui_ocJCb-kMPHHXIi5DkDdTbQgApXhAfZdkQhogzckGSkKA4yrLz7L33CWqTItzAV7AeKfewNpCdyG27qmX5o5DX-3fETFCZsewWODeYxlO4Yxesqn4eLkVfVp7JVZjboY6USBjOe5_HSPHFBcjgvgd1n0hgwJYxWiFwODLWtNx9MXRJTshL6D1ywg0PhTcN2OaehlmogvMvUy6eIqfwh9hVON]--></g></svg>