<?xml version="1.0" encoding="us-ascii" standalone="no"?><svg xmlns="http://www.w3.org/2000/svg" xmlns:xlink="http://www.w3.org/1999/xlink" contentStyleType="text/css" height="617px" preserveAspectRatio="none" style="width:1764px;height:617px;background:#FFFFFF;" version="1.1" viewBox="0 0 1764 617" width="1764px" zoomAndPan="magnify"><defs/><g><rect fill="#F1F1F1" height="101.4844" rx="5" ry="5" style="stroke:#F1F1F1;stroke-width:1.5;" width="282" x="10" y="216.8516"/><text fill="#000000" font-family="sans-serif" font-size="14" font-weight="bold" lengthAdjust="spacing" textLength="60" x="15" y="231.8467">form_id</text><text fill="#000000" font-family="sans-serif" font-size="14" lengthAdjust="spacing" textLength="9" x="115" y="231.8467">1</text><line style="stroke:#000000;stroke-width:1.0;" x1="110" x2="110" y1="216.8516" y2="237.1484"/><line style="stroke:#000000;stroke-width:1.0;" x1="10" x2="292" y1="237.1484" y2="237.1484"/><text fill="#000000" font-family="sans-serif" font-size="14" font-weight="bold" lengthAdjust="spacing" textLength="89" x="15" y="252.1436">form_name</text><text fill="#000000" font-family="sans-serif" font-size="14" lengthAdjust="spacing" textLength="171" x="115" y="252.1436">inpeccion_de_alimentos</text><line style="stroke:#000000;stroke-width:1.0;" x1="110" x2="110" y1="237.1484" y2="257.4453"/><line style="stroke:#000000;stroke-width:1.0;" x1="10" x2="292" y1="257.4453" y2="257.4453"/><text fill="#000000" font-family="sans-serif" font-size="14" font-weight="bold" lengthAdjust="spacing" textLength="34" x="15" y="272.4404">title</text><text fill="#000000" font-family="sans-serif" font-size="14" lengthAdjust="spacing" textLength="172" x="115" y="272.4404">Inspecci&#243;n de alimentos</text><line style="stroke:#000000;stroke-width:1.0;" x1="110" x2="110" y1="257.4453" y2="277.7422"/><line style="stroke:#000000;stroke-width:1.0;" x1="10" x2="292" y1="277.7422" y2="277.7422"/><text fill="#000000" font-family="sans-serif" font-size="14" font-weight="bold" lengthAdjust="spacing" textLength="90" x="15" y="292.7373">description</text><text fill="#000000" font-family="sans-serif" font-size="14" lengthAdjust="spacing" textLength="172" x="115" y="292.7373">Inspecci&#243;n de alimentos</text><line style="stroke:#000000;stroke-width:1.0;" x1="110" x2="110" y1="277.7422" y2="298.0391"/><line style="stroke:#000000;stroke-width:1.0;" x1="10" x2="292" y1="298.0391" y2="298.0391"/><text fill="#000000" font-family="sans-serif" font-size="14" font-weight="bold" lengthAdjust="spacing" textLength="44" x="15" y="313.0342">fields</text><text fill="#000000" font-family="sans-serif" font-size="14" lengthAdjust="spacing" textLength="12" x="115" y="313.0342">&#160;&#160;&#160;</text><line style="stroke:#000000;stroke-width:1.0;" x1="110" x2="110" y1="298.0391" y2="318.3359"/><rect fill="none" height="101.4844" rx="5" ry="5" style="stroke:#000000;stroke-width:1.5;" width="282" x="10" y="216.8516"/><rect fill="#F1F1F1" height="40.5938" rx="5" ry="5" style="stroke:#F1F1F1;stroke-width:1.5;" width="22" x="329" y="288.0938"/><text fill="#000000" font-family="sans-serif" font-size="14" lengthAdjust="spacing" textLength="12" x="334" y="303.0889">&#160;&#160;&#160;</text><line style="stroke:#000000;stroke-width:1.0;" x1="329" x2="351" y1="308.3906" y2="308.3906"/><text fill="#000000" font-family="sans-serif" font-size="14" lengthAdjust="spacing" textLength="12" x="334" y="323.3857">&#160;&#160;&#160;</text><rect fill="none" height="40.5938" rx="5" ry="5" style="stroke:#000000;stroke-width:1.5;" width="22" x="329" y="288.0938"/><rect fill="#F1F1F1" height="162.375" rx="5" ry="5" style="stroke:#F1F1F1;stroke-width:1.5;" width="290" x="429.5" y="137.4063"/><text fill="#000000" font-family="sans-serif" font-size="14" font-weight="bold" lengthAdjust="spacing" textLength="58" x="434.5" y="152.4014">field_id</text><text fill="#000000" font-family="sans-serif" font-size="14" lengthAdjust="spacing" textLength="9" x="531.5" y="152.4014">1</text><line style="stroke:#000000;stroke-width:1.0;" x1="526.5" x2="526.5" y1="137.4063" y2="157.7031"/><line style="stroke:#000000;stroke-width:1.0;" x1="429.5" x2="719.5" y1="157.7031" y2="157.7031"/><text fill="#000000" font-family="sans-serif" font-size="14" font-weight="bold" lengthAdjust="spacing" textLength="87" x="434.5" y="172.6982">field_order</text><text fill="#000000" font-family="sans-serif" font-size="14" lengthAdjust="spacing" textLength="9" x="531.5" y="172.6982">1</text><line style="stroke:#000000;stroke-width:1.0;" x1="526.5" x2="526.5" y1="157.7031" y2="178"/><line style="stroke:#000000;stroke-width:1.0;" x1="429.5" x2="719.5" y1="178" y2="178"/><text fill="#000000" font-family="sans-serif" font-size="14" font-weight="bold" lengthAdjust="spacing" textLength="87" x="434.5" y="192.9951">field_name</text><text fill="#000000" font-family="sans-serif" font-size="14" lengthAdjust="spacing" textLength="183" x="531.5" y="192.9951">dispositivos_anti_inceptos</text><line style="stroke:#000000;stroke-width:1.0;" x1="526.5" x2="526.5" y1="178" y2="198.2969"/><line style="stroke:#000000;stroke-width:1.0;" x1="429.5" x2="719.5" y1="198.2969" y2="198.2969"/><text fill="#000000" font-family="sans-serif" font-size="14" font-weight="bold" lengthAdjust="spacing" textLength="23" x="434.5" y="213.292">ref</text><text fill="#000000" font-family="sans-serif" font-size="14" lengthAdjust="spacing" textLength="183" x="531.5" y="213.292">dispositivos_anti_inceptos</text><line style="stroke:#000000;stroke-width:1.0;" x1="526.5" x2="526.5" y1="198.2969" y2="218.5938"/><line style="stroke:#000000;stroke-width:1.0;" x1="429.5" x2="719.5" y1="218.5938" y2="218.5938"/><text fill="#000000" font-family="sans-serif" font-size="14" font-weight="bold" lengthAdjust="spacing" textLength="34" x="434.5" y="233.5889">title</text><text fill="#000000" font-family="sans-serif" font-size="14" lengthAdjust="spacing" textLength="180" x="531.5" y="233.5889">Dispositivos anti-inceptos</text><line style="stroke:#000000;stroke-width:1.0;" x1="526.5" x2="526.5" y1="218.5938" y2="238.8906"/><line style="stroke:#000000;stroke-width:1.0;" x1="429.5" x2="719.5" y1="238.8906" y2="238.8906"/><text fill="#000000" font-family="sans-serif" font-size="14" font-weight="bold" lengthAdjust="spacing" textLength="36" x="434.5" y="253.8857">type</text><text fill="#000000" font-family="sans-serif" font-size="14" lengthAdjust="spacing" textLength="112" x="531.5" y="253.8857">multiple_choice</text><line style="stroke:#000000;stroke-width:1.0;" x1="526.5" x2="526.5" y1="238.8906" y2="259.1875"/><line style="stroke:#000000;stroke-width:1.0;" x1="429.5" x2="719.5" y1="259.1875" y2="259.1875"/><text fill="#000000" font-family="sans-serif" font-size="14" font-weight="bold" lengthAdjust="spacing" textLength="84" x="434.5" y="274.1826">properties</text><text fill="#000000" font-family="sans-serif" font-size="14" lengthAdjust="spacing" textLength="12" x="531.5" y="274.1826">&#160;&#160;&#160;</text><line style="stroke:#000000;stroke-width:1.0;" x1="526.5" x2="526.5" y1="259.1875" y2="279.4844"/><line style="stroke:#000000;stroke-width:1.0;" x1="429.5" x2="719.5" y1="279.4844" y2="279.4844"/><text fill="#000000" font-family="sans-serif" font-size="14" font-weight="bold" lengthAdjust="spacing" textLength="87" x="434.5" y="294.4795">validations</text><text fill="#000000" font-family="sans-serif" font-size="14" lengthAdjust="spacing" textLength="12" x="531.5" y="294.4795">&#160;&#160;&#160;</text><line style="stroke:#000000;stroke-width:1.0;" x1="526.5" x2="526.5" y1="279.4844" y2="299.7813"/><rect fill="none" height="162.375" rx="5" ry="5" style="stroke:#000000;stroke-width:1.5;" width="290" x="429.5" y="137.4063"/><rect fill="#F1F1F1" height="97.4844" rx="5" ry="5" style="stroke:#F1F1F1;stroke-width:1.5;" width="484" x="798" y="147.8516"/><text fill="#000000" font-family="sans-serif" font-size="14" font-weight="bold" lengthAdjust="spacing" textLength="90" x="803" y="162.8467">description</text><text fill="#000000" font-family="sans-serif" font-size="14" lengthAdjust="spacing" textLength="264" x="1009" y="162.8467">Cuenta con dispositivos las aberturas</text><text fill="#000000" font-family="sans-serif" font-size="14" lengthAdjust="spacing" textLength="251" x="1013" y="179.1436">y/o cortinas de aire en buen estado</text><line style="stroke:#000000;stroke-width:1.0;" x1="1004" x2="1004" y1="147.8516" y2="184.4453"/><line style="stroke:#000000;stroke-width:1.0;" x1="798" x2="1282" y1="184.4453" y2="184.4453"/><text fill="#000000" font-family="sans-serif" font-size="14" font-weight="bold" lengthAdjust="spacing" textLength="149" x="803" y="199.4404">allow_attachments</text><text fill="#000000" font-family="sans-serif" font-size="14" lengthAdjust="spacing" textLength="46" x="1009" y="199.4404">&#9745; true</text><line style="stroke:#000000;stroke-width:1.0;" x1="1004" x2="1004" y1="184.4453" y2="204.7422"/><line style="stroke:#000000;stroke-width:1.0;" x1="798" x2="1282" y1="204.7422" y2="204.7422"/><text fill="#000000" font-family="sans-serif" font-size="14" font-weight="bold" lengthAdjust="spacing" textLength="196" x="803" y="219.7373">allow_multiple_selection</text><text fill="#000000" font-family="sans-serif" font-size="14" lengthAdjust="spacing" textLength="51" x="1009" y="219.7373">&#9744; false</text><line style="stroke:#000000;stroke-width:1.0;" x1="1004" x2="1004" y1="204.7422" y2="225.0391"/><line style="stroke:#000000;stroke-width:1.0;" x1="798" x2="1282" y1="225.0391" y2="225.0391"/><text fill="#000000" font-family="sans-serif" font-size="14" font-weight="bold" lengthAdjust="spacing" textLength="59" x="803" y="240.0342">choices</text><text fill="#000000" font-family="sans-serif" font-size="14" lengthAdjust="spacing" textLength="12" x="1009" y="240.0342">&#160;&#160;&#160;</text><line style="stroke:#000000;stroke-width:1.0;" x1="1004" x2="1004" y1="225.0391" y2="245.3359"/><rect fill="none" height="97.4844" rx="5" ry="5" style="stroke:#000000;stroke-width:1.5;" width="484" x="798" y="147.8516"/><rect fill="#F1F1F1" height="81.1875" rx="5" ry="5" style="stroke:#F1F1F1;stroke-width:1.5;" width="22" x="1393.5" y="195"/><text fill="#000000" font-family="sans-serif" font-size="14" lengthAdjust="spacing" textLength="12" x="1398.5" y="209.9951">&#160;&#160;&#160;</text><line style="stroke:#000000;stroke-width:1.0;" x1="1393.5" x2="1415.5" y1="215.2969" y2="215.2969"/><text fill="#000000" font-family="sans-serif" font-size="14" lengthAdjust="spacing" textLength="12" x="1398.5" y="230.292">&#160;&#160;&#160;</text><line style="stroke:#000000;stroke-width:1.0;" x1="1393.5" x2="1415.5" y1="235.5938" y2="235.5938"/><text fill="#000000" font-family="sans-serif" font-size="14" lengthAdjust="spacing" textLength="12" x="1398.5" y="250.5889">&#160;&#160;&#160;</text><line style="stroke:#000000;stroke-width:1.0;" x1="1393.5" x2="1415.5" y1="255.8906" y2="255.8906"/><text fill="#000000" font-family="sans-serif" font-size="14" lengthAdjust="spacing" textLength="12" x="1398.5" y="270.8857">&#160;&#160;&#160;</text><rect fill="none" height="81.1875" rx="5" ry="5" style="stroke:#000000;stroke-width:1.5;" width="22" x="1393.5" y="195"/><rect fill="#F1F1F1" height="81.1875" rx="5" ry="5" style="stroke:#F1F1F1;stroke-width:1.5;" width="225" x="1527" y="10"/><text fill="#000000" font-family="sans-serif" font-size="14" font-weight="bold" lengthAdjust="spacing" textLength="39" x="1532" y="24.9951">label</text><text fill="#000000" font-family="sans-serif" font-size="14" lengthAdjust="spacing" textLength="112" x="1632" y="24.9951">tela mosquitera</text><line style="stroke:#000000;stroke-width:1.0;" x1="1627" x2="1627" y1="10" y2="30.2969"/><line style="stroke:#000000;stroke-width:1.0;" x1="1527" x2="1752" y1="30.2969" y2="30.2969"/><text fill="#000000" font-family="sans-serif" font-size="14" font-weight="bold" lengthAdjust="spacing" textLength="23" x="1532" y="45.292">ref</text><text fill="#000000" font-family="sans-serif" font-size="14" lengthAdjust="spacing" textLength="115" x="1632" y="45.292">tela_mosquitera</text><line style="stroke:#000000;stroke-width:1.0;" x1="1627" x2="1627" y1="30.2969" y2="50.5938"/><line style="stroke:#000000;stroke-width:1.0;" x1="1527" x2="1752" y1="50.5938" y2="50.5938"/><text fill="#000000" font-family="sans-serif" font-size="14" font-weight="bold" lengthAdjust="spacing" textLength="90" x="1532" y="65.5889">description</text><text fill="#000000" font-family="sans-serif" font-size="14" lengthAdjust="spacing" textLength="112" x="1632" y="65.5889">tela mosquitera</text><line style="stroke:#000000;stroke-width:1.0;" x1="1627" x2="1627" y1="50.5938" y2="70.8906"/><line style="stroke:#000000;stroke-width:1.0;" x1="1527" x2="1752" y1="70.8906" y2="70.8906"/><text fill="#000000" font-family="sans-serif" font-size="14" font-weight="bold" lengthAdjust="spacing" textLength="90" x="1532" y="85.8857">compliance</text><text fill="#000000" font-family="sans-serif" font-size="14" lengthAdjust="spacing" textLength="29" x="1632" y="85.8857">true</text><line style="stroke:#000000;stroke-width:1.0;" x1="1627" x2="1627" y1="70.8906" y2="91.1875"/><rect fill="none" height="81.1875" rx="5" ry="5" style="stroke:#000000;stroke-width:1.5;" width="225" x="1527" y="10"/><rect fill="#F1F1F1" height="81.1875" rx="5" ry="5" style="stroke:#F1F1F1;stroke-width:1.5;" width="220" x="1529.5" y="109"/><text fill="#000000" font-family="sans-serif" font-size="14" font-weight="bold" lengthAdjust="spacing" textLength="39" x="1534.5" y="123.9951">label</text><text fill="#000000" font-family="sans-serif" font-size="14" lengthAdjust="spacing" textLength="104" x="1634.5" y="123.9951">cortina de aire</text><line style="stroke:#000000;stroke-width:1.0;" x1="1629.5" x2="1629.5" y1="109" y2="129.2969"/><line style="stroke:#000000;stroke-width:1.0;" x1="1529.5" x2="1749.5" y1="129.2969" y2="129.2969"/><text fill="#000000" font-family="sans-serif" font-size="14" font-weight="bold" lengthAdjust="spacing" textLength="23" x="1534.5" y="144.292">ref</text><text fill="#000000" font-family="sans-serif" font-size="14" lengthAdjust="spacing" textLength="110" x="1634.5" y="144.292">cortina_de_aire</text><line style="stroke:#000000;stroke-width:1.0;" x1="1629.5" x2="1629.5" y1="129.2969" y2="149.5938"/><line style="stroke:#000000;stroke-width:1.0;" x1="1529.5" x2="1749.5" y1="149.5938" y2="149.5938"/><text fill="#000000" font-family="sans-serif" font-size="14" font-weight="bold" lengthAdjust="spacing" textLength="90" x="1534.5" y="164.5889">description</text><text fill="#000000" font-family="sans-serif" font-size="14" lengthAdjust="spacing" textLength="104" x="1634.5" y="164.5889">cortina de aire</text><line style="stroke:#000000;stroke-width:1.0;" x1="1629.5" x2="1629.5" y1="149.5938" y2="169.8906"/><line style="stroke:#000000;stroke-width:1.0;" x1="1529.5" x2="1749.5" y1="169.8906" y2="169.8906"/><text fill="#000000" font-family="sans-serif" font-size="14" font-weight="bold" lengthAdjust="spacing" textLength="90" x="1534.5" y="184.8857">compliance</text><text fill="#000000" font-family="sans-serif" font-size="14" lengthAdjust="spacing" textLength="29" x="1634.5" y="184.8857">true</text><line style="stroke:#000000;stroke-width:1.0;" x1="1629.5" x2="1629.5" y1="169.8906" y2="190.1875"/><rect fill="none" height="81.1875" rx="5" ry="5" style="stroke:#000000;stroke-width:1.5;" width="220" x="1529.5" y="109"/><rect fill="#F1F1F1" height="81.1875" rx="5" ry="5" style="stroke:#F1F1F1;stroke-width:1.5;" width="212" x="1533.5" y="208"/><text fill="#000000" font-family="sans-serif" font-size="14" font-weight="bold" lengthAdjust="spacing" textLength="39" x="1538.5" y="222.9951">label</text><text fill="#000000" font-family="sans-serif" font-size="14" lengthAdjust="spacing" textLength="99" x="1638.5" y="222.9951">malla plastica</text><line style="stroke:#000000;stroke-width:1.0;" x1="1633.5" x2="1633.5" y1="208" y2="228.2969"/><line style="stroke:#000000;stroke-width:1.0;" x1="1533.5" x2="1745.5" y1="228.2969" y2="228.2969"/><text fill="#000000" font-family="sans-serif" font-size="14" font-weight="bold" lengthAdjust="spacing" textLength="23" x="1538.5" y="243.292">ref</text><text fill="#000000" font-family="sans-serif" font-size="14" lengthAdjust="spacing" textLength="102" x="1638.5" y="243.292">malla_plastica</text><line style="stroke:#000000;stroke-width:1.0;" x1="1633.5" x2="1633.5" y1="228.2969" y2="248.5938"/><line style="stroke:#000000;stroke-width:1.0;" x1="1533.5" x2="1745.5" y1="248.5938" y2="248.5938"/><text fill="#000000" font-family="sans-serif" font-size="14" font-weight="bold" lengthAdjust="spacing" textLength="90" x="1538.5" y="263.5889">description</text><text fill="#000000" font-family="sans-serif" font-size="14" lengthAdjust="spacing" textLength="99" x="1638.5" y="263.5889">malla plastica</text><line style="stroke:#000000;stroke-width:1.0;" x1="1633.5" x2="1633.5" y1="248.5938" y2="268.8906"/><line style="stroke:#000000;stroke-width:1.0;" x1="1533.5" x2="1745.5" y1="268.8906" y2="268.8906"/><text fill="#000000" font-family="sans-serif" font-size="14" font-weight="bold" lengthAdjust="spacing" textLength="90" x="1538.5" y="283.8857">compliance</text><text fill="#000000" font-family="sans-serif" font-size="14" lengthAdjust="spacing" textLength="29" x="1638.5" y="283.8857">true</text><line style="stroke:#000000;stroke-width:1.0;" x1="1633.5" x2="1633.5" y1="268.8906" y2="289.1875"/><rect fill="none" height="81.1875" rx="5" ry="5" style="stroke:#000000;stroke-width:1.5;" width="212" x="1533.5" y="208"/><rect fill="#F1F1F1" height="81.1875" rx="5" ry="5" style="stroke:#F1F1F1;stroke-width:1.5;" width="213" x="1533" y="307"/><text fill="#000000" font-family="sans-serif" font-size="14" font-weight="bold" lengthAdjust="spacing" textLength="39" x="1538" y="321.9951">label</text><text fill="#000000" font-family="sans-serif" font-size="14" lengthAdjust="spacing" textLength="100" x="1638" y="321.9951">sin proteccion</text><line style="stroke:#000000;stroke-width:1.0;" x1="1633" x2="1633" y1="307" y2="327.2969"/><line style="stroke:#000000;stroke-width:1.0;" x1="1533" x2="1746" y1="327.2969" y2="327.2969"/><text fill="#000000" font-family="sans-serif" font-size="14" font-weight="bold" lengthAdjust="spacing" textLength="23" x="1538" y="342.292">ref</text><text fill="#000000" font-family="sans-serif" font-size="14" lengthAdjust="spacing" textLength="103" x="1638" y="342.292">sin_proteccion</text><line style="stroke:#000000;stroke-width:1.0;" x1="1633" x2="1633" y1="327.2969" y2="347.5938"/><line style="stroke:#000000;stroke-width:1.0;" x1="1533" x2="1746" y1="347.5938" y2="347.5938"/><text fill="#000000" font-family="sans-serif" font-size="14" font-weight="bold" lengthAdjust="spacing" textLength="90" x="1538" y="362.5889">description</text><text fill="#000000" font-family="sans-serif" font-size="14" lengthAdjust="spacing" textLength="100" x="1638" y="362.5889">sin proteccion</text><line style="stroke:#000000;stroke-width:1.0;" x1="1633" x2="1633" y1="347.5938" y2="367.8906"/><line style="stroke:#000000;stroke-width:1.0;" x1="1533" x2="1746" y1="367.8906" y2="367.8906"/><text fill="#000000" font-family="sans-serif" font-size="14" font-weight="bold" lengthAdjust="spacing" textLength="90" x="1538" y="382.8857">compliance</text><text fill="#000000" font-family="sans-serif" font-size="14" lengthAdjust="spacing" textLength="34" x="1638" y="382.8857">false</text><line style="stroke:#000000;stroke-width:1.0;" x1="1633" x2="1633" y1="367.8906" y2="388.1875"/><rect fill="none" height="81.1875" rx="5" ry="5" style="stroke:#000000;stroke-width:1.5;" width="213" x="1533" y="307"/><rect fill="#F1F1F1" height="101.4844" rx="5" ry="5" style="stroke:#F1F1F1;stroke-width:1.5;" width="212" x="934" y="262.8516"/><text fill="#000000" font-family="sans-serif" font-size="14" font-weight="bold" lengthAdjust="spacing" textLength="69" x="939" y="277.8467">required</text><text fill="#000000" font-family="sans-serif" font-size="14" lengthAdjust="spacing" textLength="46" x="1095" y="277.8467">&#9745; true</text><line style="stroke:#000000;stroke-width:1.0;" x1="1090" x2="1090" y1="262.8516" y2="283.1484"/><line style="stroke:#000000;stroke-width:1.0;" x1="934" x2="1146" y1="283.1484" y2="283.1484"/><text fill="#000000" font-family="sans-serif" font-size="14" font-weight="bold" lengthAdjust="spacing" textLength="82" x="939" y="298.1436">rectifiable</text><text fill="#000000" font-family="sans-serif" font-size="14" lengthAdjust="spacing" textLength="46" x="1095" y="298.1436">&#9745; true</text><line style="stroke:#000000;stroke-width:1.0;" x1="1090" x2="1090" y1="283.1484" y2="303.4453"/><line style="stroke:#000000;stroke-width:1.0;" x1="934" x2="1146" y1="303.4453" y2="303.4453"/><text fill="#000000" font-family="sans-serif" font-size="14" font-weight="bold" lengthAdjust="spacing" textLength="95" x="939" y="318.4404">enforceable</text><text fill="#000000" font-family="sans-serif" font-size="14" lengthAdjust="spacing" textLength="46" x="1095" y="318.4404">&#9745; true</text><line style="stroke:#000000;stroke-width:1.0;" x1="1090" x2="1090" y1="303.4453" y2="323.7422"/><line style="stroke:#000000;stroke-width:1.0;" x1="934" x2="1146" y1="323.7422" y2="323.7422"/><text fill="#000000" font-family="sans-serif" font-size="14" font-weight="bold" lengthAdjust="spacing" textLength="146" x="939" y="338.7373">grace_period_days</text><text fill="#000000" font-family="sans-serif" font-size="14" lengthAdjust="spacing" textLength="18" x="1095" y="338.7373">30</text><line style="stroke:#000000;stroke-width:1.0;" x1="1090" x2="1090" y1="323.7422" y2="344.0391"/><line style="stroke:#000000;stroke-width:1.0;" x1="934" x2="1146" y1="344.0391" y2="344.0391"/><text fill="#000000" font-family="sans-serif" font-size="14" font-weight="bold" lengthAdjust="spacing" textLength="114" x="939" y="359.0342">penalty_levels</text><text fill="#000000" font-family="sans-serif" font-size="14" lengthAdjust="spacing" textLength="12" x="1095" y="359.0342">&#160;&#160;&#160;</text><line style="stroke:#000000;stroke-width:1.0;" x1="1090" x2="1090" y1="344.0391" y2="364.3359"/><rect fill="none" height="101.4844" rx="5" ry="5" style="stroke:#000000;stroke-width:1.5;" width="212" x="934" y="262.8516"/><rect fill="#F1F1F1" height="40.5938" rx="5" ry="5" style="stroke:#F1F1F1;stroke-width:1.5;" width="171" x="1319" y="334.0938"/><text fill="#000000" font-family="sans-serif" font-size="14" font-weight="bold" lengthAdjust="spacing" textLength="105" x="1324" y="349.0889">infringement</text><text fill="#000000" font-family="sans-serif" font-size="14" lengthAdjust="spacing" textLength="46" x="1439" y="349.0889">&#9745; true</text><line style="stroke:#000000;stroke-width:1.0;" x1="1434" x2="1434" y1="334.0938" y2="354.3906"/><line style="stroke:#000000;stroke-width:1.0;" x1="1319" x2="1490" y1="354.3906" y2="354.3906"/><text fill="#000000" font-family="sans-serif" font-size="14" font-weight="bold" lengthAdjust="spacing" textLength="58" x="1324" y="369.3857">closure</text><text fill="#000000" font-family="sans-serif" font-size="14" lengthAdjust="spacing" textLength="46" x="1439" y="369.3857">&#9745; true</text><line style="stroke:#000000;stroke-width:1.0;" x1="1434" x2="1434" y1="354.3906" y2="374.6875"/><rect fill="none" height="40.5938" rx="5" ry="5" style="stroke:#000000;stroke-width:1.5;" width="171" x="1319" y="334.0938"/><rect fill="#F1F1F1" height="162.375" rx="5" ry="5" style="stroke:#F1F1F1;stroke-width:1.5;" width="373" x="388" y="317.4063"/><text fill="#000000" font-family="sans-serif" font-size="14" font-weight="bold" lengthAdjust="spacing" textLength="58" x="393" y="332.4014">field_id</text><text fill="#000000" font-family="sans-serif" font-size="14" lengthAdjust="spacing" textLength="9" x="490" y="332.4014">2</text><line style="stroke:#000000;stroke-width:1.0;" x1="485" x2="485" y1="317.4063" y2="337.7031"/><line style="stroke:#000000;stroke-width:1.0;" x1="388" x2="761" y1="337.7031" y2="337.7031"/><text fill="#000000" font-family="sans-serif" font-size="14" font-weight="bold" lengthAdjust="spacing" textLength="87" x="393" y="352.6982">field_order</text><text fill="#000000" font-family="sans-serif" font-size="14" lengthAdjust="spacing" textLength="9" x="490" y="352.6982">2</text><line style="stroke:#000000;stroke-width:1.0;" x1="485" x2="485" y1="337.7031" y2="358"/><line style="stroke:#000000;stroke-width:1.0;" x1="388" x2="761" y1="358" y2="358"/><text fill="#000000" font-family="sans-serif" font-size="14" font-weight="bold" lengthAdjust="spacing" textLength="87" x="393" y="372.9951">field_name</text><text fill="#000000" font-family="sans-serif" font-size="14" lengthAdjust="spacing" textLength="227" x="490" y="372.9951">carnet_manipulacion_alimentos</text><line style="stroke:#000000;stroke-width:1.0;" x1="485" x2="485" y1="358" y2="378.2969"/><line style="stroke:#000000;stroke-width:1.0;" x1="388" x2="761" y1="378.2969" y2="378.2969"/><text fill="#000000" font-family="sans-serif" font-size="14" font-weight="bold" lengthAdjust="spacing" textLength="23" x="393" y="393.292">ref</text><text fill="#000000" font-family="sans-serif" font-size="14" lengthAdjust="spacing" textLength="227" x="490" y="393.292">carnet_manipulacion_alimentos</text><line style="stroke:#000000;stroke-width:1.0;" x1="485" x2="485" y1="378.2969" y2="398.5938"/><line style="stroke:#000000;stroke-width:1.0;" x1="388" x2="761" y1="398.5938" y2="398.5938"/><text fill="#000000" font-family="sans-serif" font-size="14" font-weight="bold" lengthAdjust="spacing" textLength="34" x="393" y="413.5889">title</text><text fill="#000000" font-family="sans-serif" font-size="14" lengthAdjust="spacing" textLength="266" x="490" y="413.5889">Carnet de Manipulaci&#243;n de Alimentos</text><line style="stroke:#000000;stroke-width:1.0;" x1="485" x2="485" y1="398.5938" y2="418.8906"/><line style="stroke:#000000;stroke-width:1.0;" x1="388" x2="761" y1="418.8906" y2="418.8906"/><text fill="#000000" font-family="sans-serif" font-size="14" font-weight="bold" lengthAdjust="spacing" textLength="36" x="393" y="433.8857">type</text><text fill="#000000" font-family="sans-serif" font-size="14" lengthAdjust="spacing" textLength="49" x="490" y="433.8857">yes_no</text><line style="stroke:#000000;stroke-width:1.0;" x1="485" x2="485" y1="418.8906" y2="439.1875"/><line style="stroke:#000000;stroke-width:1.0;" x1="388" x2="761" y1="439.1875" y2="439.1875"/><text fill="#000000" font-family="sans-serif" font-size="14" font-weight="bold" lengthAdjust="spacing" textLength="84" x="393" y="454.1826">properties</text><text fill="#000000" font-family="sans-serif" font-size="14" lengthAdjust="spacing" textLength="12" x="490" y="454.1826">&#160;&#160;&#160;</text><line style="stroke:#000000;stroke-width:1.0;" x1="485" x2="485" y1="439.1875" y2="459.4844"/><line style="stroke:#000000;stroke-width:1.0;" x1="388" x2="761" y1="459.4844" y2="459.4844"/><text fill="#000000" font-family="sans-serif" font-size="14" font-weight="bold" lengthAdjust="spacing" textLength="87" x="393" y="474.4795">validations</text><text fill="#000000" font-family="sans-serif" font-size="14" lengthAdjust="spacing" textLength="12" x="490" y="474.4795">&#160;&#160;&#160;</text><line style="stroke:#000000;stroke-width:1.0;" x1="485" x2="485" y1="459.4844" y2="479.7813"/><rect fill="none" height="162.375" rx="5" ry="5" style="stroke:#000000;stroke-width:1.5;" width="373" x="388" y="317.4063"/><rect fill="#F1F1F1" height="77.1875" rx="5" ry="5" style="stroke:#F1F1F1;stroke-width:1.5;" width="477" x="801.5" y="399"/><text fill="#000000" font-family="sans-serif" font-size="14" font-weight="bold" lengthAdjust="spacing" textLength="90" x="806.5" y="413.9951">description</text><text fill="#000000" font-family="sans-serif" font-size="14" lengthAdjust="spacing" textLength="304" x="965.5" y="413.9951">Exhibe el personal carnet de manipulaci&#243;n</text><text fill="#000000" font-family="sans-serif" font-size="14" lengthAdjust="spacing" textLength="156" x="965.5" y="430.292">de alimentos vigente?</text><line style="stroke:#000000;stroke-width:1.0;" x1="960.5" x2="960.5" y1="399" y2="435.5938"/><line style="stroke:#000000;stroke-width:1.0;" x1="801.5" x2="1278.5" y1="435.5938" y2="435.5938"/><text fill="#000000" font-family="sans-serif" font-size="14" font-weight="bold" lengthAdjust="spacing" textLength="149" x="806.5" y="450.5889">allow_attachments</text><text fill="#000000" font-family="sans-serif" font-size="14" lengthAdjust="spacing" textLength="51" x="965.5" y="450.5889">&#9744; false</text><line style="stroke:#000000;stroke-width:1.0;" x1="960.5" x2="960.5" y1="435.5938" y2="455.8906"/><line style="stroke:#000000;stroke-width:1.0;" x1="801.5" x2="1278.5" y1="455.8906" y2="455.8906"/><text fill="#000000" font-family="sans-serif" font-size="14" font-weight="bold" lengthAdjust="spacing" textLength="59" x="806.5" y="470.8857">choices</text><text fill="#000000" font-family="sans-serif" font-size="14" lengthAdjust="spacing" textLength="12" x="965.5" y="470.8857">&#160;&#160;&#160;</text><line style="stroke:#000000;stroke-width:1.0;" x1="960.5" x2="960.5" y1="455.8906" y2="476.1875"/><rect fill="none" height="77.1875" rx="5" ry="5" style="stroke:#000000;stroke-width:1.5;" width="477" x="801.5" y="399"/><rect fill="#F1F1F1" height="40.5938" rx="5" ry="5" style="stroke:#F1F1F1;stroke-width:1.5;" width="22" x="1393.5" y="445.0938"/><text fill="#000000" font-family="sans-serif" font-size="14" lengthAdjust="spacing" textLength="12" x="1398.5" y="460.0889">&#160;&#160;&#160;</text><line style="stroke:#000000;stroke-width:1.0;" x1="1393.5" x2="1415.5" y1="465.3906" y2="465.3906"/><text fill="#000000" font-family="sans-serif" font-size="14" lengthAdjust="spacing" textLength="12" x="1398.5" y="480.3857">&#160;&#160;&#160;</text><rect fill="none" height="40.5938" rx="5" ry="5" style="stroke:#000000;stroke-width:1.5;" width="22" x="1393.5" y="445.0938"/><rect fill="#F1F1F1" height="81.1875" rx="5" ry="5" style="stroke:#F1F1F1;stroke-width:1.5;" width="165" x="1557" y="412"/><text fill="#000000" font-family="sans-serif" font-size="14" font-weight="bold" lengthAdjust="spacing" textLength="39" x="1562" y="426.9951">label</text><text fill="#000000" font-family="sans-serif" font-size="14" lengthAdjust="spacing" textLength="13" x="1662" y="426.9951">S&#237;</text><line style="stroke:#000000;stroke-width:1.0;" x1="1657" x2="1657" y1="412" y2="432.2969"/><line style="stroke:#000000;stroke-width:1.0;" x1="1557" x2="1722" y1="432.2969" y2="432.2969"/><text fill="#000000" font-family="sans-serif" font-size="14" font-weight="bold" lengthAdjust="spacing" textLength="23" x="1562" y="447.292">ref</text><text fill="#000000" font-family="sans-serif" font-size="14" lengthAdjust="spacing" textLength="11" x="1662" y="447.292">si</text><line style="stroke:#000000;stroke-width:1.0;" x1="1657" x2="1657" y1="432.2969" y2="452.5938"/><line style="stroke:#000000;stroke-width:1.0;" x1="1557" x2="1722" y1="452.5938" y2="452.5938"/><text fill="#000000" font-family="sans-serif" font-size="14" font-weight="bold" lengthAdjust="spacing" textLength="90" x="1562" y="467.5889">description</text><text fill="#000000" font-family="sans-serif" font-size="14" lengthAdjust="spacing" textLength="55" x="1662" y="467.5889">Cumple</text><line style="stroke:#000000;stroke-width:1.0;" x1="1657" x2="1657" y1="452.5938" y2="472.8906"/><line style="stroke:#000000;stroke-width:1.0;" x1="1557" x2="1722" y1="472.8906" y2="472.8906"/><text fill="#000000" font-family="sans-serif" font-size="14" font-weight="bold" lengthAdjust="spacing" textLength="90" x="1562" y="487.8857">compliance</text><text fill="#000000" font-family="sans-serif" font-size="14" lengthAdjust="spacing" textLength="29" x="1662" y="487.8857">true</text><line style="stroke:#000000;stroke-width:1.0;" x1="1657" x2="1657" y1="472.8906" y2="493.1875"/><rect fill="none" height="81.1875" rx="5" ry="5" style="stroke:#000000;stroke-width:1.5;" width="165" x="1557" y="412"/><rect fill="#F1F1F1" height="81.1875" rx="5" ry="5" style="stroke:#F1F1F1;stroke-width:1.5;" width="188" x="1545.5" y="511"/><text fill="#000000" font-family="sans-serif" font-size="14" font-weight="bold" lengthAdjust="spacing" textLength="39" x="1550.5" y="525.9951">label</text><text fill="#000000" font-family="sans-serif" font-size="14" lengthAdjust="spacing" textLength="19" x="1650.5" y="525.9951">No</text><line style="stroke:#000000;stroke-width:1.0;" x1="1645.5" x2="1645.5" y1="511" y2="531.2969"/><line style="stroke:#000000;stroke-width:1.0;" x1="1545.5" x2="1733.5" y1="531.2969" y2="531.2969"/><text fill="#000000" font-family="sans-serif" font-size="14" font-weight="bold" lengthAdjust="spacing" textLength="23" x="1550.5" y="546.292">ref</text><text fill="#000000" font-family="sans-serif" font-size="14" lengthAdjust="spacing" textLength="18" x="1650.5" y="546.292">no</text><line style="stroke:#000000;stroke-width:1.0;" x1="1645.5" x2="1645.5" y1="531.2969" y2="551.5938"/><line style="stroke:#000000;stroke-width:1.0;" x1="1545.5" x2="1733.5" y1="551.5938" y2="551.5938"/><text fill="#000000" font-family="sans-serif" font-size="14" font-weight="bold" lengthAdjust="spacing" textLength="90" x="1550.5" y="566.5889">description</text><text fill="#000000" font-family="sans-serif" font-size="14" lengthAdjust="spacing" textLength="78" x="1650.5" y="566.5889">No Cumple</text><line style="stroke:#000000;stroke-width:1.0;" x1="1645.5" x2="1645.5" y1="551.5938" y2="571.8906"/><line style="stroke:#000000;stroke-width:1.0;" x1="1545.5" x2="1733.5" y1="571.8906" y2="571.8906"/><text fill="#000000" font-family="sans-serif" font-size="14" font-weight="bold" lengthAdjust="spacing" textLength="90" x="1550.5" y="586.8857">compliance</text><text fill="#000000" font-family="sans-serif" font-size="14" lengthAdjust="spacing" textLength="34" x="1650.5" y="586.8857">false</text><line style="stroke:#000000;stroke-width:1.0;" x1="1645.5" x2="1645.5" y1="571.8906" y2="592.1875"/><rect fill="none" height="81.1875" rx="5" ry="5" style="stroke:#000000;stroke-width:1.5;" width="188" x="1545.5" y="511"/><rect fill="#F1F1F1" height="101.4844" rx="5" ry="5" style="stroke:#F1F1F1;stroke-width:1.5;" width="212" x="934" y="493.8516"/><text fill="#000000" font-family="sans-serif" font-size="14" font-weight="bold" lengthAdjust="spacing" textLength="69" x="939" y="508.8467">required</text><text fill="#000000" font-family="sans-serif" font-size="14" lengthAdjust="spacing" textLength="46" x="1095" y="508.8467">&#9745; true</text><line style="stroke:#000000;stroke-width:1.0;" x1="1090" x2="1090" y1="493.8516" y2="514.1484"/><line style="stroke:#000000;stroke-width:1.0;" x1="934" x2="1146" y1="514.1484" y2="514.1484"/><text fill="#000000" font-family="sans-serif" font-size="14" font-weight="bold" lengthAdjust="spacing" textLength="82" x="939" y="529.1436">rectifiable</text><text fill="#000000" font-family="sans-serif" font-size="14" lengthAdjust="spacing" textLength="46" x="1095" y="529.1436">&#9745; true</text><line style="stroke:#000000;stroke-width:1.0;" x1="1090" x2="1090" y1="514.1484" y2="534.4453"/><line style="stroke:#000000;stroke-width:1.0;" x1="934" x2="1146" y1="534.4453" y2="534.4453"/><text fill="#000000" font-family="sans-serif" font-size="14" font-weight="bold" lengthAdjust="spacing" textLength="95" x="939" y="549.4404">enforceable</text><text fill="#000000" font-family="sans-serif" font-size="14" lengthAdjust="spacing" textLength="46" x="1095" y="549.4404">&#9745; true</text><line style="stroke:#000000;stroke-width:1.0;" x1="1090" x2="1090" y1="534.4453" y2="554.7422"/><line style="stroke:#000000;stroke-width:1.0;" x1="934" x2="1146" y1="554.7422" y2="554.7422"/><text fill="#000000" font-family="sans-serif" font-size="14" font-weight="bold" lengthAdjust="spacing" textLength="146" x="939" y="569.7373">grace_period_days</text><text fill="#000000" font-family="sans-serif" font-size="14" lengthAdjust="spacing" textLength="18" x="1095" y="569.7373">15</text><line style="stroke:#000000;stroke-width:1.0;" x1="1090" x2="1090" y1="554.7422" y2="575.0391"/><line style="stroke:#000000;stroke-width:1.0;" x1="934" x2="1146" y1="575.0391" y2="575.0391"/><text fill="#000000" font-family="sans-serif" font-size="14" font-weight="bold" lengthAdjust="spacing" textLength="114" x="939" y="590.0342">penalty_levels</text><text fill="#000000" font-family="sans-serif" font-size="14" lengthAdjust="spacing" textLength="12" x="1095" y="590.0342">&#160;&#160;&#160;</text><line style="stroke:#000000;stroke-width:1.0;" x1="1090" x2="1090" y1="575.0391" y2="595.3359"/><rect fill="none" height="101.4844" rx="5" ry="5" style="stroke:#000000;stroke-width:1.5;" width="212" x="934" y="493.8516"/><rect fill="#F1F1F1" height="40.5938" rx="5" ry="5" style="stroke:#F1F1F1;stroke-width:1.5;" width="171" x="1319" y="565.0938"/><text fill="#000000" font-family="sans-serif" font-size="14" font-weight="bold" lengthAdjust="spacing" textLength="105" x="1324" y="580.0889">infringement</text><text fill="#000000" font-family="sans-serif" font-size="14" lengthAdjust="spacing" textLength="46" x="1439" y="580.0889">&#9745; true</text><line style="stroke:#000000;stroke-width:1.0;" x1="1434" x2="1434" y1="565.0938" y2="585.3906"/><line style="stroke:#000000;stroke-width:1.0;" x1="1319" x2="1490" y1="585.3906" y2="585.3906"/><text fill="#000000" font-family="sans-serif" font-size="14" font-weight="bold" lengthAdjust="spacing" textLength="58" x="1324" y="600.3857">closure</text><text fill="#000000" font-family="sans-serif" font-size="14" lengthAdjust="spacing" textLength="46" x="1439" y="600.3857">&#9745; true</text><line style="stroke:#000000;stroke-width:1.0;" x1="1434" x2="1434" y1="585.3906" y2="605.6875"/><rect fill="none" height="40.5938" rx="5" ry="5" style="stroke:#000000;stroke-width:1.5;" width="171" x="1319" y="565.0938"/><path d="M1404,205.5938 L1417,205.5938 C1484.8939,205.5938 1470.5708,137.3473 1527,99.5938 C1529.1609,98.148 1531.3714,96.7284 1533.6219,95.3358 " fill="none" style="stroke:#000000;stroke-width:1.0;stroke-dasharray:3.0,3.0;"/><path d="M1535.2604,98.0805 L1535.6804,94.107 L1531.9835,92.5912 L1540.4836,91.2397 L1535.2604,98.0805 " fill="#000000" style="stroke:#000000;stroke-width:1.0;"/><ellipse cx="1404" cy="205.5938" fill="#000000" rx="3" ry="3" style="stroke:#000000;stroke-width:1.0;"/><path d="M1404,225.5938 L1417,225.5938 C1440.588,225.5938 1488.2636,210.0418 1533.4072,193.008 " fill="none" style="stroke:#000000;stroke-width:1.0;stroke-dasharray:3.0,3.0;"/><path d="M1534.505,195.8958 L1535.5731,192.1847 L1532.3095,190.1203 L1540.6267,190.2637 L1534.505,195.8958 " fill="#000000" style="stroke:#000000;stroke-width:1.0;"/><ellipse cx="1404" cy="225.5938" fill="#000000" rx="3" ry="3" style="stroke:#000000;stroke-width:1.0;"/><path d="M1404,245.5938 L1417,245.5938 C1452.4766,245.5938 1491.1393,245.9815 1526.1115,246.4783 " fill="none" style="stroke:#000000;stroke-width:1.0;stroke-dasharray:3.0,3.0;"/><path d="M1526.0657,249.6257 L1528.472,246.5126 L1526.1572,243.3308 L1533.98,246.5927 L1526.0657,249.6257 " fill="#000000" style="stroke:#000000;stroke-width:1.0;"/><ellipse cx="1404" cy="245.5938" fill="#000000" rx="3" ry="3" style="stroke:#000000;stroke-width:1.0;"/><path d="M1404,265.5938 L1417,265.5938 C1429.6307,265.5938 1481.3481,284.5131 1531.6884,304.1765 " fill="none" style="stroke:#000000;stroke-width:1.0;stroke-dasharray:3.0,3.0;"/><path d="M1530.5774,307.0124 L1533.8154,305.0098 L1532.7995,301.3405 L1538.7783,306.9541 L1530.5774,307.0124 " fill="#000000" style="stroke:#000000;stroke-width:1.0;"/><ellipse cx="1404" cy="265.5938" fill="#000000" rx="3" ry="3" style="stroke:#000000;stroke-width:1.0;"/><path d="M1270,235.5938 L1283,235.5938 C1319.6702,235.5938 1362.5917,235.5938 1386.1887,235.5938 " fill="none" style="stroke:#000000;stroke-width:1.0;stroke-dasharray:3.0,3.0;"/><path d="M1386.1887,238.7025 L1388.5203,235.5938 L1386.1887,232.485 L1393.9607,235.5938 L1386.1887,238.7025 " fill="#000000" style="stroke:#000000;stroke-width:1.0;"/><ellipse cx="1270" cy="235.5938" fill="#000000" rx="3" ry="3" style="stroke:#000000;stroke-width:1.0;"/><path d="M708,269.5938 L721,269.5938 C724.3508,269.5938 768.6342,259.645 823.1716,247.093 " fill="none" style="stroke:#000000;stroke-width:1.0;stroke-dasharray:3.0,3.0;"/><path d="M823.8539,250.055 L825.3931,246.5812 L822.4893,244.1309 L830.5767,245.3872 L823.8539,250.055 " fill="#000000" style="stroke:#000000;stroke-width:1.0;"/><ellipse cx="708" cy="269.5938" fill="#000000" rx="3" ry="3" style="stroke:#000000;stroke-width:1.0;"/><path d="M1134.5,354.5938 L1147.5,354.5938 C1201.9225,354.5938 1262.8402,354.5938 1311.6486,354.5938 " fill="none" style="stroke:#000000;stroke-width:1.0;stroke-dasharray:3.0,3.0;"/><path d="M1311.6486,357.6844 L1313.9666,354.5938 L1311.6486,351.5031 L1319.3752,354.5938 L1311.6486,357.6844 " fill="#000000" style="stroke:#000000;stroke-width:1.0;"/><ellipse cx="1134.5" cy="354.5938" fill="#000000" rx="3" ry="3" style="stroke:#000000;stroke-width:1.0;"/><path d="M708,289.5938 L721,289.5938 C789.3331,289.5938 865.6803,295.1548 926.4925,300.9232 " fill="none" style="stroke:#000000;stroke-width:1.0;stroke-dasharray:3.0,3.0;"/><path d="M926.1961,304.0095 L928.8072,301.1455 L926.7888,297.8369 L934.2082,301.6641 L926.1961,304.0095 " fill="#000000" style="stroke:#000000;stroke-width:1.0;"/><ellipse cx="708" cy="289.5938" fill="#000000" rx="3" ry="3" style="stroke:#000000;stroke-width:1.0;"/><path d="M339,298.5938 L352,298.5938 C375.2892,298.5938 399.1823,294.6489 422.2626,288.5111 " fill="none" style="stroke:#000000;stroke-width:1.0;stroke-dasharray:3.0,3.0;"/><path d="M423.0896,291.4964 L424.5015,287.8908 L421.4355,285.5258 L429.7258,286.4435 L423.0896,291.4964 " fill="#000000" style="stroke:#000000;stroke-width:1.0;"/><ellipse cx="339" cy="298.5938" fill="#000000" rx="3" ry="3" style="stroke:#000000;stroke-width:1.0;"/><path d="M1404,455.5938 L1417,455.5938 C1460.6347,455.5938 1509.0894,455.0071 1549.5686,454.3527 " fill="none" style="stroke:#000000;stroke-width:1.0;stroke-dasharray:3.0,3.0;"/><path d="M1549.6195,457.4422 L1551.8857,454.3145 L1549.5177,451.2632 L1557.2924,454.2254 L1549.6195,457.4422 " fill="#000000" style="stroke:#000000;stroke-width:1.0;"/><ellipse cx="1404" cy="455.5938" fill="#000000" rx="3" ry="3" style="stroke:#000000;stroke-width:1.0;"/><path d="M1404,475.5938 L1417,475.5938 C1441.5084,475.5938 1492.0207,492.3831 1538.6784,510.1793 " fill="none" style="stroke:#000000;stroke-width:1.0;stroke-dasharray:3.0,3.0;"/><path d="M1537.5798,513.0397 L1540.8237,511.0032 L1539.777,507.3189 L1545.8294,512.9258 L1537.5798,513.0397 " fill="#000000" style="stroke:#000000;stroke-width:1.0;"/><ellipse cx="1404" cy="475.5938" fill="#000000" rx="3" ry="3" style="stroke:#000000;stroke-width:1.0;"/><path d="M1267.5,465.5938 L1280.5,465.5938 C1318.0921,465.5938 1362.1206,465.5938 1386.1365,465.5938 " fill="none" style="stroke:#000000;stroke-width:1.0;stroke-dasharray:3.0,3.0;"/><path d="M1386.1365,468.6405 L1388.4215,465.5938 L1386.1365,462.547 L1393.7532,465.5938 L1386.1365,468.6405 " fill="#000000" style="stroke:#000000;stroke-width:1.0;"/><ellipse cx="1267.5" cy="465.5938" fill="#000000" rx="3" ry="3" style="stroke:#000000;stroke-width:1.0;"/><path d="M749,449.5938 L762,449.5938 C772.5787,449.5938 783.3822,449.5056 794.2942,449.3445 " fill="none" style="stroke:#000000;stroke-width:1.0;stroke-dasharray:3.0,3.0;"/><path d="M794.3434,452.3726 L796.5653,449.3076 L794.2449,446.3163 L801.8645,449.2215 L794.3434,452.3726 " fill="#000000" style="stroke:#000000;stroke-width:1.0;"/><ellipse cx="749" cy="449.5938" fill="#000000" rx="3" ry="3" style="stroke:#000000;stroke-width:1.0;"/><path d="M1134.5,585.5938 L1147.5,585.5938 C1201.9225,585.5938 1262.8402,585.5938 1311.6486,585.5938 " fill="none" style="stroke:#000000;stroke-width:1.0;stroke-dasharray:3.0,3.0;"/><path d="M1311.6486,588.6844 L1313.9666,585.5938 L1311.6486,582.5031 L1319.3752,585.5938 L1311.6486,588.6844 " fill="#000000" style="stroke:#000000;stroke-width:1.0;"/><ellipse cx="1134.5" cy="585.5938" fill="#000000" rx="3" ry="3" style="stroke:#000000;stroke-width:1.0;"/><path d="M749,469.5938 L762,469.5938 C779.5091,469.5938 781.4295,479.938 798,485.5938 C839.4228,499.7321 885.9247,511.9275 926.9814,521.5007 " fill="none" style="stroke:#000000;stroke-width:1.0;stroke-dasharray:3.0,3.0;"/><path d="M926.3031,524.4344 L929.1817,522.0095 L927.6598,518.5671 L934.3156,523.1966 L926.3031,524.4344 " fill="#000000" style="stroke:#000000;stroke-width:1.0;"/><ellipse cx="749" cy="469.5938" fill="#000000" rx="3" ry="3" style="stroke:#000000;stroke-width:1.0;"/><path d="M339,318.5938 L352,318.5938 C361.4554,318.5938 371.0103,319.244 380.57,320.4273 " fill="none" style="stroke:#000000;stroke-width:1.0;stroke-dasharray:3.0,3.0;"/><path d="M380.1456,323.4936 L382.8697,320.7456 L380.9944,317.3609 L388.2358,321.4883 L380.1456,323.4936 " fill="#000000" style="stroke:#000000;stroke-width:1.0;"/><ellipse cx="339" cy="318.5938" fill="#000000" rx="3" ry="3" style="stroke:#000000;stroke-width:1.0;"/><path d="M280,308.5938 L293,308.5938 C302.4213,308.5938 312.9164,308.5938 321.5483,308.5938 " fill="none" style="stroke:#000000;stroke-width:1.0;stroke-dasharray:3.0,3.0;"/><path d="M321.5483,311.6374 L323.8311,308.5938 L321.5483,305.5501 L329.1575,308.5938 L321.5483,311.6374 " fill="#000000" style="stroke:#000000;stroke-width:1.0;"/><ellipse cx="280" cy="308.5938" fill="#000000" rx="3" ry="3" style="stroke:#000000;stroke-width:1.0;"/><!--SRC=[fLPDJnin4BtlhnZb119G4YYgSYaKg0HjQ4M0IwbMpkuakFBQMzkRDghuIJtr9_37EbwooNvc5v7JnduUpnjxtlEniKpR7qP93_vuGB_ULEd8vs5l2Br-RoSt9bc4RfJB68E0A-c7w3F18vHMcGngkHKfx4AQ5FVqJqA8K066Q0BDOqk1ki2d74Le2Faj_G_BTDTpfPnp4qg7g6ckNvd9A8NSnCfmo-VA-4nQxdCPOBpUFbsZSTeTlAh3MGuE3hvR2r_4AJfAXEMnG3zuK3p0F2JMAaPjEReghDbNItcQKEKO18egcTzSC4fWGY4IJL_tzn8MRnJ1AAQa0LTrhX5GmeGY0DBT25Kk0zg92Q5- -SnQ5Zouyt6fM9rW3MZ5nA30O9dRb0bJ13_pp1zi-NYNG46f2qVFec0GAVCpuHOrAoIOFoU7ypVXIcLhZHkeA1QSqUcbSABTAq0UTpeoM9OygtWZWoKkxRDQN8b1QznNCiXpYEYK6SHqfomFgiLQaqY1_YPWYKLxvDVIMBCmN0BrbNqMj0qi2EXl1fPOj4SkiaWxeqGZz- -xLqEkDoUP39dRig896kaUQmph6bIxVfnoDaaLgZADalG-mARfcMO1-YH5N8L-o1PkwuFz0YH6oOHT-0BdACgfWREGgUPoXav2QhPmnH7A93hRtwihIlRLrdPvTnXKUwBe4OE6-Smf0gObMZzYaiU9OAaDbhsgff5Vjchb7QVfEjVFezNIfK6UR5Y-z9856b-gwdoZaTJVvFFV3tn2jY20Lj5BWGa8Ldb5XRp8K_BU3NC-emzyNtVzwwoaOWyj9j4aKyKc7p_zhKcWsDrDW8grKizY4xXDbshlQpSELwg5WbGTALmfU0cB6bsggbDPeng8Rj2hTjNgf5sT56o3ZlNVrW1RrAohfhKfMtrP7qkMu6MLVlIEKORfqztxAkXXUJlw37FgKAekzFS6-uF3lSEjCRDm4clOFu9-VtXmC1pimydr3RZfRMzhT743HYLKA_TKj9fF4dSwszubcpEuJkYv6k4Glb09Biy-PGDmBkTSA-ceUfTtepNWw73t0xSmHasPmDt8EyCfeuSWhGXKIEKPmktDnzrttcScPmcRKMoKtgcYk7f1S-F_]--></g></svg>