<?xml version="1.0" encoding="us-ascii" standalone="no"?><svg xmlns="http://www.w3.org/2000/svg" xmlns:xlink="http://www.w3.org/1999/xlink" contentStyleType="text/css" height="785px" preserveAspectRatio="none" style="width:812px;height:785px;background:#FFFFFF;" version="1.1" viewBox="0 0 812 785" width="812px" zoomAndPan="magnify"><defs/><g><!--class InspectionResponse--><g id="elem_InspectionResponse"><rect codeLine="2" fill="#F1F1F1" height="210.9688" id="InspectionResponse" rx="2.5" ry="2.5" style="stroke:#181818;stroke-width:0.5;" width="241" x="146.5" y="7"/><ellipse cx="191.75" cy="23" fill="#ADD1B2" rx="11" ry="11" style="stroke:#181818;stroke-width:1.0;"/><path d="M194.7188,28.6406 Q194.1406,28.9375 193.5,29.0781 Q192.8594,29.2344 192.1563,29.2344 Q189.6563,29.2344 188.3281,27.5938 Q187.0156,25.9375 187.0156,22.8125 Q187.0156,19.6875 188.3281,18.0313 Q189.6563,16.375 192.1563,16.375 Q192.8594,16.375 193.5,16.5313 Q194.1563,16.6875 194.7188,16.9844 L194.7188,19.7031 Q194.0938,19.125 193.5,18.8594 Q192.9063,18.5781 192.2813,18.5781 Q190.9375,18.5781 190.25,19.6563 Q189.5625,20.7188 189.5625,22.8125 Q189.5625,24.9063 190.25,25.9844 Q190.9375,27.0469 192.2813,27.0469 Q192.9063,27.0469 193.5,26.7813 Q194.0938,26.5 194.7188,25.9219 L194.7188,28.6406 Z " fill="#000000"/><text fill="#000000" font-family="sans-serif" font-size="14" lengthAdjust="spacing" textLength="142" x="212.25" y="27.8467">InspectionResponse</text><line style="stroke:#181818;stroke-width:0.5;" x1="147.5" x2="386.5" y1="39" y2="39"/><rect fill="none" height="6" style="stroke:#C82930;stroke-width:1.0;" width="6" x="154.5" y="49.6484"/><text fill="#000000" font-family="sans-serif" font-size="14" lengthAdjust="spacing" textLength="57" x="166.5" y="55.9951">string id</text><rect fill="none" height="6" style="stroke:#C82930;stroke-width:1.0;" width="6" x="154.5" y="65.9453"/><text fill="#000000" font-family="sans-serif" font-size="14" lengthAdjust="spacing" textLength="166" x="166.5" y="72.292">DateTime submitted_at</text><rect fill="none" height="6" style="stroke:#C82930;stroke-width:1.0;" width="6" x="154.5" y="82.2422"/><text fill="#000000" font-family="sans-serif" font-size="14" lengthAdjust="spacing" textLength="136" x="166.5" y="88.5889">Inspector inspector</text><rect fill="none" height="6" style="stroke:#C82930;stroke-width:1.0;" width="6" x="154.5" y="98.5391"/><text fill="#000000" font-family="sans-serif" font-size="14" lengthAdjust="spacing" textLength="78" x="166.5" y="104.8857">Store store</text><rect fill="none" height="6" style="stroke:#C82930;stroke-width:1.0;" width="6" x="154.5" y="114.8359"/><text fill="#000000" font-family="sans-serif" font-size="14" lengthAdjust="spacing" textLength="176" x="166.5" y="121.1826">ControlAnswer[] answers</text><line style="stroke:#181818;stroke-width:0.5;" x1="147.5" x2="386.5" y1="128.4844" y2="128.4844"/><ellipse cx="157.5" cy="142.1328" fill="#84BE84" rx="3" ry="3" style="stroke:#038048;stroke-width:1.0;"/><text fill="#000000" font-family="sans-serif" font-size="14" lengthAdjust="spacing" textLength="95" x="166.5" y="145.4795">getId(): string</text><ellipse cx="157.5" cy="158.4297" fill="#84BE84" rx="3" ry="3" style="stroke:#038048;stroke-width:1.0;"/><text fill="#000000" font-family="sans-serif" font-size="14" lengthAdjust="spacing" textLength="200" x="166.5" y="161.7764">getSubmittedAt(): DateTime</text><ellipse cx="157.5" cy="174.7266" fill="#84BE84" rx="3" ry="3" style="stroke:#038048;stroke-width:1.0;"/><text fill="#000000" font-family="sans-serif" font-size="14" lengthAdjust="spacing" textLength="174" x="166.5" y="178.0732">getInspector(): Inspector</text><ellipse cx="157.5" cy="191.0234" fill="#84BE84" rx="3" ry="3" style="stroke:#038048;stroke-width:1.0;"/><text fill="#000000" font-family="sans-serif" font-size="14" lengthAdjust="spacing" textLength="118" x="166.5" y="194.3701">getStore(): Store</text><ellipse cx="157.5" cy="207.3203" fill="#84BE84" rx="3" ry="3" style="stroke:#038048;stroke-width:1.0;"/><text fill="#000000" font-family="sans-serif" font-size="14" lengthAdjust="spacing" textLength="215" x="166.5" y="210.667">getAnswers(): ControlAnswer[]</text></g><!--class Inspector--><g id="elem_Inspector"><rect codeLine="15" fill="#F1F1F1" height="113.1875" id="Inspector" rx="2.5" ry="2.5" style="stroke:#181818;stroke-width:0.5;" width="150" x="7" y="344.5"/><ellipse cx="45.4" cy="360.5" fill="#ADD1B2" rx="11" ry="11" style="stroke:#181818;stroke-width:1.0;"/><path d="M48.3688,366.1406 Q47.7906,366.4375 47.15,366.5781 Q46.5094,366.7344 45.8063,366.7344 Q43.3063,366.7344 41.9781,365.0938 Q40.6656,363.4375 40.6656,360.3125 Q40.6656,357.1875 41.9781,355.5313 Q43.3063,353.875 45.8063,353.875 Q46.5094,353.875 47.15,354.0313 Q47.8063,354.1875 48.3688,354.4844 L48.3688,357.2031 Q47.7438,356.625 47.15,356.3594 Q46.5563,356.0781 45.9313,356.0781 Q44.5875,356.0781 43.9,357.1563 Q43.2125,358.2188 43.2125,360.3125 Q43.2125,362.4063 43.9,363.4844 Q44.5875,364.5469 45.9313,364.5469 Q46.5563,364.5469 47.15,364.2813 Q47.7438,364 48.3688,363.4219 L48.3688,366.1406 Z " fill="#000000"/><text fill="#000000" font-family="sans-serif" font-size="14" lengthAdjust="spacing" textLength="66" x="64.6" y="365.3467">Inspector</text><line style="stroke:#181818;stroke-width:0.5;" x1="8" x2="156" y1="376.5" y2="376.5"/><rect fill="none" height="6" style="stroke:#C82930;stroke-width:1.0;" width="6" x="15" y="387.1484"/><text fill="#000000" font-family="sans-serif" font-size="14" lengthAdjust="spacing" textLength="57" x="27" y="393.4951">string id</text><rect fill="none" height="6" style="stroke:#C82930;stroke-width:1.0;" width="6" x="15" y="403.4453"/><text fill="#000000" font-family="sans-serif" font-size="14" lengthAdjust="spacing" textLength="85" x="27" y="409.792">string name</text><line style="stroke:#181818;stroke-width:0.5;" x1="8" x2="156" y1="417.0938" y2="417.0938"/><ellipse cx="18" cy="430.7422" fill="#84BE84" rx="3" ry="3" style="stroke:#038048;stroke-width:1.0;"/><text fill="#000000" font-family="sans-serif" font-size="14" lengthAdjust="spacing" textLength="95" x="27" y="434.0889">getId(): string</text><ellipse cx="18" cy="447.0391" fill="#84BE84" rx="3" ry="3" style="stroke:#038048;stroke-width:1.0;"/><text fill="#000000" font-family="sans-serif" font-size="14" lengthAdjust="spacing" textLength="124" x="27" y="450.3857">getName(): string</text></g><!--class Store--><g id="elem_Store"><rect codeLine="22" fill="#F1F1F1" height="113.1875" id="Store" rx="2.5" ry="2.5" style="stroke:#181818;stroke-width:0.5;" width="150" x="192" y="344.5"/><ellipse cx="243.75" cy="360.5" fill="#ADD1B2" rx="11" ry="11" style="stroke:#181818;stroke-width:1.0;"/><path d="M246.7188,366.1406 Q246.1406,366.4375 245.5,366.5781 Q244.8594,366.7344 244.1563,366.7344 Q241.6563,366.7344 240.3281,365.0938 Q239.0156,363.4375 239.0156,360.3125 Q239.0156,357.1875 240.3281,355.5313 Q241.6563,353.875 244.1563,353.875 Q244.8594,353.875 245.5,354.0313 Q246.1563,354.1875 246.7188,354.4844 L246.7188,357.2031 Q246.0938,356.625 245.5,356.3594 Q244.9063,356.0781 244.2813,356.0781 Q242.9375,356.0781 242.25,357.1563 Q241.5625,358.2188 241.5625,360.3125 Q241.5625,362.4063 242.25,363.4844 Q242.9375,364.5469 244.2813,364.5469 Q244.9063,364.5469 245.5,364.2813 Q246.0938,364 246.7188,363.4219 L246.7188,366.1406 Z " fill="#000000"/><text fill="#000000" font-family="sans-serif" font-size="14" lengthAdjust="spacing" textLength="38" x="264.25" y="365.3467">Store</text><line style="stroke:#181818;stroke-width:0.5;" x1="193" x2="341" y1="376.5" y2="376.5"/><rect fill="none" height="6" style="stroke:#C82930;stroke-width:1.0;" width="6" x="200" y="387.1484"/><text fill="#000000" font-family="sans-serif" font-size="14" lengthAdjust="spacing" textLength="57" x="212" y="393.4951">string id</text><rect fill="none" height="6" style="stroke:#C82930;stroke-width:1.0;" width="6" x="200" y="403.4453"/><text fill="#000000" font-family="sans-serif" font-size="14" lengthAdjust="spacing" textLength="85" x="212" y="409.792">string name</text><line style="stroke:#181818;stroke-width:0.5;" x1="193" x2="341" y1="417.0938" y2="417.0938"/><ellipse cx="203" cy="430.7422" fill="#84BE84" rx="3" ry="3" style="stroke:#038048;stroke-width:1.0;"/><text fill="#000000" font-family="sans-serif" font-size="14" lengthAdjust="spacing" textLength="95" x="212" y="434.0889">getId(): string</text><ellipse cx="203" cy="447.0391" fill="#84BE84" rx="3" ry="3" style="stroke:#038048;stroke-width:1.0;"/><text fill="#000000" font-family="sans-serif" font-size="14" lengthAdjust="spacing" textLength="124" x="212" y="450.3857">getName(): string</text></g><!--class ControlAnswer--><g id="elem_ControlAnswer"><rect codeLine="29" fill="#F1F1F1" height="243.5625" id="ControlAnswer" rx="2.5" ry="2.5" style="stroke:#181818;stroke-width:0.5;" width="303" x="377.5" y="279"/><ellipse cx="472.75" cy="295" fill="#ADD1B2" rx="11" ry="11" style="stroke:#181818;stroke-width:1.0;"/><path d="M475.7188,300.6406 Q475.1406,300.9375 474.5,301.0781 Q473.8594,301.2344 473.1563,301.2344 Q470.6563,301.2344 469.3281,299.5938 Q468.0156,297.9375 468.0156,294.8125 Q468.0156,291.6875 469.3281,290.0313 Q470.6563,288.375 473.1563,288.375 Q473.8594,288.375 474.5,288.5313 Q475.1563,288.6875 475.7188,288.9844 L475.7188,291.7031 Q475.0938,291.125 474.5,290.8594 Q473.9063,290.5781 473.2813,290.5781 Q471.9375,290.5781 471.25,291.6563 Q470.5625,292.7188 470.5625,294.8125 Q470.5625,296.9063 471.25,297.9844 Q471.9375,299.0469 473.2813,299.0469 Q473.9063,299.0469 474.5,298.7813 Q475.0938,298.5 475.7188,297.9219 L475.7188,300.6406 Z " fill="#000000"/><text fill="#000000" font-family="sans-serif" font-size="14" lengthAdjust="spacing" textLength="104" x="493.25" y="299.8467">ControlAnswer</text><line style="stroke:#181818;stroke-width:0.5;" x1="378.5" x2="679.5" y1="311" y2="311"/><rect fill="none" height="6" style="stroke:#C82930;stroke-width:1.0;" width="6" x="385.5" y="321.6484"/><text fill="#000000" font-family="sans-serif" font-size="14" lengthAdjust="spacing" textLength="121" x="397.5" y="327.9951">AnswerField field</text><rect fill="none" height="6" style="stroke:#C82930;stroke-width:1.0;" width="6" x="385.5" y="337.9453"/><text fill="#000000" font-family="sans-serif" font-size="14" lengthAdjust="spacing" textLength="75" x="397.5" y="344.292">string type</text><rect fill="none" height="6" style="stroke:#C82930;stroke-width:1.0;" width="6" x="385.5" y="354.2422"/><text fill="#000000" font-family="sans-serif" font-size="14" lengthAdjust="spacing" textLength="169" x="397.5" y="360.5889">AnswerChoice[] choices</text><rect fill="none" height="6" style="stroke:#C82930;stroke-width:1.0;" width="6" x="385.5" y="370.5391"/><text fill="#000000" font-family="sans-serif" font-size="14" lengthAdjust="spacing" textLength="152" x="397.5" y="376.8857">AnswerChoice choice</text><rect fill="none" height="6" style="stroke:#C82930;stroke-width:1.0;" width="6" x="385.5" y="386.8359"/><text fill="#000000" font-family="sans-serif" font-size="14" lengthAdjust="spacing" textLength="93" x="397.5" y="393.1826">bool boolean</text><rect fill="none" height="6" style="stroke:#C82930;stroke-width:1.0;" width="6" x="385.5" y="403.1328"/><text fill="#000000" font-family="sans-serif" font-size="14" lengthAdjust="spacing" textLength="238" x="397.5" y="409.4795">AnswerAttachment[] attachments</text><line style="stroke:#181818;stroke-width:0.5;" x1="378.5" x2="679.5" y1="416.7813" y2="416.7813"/><ellipse cx="388.5" cy="430.4297" fill="#84BE84" rx="3" ry="3" style="stroke:#038048;stroke-width:1.0;"/><text fill="#000000" font-family="sans-serif" font-size="14" lengthAdjust="spacing" textLength="162" x="397.5" y="433.7764">getField(): AnswerField</text><ellipse cx="388.5" cy="446.7266" fill="#84BE84" rx="3" ry="3" style="stroke:#038048;stroke-width:1.0;"/><text fill="#000000" font-family="sans-serif" font-size="14" lengthAdjust="spacing" textLength="117" x="397.5" y="450.0732">getType(): string</text><ellipse cx="388.5" cy="463.0234" fill="#84BE84" rx="3" ry="3" style="stroke:#038048;stroke-width:1.0;"/><text fill="#000000" font-family="sans-serif" font-size="14" lengthAdjust="spacing" textLength="209" x="397.5" y="466.3701">getChoices(): AnswerChoice[]</text><ellipse cx="388.5" cy="479.3203" fill="#84BE84" rx="3" ry="3" style="stroke:#038048;stroke-width:1.0;"/><text fill="#000000" font-family="sans-serif" font-size="14" lengthAdjust="spacing" textLength="192" x="397.5" y="482.667">getChoice(): AnswerChoice</text><ellipse cx="388.5" cy="495.6172" fill="#84BE84" rx="3" ry="3" style="stroke:#038048;stroke-width:1.0;"/><text fill="#000000" font-family="sans-serif" font-size="14" lengthAdjust="spacing" textLength="132" x="397.5" y="498.9639">getBoolean(): bool</text><ellipse cx="388.5" cy="511.9141" fill="#84BE84" rx="3" ry="3" style="stroke:#038048;stroke-width:1.0;"/><text fill="#000000" font-family="sans-serif" font-size="14" lengthAdjust="spacing" textLength="277" x="397.5" y="515.2607">getAttachments(): AnswerAttachment[]</text></g><!--class AnswerField--><g id="elem_AnswerField"><rect codeLine="44" fill="#F1F1F1" height="178.375" id="AnswerField" rx="2.5" ry="2.5" style="stroke:#181818;stroke-width:0.5;" width="143" x="278.5" y="600"/><ellipse cx="304.75" cy="616" fill="#ADD1B2" rx="11" ry="11" style="stroke:#181818;stroke-width:1.0;"/><path d="M307.7188,621.6406 Q307.1406,621.9375 306.5,622.0781 Q305.8594,622.2344 305.1563,622.2344 Q302.6563,622.2344 301.3281,620.5938 Q300.0156,618.9375 300.0156,615.8125 Q300.0156,612.6875 301.3281,611.0313 Q302.6563,609.375 305.1563,609.375 Q305.8594,609.375 306.5,609.5313 Q307.1563,609.6875 307.7188,609.9844 L307.7188,612.7031 Q307.0938,612.125 306.5,611.8594 Q305.9063,611.5781 305.2813,611.5781 Q303.9375,611.5781 303.25,612.6563 Q302.5625,613.7188 302.5625,615.8125 Q302.5625,617.9063 303.25,618.9844 Q303.9375,620.0469 305.2813,620.0469 Q305.9063,620.0469 306.5,619.7813 Q307.0938,619.5 307.7188,618.9219 L307.7188,621.6406 Z " fill="#000000"/><text fill="#000000" font-family="sans-serif" font-size="14" lengthAdjust="spacing" textLength="86" x="321.25" y="620.8467">AnswerField</text><line style="stroke:#181818;stroke-width:0.5;" x1="279.5" x2="420.5" y1="632" y2="632"/><rect fill="none" height="6" style="stroke:#C82930;stroke-width:1.0;" width="6" x="286.5" y="642.6484"/><text fill="#000000" font-family="sans-serif" font-size="14" lengthAdjust="spacing" textLength="49" x="298.5" y="648.9951">int sort</text><rect fill="none" height="6" style="stroke:#C82930;stroke-width:1.0;" width="6" x="286.5" y="658.9453"/><text fill="#000000" font-family="sans-serif" font-size="14" lengthAdjust="spacing" textLength="57" x="298.5" y="665.292">string id</text><rect fill="none" height="6" style="stroke:#C82930;stroke-width:1.0;" width="6" x="286.5" y="675.2422"/><text fill="#000000" font-family="sans-serif" font-size="14" lengthAdjust="spacing" textLength="64" x="298.5" y="681.5889">string ref</text><rect fill="none" height="6" style="stroke:#C82930;stroke-width:1.0;" width="6" x="286.5" y="691.5391"/><text fill="#000000" font-family="sans-serif" font-size="14" lengthAdjust="spacing" textLength="75" x="298.5" y="697.8857">string type</text><line style="stroke:#181818;stroke-width:0.5;" x1="279.5" x2="420.5" y1="705.1875" y2="705.1875"/><ellipse cx="289.5" cy="718.8359" fill="#84BE84" rx="3" ry="3" style="stroke:#038048;stroke-width:1.0;"/><text fill="#000000" font-family="sans-serif" font-size="14" lengthAdjust="spacing" textLength="89" x="298.5" y="722.1826">getSort(): int</text><ellipse cx="289.5" cy="735.1328" fill="#84BE84" rx="3" ry="3" style="stroke:#038048;stroke-width:1.0;"/><text fill="#000000" font-family="sans-serif" font-size="14" lengthAdjust="spacing" textLength="95" x="298.5" y="738.4795">getId(): string</text><ellipse cx="289.5" cy="751.4297" fill="#84BE84" rx="3" ry="3" style="stroke:#038048;stroke-width:1.0;"/><text fill="#000000" font-family="sans-serif" font-size="14" lengthAdjust="spacing" textLength="106" x="298.5" y="754.7764">getRef(): string</text><ellipse cx="289.5" cy="767.7266" fill="#84BE84" rx="3" ry="3" style="stroke:#038048;stroke-width:1.0;"/><text fill="#000000" font-family="sans-serif" font-size="14" lengthAdjust="spacing" textLength="117" x="298.5" y="771.0732">getType(): string</text></g><!--class AnswerChoice--><g id="elem_AnswerChoice"><rect codeLine="55" fill="#F1F1F1" height="113.1875" id="AnswerChoice" rx="2.5" ry="2.5" style="stroke:#181818;stroke-width:0.5;" width="147" x="456.5" y="632.5"/><ellipse cx="477.8" cy="648.5" fill="#ADD1B2" rx="11" ry="11" style="stroke:#181818;stroke-width:1.0;"/><path d="M480.7688,654.1406 Q480.1906,654.4375 479.55,654.5781 Q478.9094,654.7344 478.2063,654.7344 Q475.7063,654.7344 474.3781,653.0938 Q473.0656,651.4375 473.0656,648.3125 Q473.0656,645.1875 474.3781,643.5313 Q475.7063,641.875 478.2063,641.875 Q478.9094,641.875 479.55,642.0313 Q480.2063,642.1875 480.7688,642.4844 L480.7688,645.2031 Q480.1438,644.625 479.55,644.3594 Q478.9563,644.0781 478.3313,644.0781 Q476.9875,644.0781 476.3,645.1563 Q475.6125,646.2188 475.6125,648.3125 Q475.6125,650.4063 476.3,651.4844 Q476.9875,652.5469 478.3313,652.5469 Q478.9563,652.5469 479.55,652.2813 Q480.1438,652 480.7688,651.4219 L480.7688,654.1406 Z " fill="#000000"/><text fill="#000000" font-family="sans-serif" font-size="14" lengthAdjust="spacing" textLength="101" x="493.2" y="653.3467">AnswerChoice</text><line style="stroke:#181818;stroke-width:0.5;" x1="457.5" x2="602.5" y1="664.5" y2="664.5"/><rect fill="none" height="6" style="stroke:#C82930;stroke-width:1.0;" width="6" x="464.5" y="675.1484"/><text fill="#000000" font-family="sans-serif" font-size="14" lengthAdjust="spacing" textLength="79" x="476.5" y="681.4951">string label</text><rect fill="none" height="6" style="stroke:#C82930;stroke-width:1.0;" width="6" x="464.5" y="691.4453"/><text fill="#000000" font-family="sans-serif" font-size="14" lengthAdjust="spacing" textLength="64" x="476.5" y="697.792">string ref</text><line style="stroke:#181818;stroke-width:0.5;" x1="457.5" x2="602.5" y1="705.0938" y2="705.0938"/><ellipse cx="467.5" cy="718.7422" fill="#84BE84" rx="3" ry="3" style="stroke:#038048;stroke-width:1.0;"/><text fill="#000000" font-family="sans-serif" font-size="14" lengthAdjust="spacing" textLength="121" x="476.5" y="722.0889">getLabel(): string</text><ellipse cx="467.5" cy="735.0391" fill="#84BE84" rx="3" ry="3" style="stroke:#038048;stroke-width:1.0;"/><text fill="#000000" font-family="sans-serif" font-size="14" lengthAdjust="spacing" textLength="106" x="476.5" y="738.3857">getRef(): string</text></g><!--class AnswerAttachment--><g id="elem_AnswerAttachment"><rect codeLine="62" fill="#F1F1F1" height="178.375" id="AnswerAttachment" rx="2.5" ry="2.5" style="stroke:#181818;stroke-width:0.5;" width="167" x="638.5" y="600"/><ellipse cx="653.5" cy="616" fill="#ADD1B2" rx="11" ry="11" style="stroke:#181818;stroke-width:1.0;"/><path d="M656.4688,621.6406 Q655.8906,621.9375 655.25,622.0781 Q654.6094,622.2344 653.9063,622.2344 Q651.4063,622.2344 650.0781,620.5938 Q648.7656,618.9375 648.7656,615.8125 Q648.7656,612.6875 650.0781,611.0313 Q651.4063,609.375 653.9063,609.375 Q654.6094,609.375 655.25,609.5313 Q655.9063,609.6875 656.4688,609.9844 L656.4688,612.7031 Q655.8438,612.125 655.25,611.8594 Q654.6563,611.5781 654.0313,611.5781 Q652.6875,611.5781 652,612.6563 Q651.3125,613.7188 651.3125,615.8125 Q651.3125,617.9063 652,618.9844 Q652.6875,620.0469 654.0313,620.0469 Q654.6563,620.0469 655.25,619.7813 Q655.8438,619.5 656.4688,618.9219 L656.4688,621.6406 Z " fill="#000000"/><text fill="#000000" font-family="sans-serif" font-size="14" lengthAdjust="spacing" textLength="135" x="667.5" y="620.8467">AnswerAttachment</text><line style="stroke:#181818;stroke-width:0.5;" x1="639.5" x2="804.5" y1="632" y2="632"/><rect fill="none" height="6" style="stroke:#C82930;stroke-width:1.0;" width="6" x="646.5" y="642.6484"/><text fill="#000000" font-family="sans-serif" font-size="14" lengthAdjust="spacing" textLength="63" x="658.5" y="648.9951">string url</text><rect fill="none" height="6" style="stroke:#C82930;stroke-width:1.0;" width="6" x="646.5" y="658.9453"/><text fill="#000000" font-family="sans-serif" font-size="14" lengthAdjust="spacing" textLength="75" x="658.5" y="665.292">string type</text><rect fill="none" height="6" style="stroke:#C82930;stroke-width:1.0;" width="6" x="646.5" y="675.2422"/><text fill="#000000" font-family="sans-serif" font-size="14" lengthAdjust="spacing" textLength="85" x="658.5" y="681.5889">string name</text><rect fill="none" height="6" style="stroke:#C82930;stroke-width:1.0;" width="6" x="646.5" y="691.5391"/><text fill="#000000" font-family="sans-serif" font-size="14" lengthAdjust="spacing" textLength="49" x="658.5" y="697.8857">int size</text><line style="stroke:#181818;stroke-width:0.5;" x1="639.5" x2="804.5" y1="705.1875" y2="705.1875"/><ellipse cx="649.5" cy="718.8359" fill="#84BE84" rx="3" ry="3" style="stroke:#038048;stroke-width:1.0;"/><text fill="#000000" font-family="sans-serif" font-size="14" lengthAdjust="spacing" textLength="102" x="658.5" y="722.1826">getUrl(): string</text><ellipse cx="649.5" cy="735.1328" fill="#84BE84" rx="3" ry="3" style="stroke:#038048;stroke-width:1.0;"/><text fill="#000000" font-family="sans-serif" font-size="14" lengthAdjust="spacing" textLength="117" x="658.5" y="738.4795">getType(): string</text><ellipse cx="649.5" cy="751.4297" fill="#84BE84" rx="3" ry="3" style="stroke:#038048;stroke-width:1.0;"/><text fill="#000000" font-family="sans-serif" font-size="14" lengthAdjust="spacing" textLength="124" x="658.5" y="754.7764">getName(): string</text><ellipse cx="649.5" cy="767.7266" fill="#84BE84" rx="3" ry="3" style="stroke:#038048;stroke-width:1.0;"/><text fill="#000000" font-family="sans-serif" font-size="14" lengthAdjust="spacing" textLength="89" x="658.5" y="771.0732">getSize(): int</text></g><!--link InspectionResponse to Inspector--><g id="link_InspectionResponse_Inspector"><path codeLine="73" d="M199.43,218.15 C171.87,260.83 144.3751,303.4097 121.2551,339.2097 " fill="none" id="InspectionResponse-to-Inspector" style="stroke:#181818;stroke-width:1.0;"/><polygon fill="#181818" points="118,344.25,126.2428,338.8596,120.7126,340.0498,119.5224,334.5195,118,344.25" style="stroke:#181818;stroke-width:1.0;"/><text fill="#000000" font-family="sans-serif" font-size="13" lengthAdjust="spacing" textLength="8" x="186.3977" y="238.1785">1</text><text fill="#000000" font-family="sans-serif" font-size="13" lengthAdjust="spacing" textLength="8" x="113.9" y="333.4831">1</text></g><!--link InspectionResponse to Store--><g id="link_InspectionResponse_Store"><path codeLine="74" d="M267,218.15 C267,260.83 267,302.45 267,338.25 " fill="none" id="InspectionResponse-to-Store" style="stroke:#181818;stroke-width:1.0;"/><polygon fill="#181818" points="267,344.25,271,335.25,267,339.25,263,335.25,267,344.25" style="stroke:#181818;stroke-width:1.0;"/><text fill="#000000" font-family="sans-serif" font-size="13" lengthAdjust="spacing" textLength="8" x="258.7188" y="238.1785">1</text><text fill="#000000" font-family="sans-serif" font-size="13" lengthAdjust="spacing" textLength="8" x="258.5125" y="333.4831">1</text></g><!--link InspectionResponse to ControlAnswer--><g id="link_InspectionResponse_ControlAnswer"><path codeLine="75" d="M362.7,218.15 C380.68,237.81 395.5708,254.0923 413.9708,274.2123 " fill="none" id="InspectionResponse-to-ControlAnswer" style="stroke:#181818;stroke-width:1.0;"/><polygon fill="#181818" points="418.02,278.64,414.898,269.2991,414.6457,274.9503,408.9945,274.6979,418.02,278.64" style="stroke:#181818;stroke-width:1.0;"/><text fill="#000000" font-family="sans-serif" font-size="13" lengthAdjust="spacing" textLength="8" x="361.1477" y="238.1785">1</text><text fill="#000000" font-family="sans-serif" font-size="13" lengthAdjust="spacing" textLength="7" x="404.0439" y="267.8109">*</text></g><!--link ControlAnswer to AnswerField--><g id="link_ControlAnswer_AnswerField"><path codeLine="76" d="M453.09,523.29 C436.98,549.02 423.4628,570.6238 408.3128,594.8338 " fill="none" id="ControlAnswer-to-AnswerField" style="stroke:#181818;stroke-width:1.0;"/><polygon fill="#181818" points="405.13,599.92,413.2951,594.4126,407.7824,595.6815,406.5134,590.1688,405.13,599.92" style="stroke:#181818;stroke-width:1.0;"/><text fill="#000000" font-family="sans-serif" font-size="13" lengthAdjust="spacing" textLength="8" x="440.7199" y="542.4704">1</text><text fill="#000000" font-family="sans-serif" font-size="13" lengthAdjust="spacing" textLength="8" x="401.3642" y="588.9788">1</text></g><!--link ControlAnswer to AnswerChoice--><g id="link_ControlAnswer_AnswerChoice"><path codeLine="77" d="M480.2,523.01 C478.06,538.72 477.95,554.68 481,570 C485.21,591.1 490.8662,607.6482 499.2462,626.9082 " fill="none" id="ControlAnswer-to-AnswerChoice" style="stroke:#181818;stroke-width:1.0;"/><polygon fill="#181818" points="501.64,632.41,501.7171,622.5614,499.6452,627.8252,494.3814,625.7532,501.64,632.41" style="stroke:#181818;stroke-width:1.0;"/><text fill="#000000" font-family="sans-serif" font-size="13" lengthAdjust="spacing" textLength="49" x="482" y="566.0669">choices</text><text fill="#000000" font-family="sans-serif" font-size="13" lengthAdjust="spacing" textLength="23" x="453.7139" y="542.5807">0..*</text><text fill="#000000" font-family="sans-serif" font-size="13" lengthAdjust="spacing" textLength="8" x="489.4939" y="621.2619">1</text></g><!--link ControlAnswer to AnswerChoice--><g id="link_ControlAnswer_AnswerChoice"><path codeLine="78" d="M535.99,523.11 C536.33,538.88 536.39,554.83 536,570 C535.48,590.4 534.7819,606.7786 533.7219,626.5086 " fill="none" id="ControlAnswer-to-AnswerChoice-1" style="stroke:#181818;stroke-width:1.0;"/><polygon fill="#181818" points="533.4,632.5,537.8771,623.7276,533.6682,627.5072,529.8886,623.2984,533.4,632.5" style="stroke:#181818;stroke-width:1.0;"/><text fill="#000000" font-family="sans-serif" font-size="13" lengthAdjust="spacing" textLength="42" x="538" y="566.0669">choice</text><text fill="#000000" font-family="sans-serif" font-size="13" lengthAdjust="spacing" textLength="24" x="511.7004" y="542.6865">0..1</text><text fill="#000000" font-family="sans-serif" font-size="13" lengthAdjust="spacing" textLength="8" x="525.3231" y="621.3634">1</text></g><!--link ControlAnswer to AnswerAttachment--><g id="link_ControlAnswer_AnswerAttachment"><path codeLine="79" d="M610.85,523.29 C628.21,549.02 642.8634,570.7367 659.2034,594.9467 " fill="none" id="ControlAnswer-to-AnswerAttachment" style="stroke:#181818;stroke-width:1.0;"/><polygon fill="#181818" points="662.56,599.92,660.8406,590.2224,659.7628,595.7756,654.2096,594.6978,662.56,599.92" style="stroke:#181818;stroke-width:1.0;"/><text fill="#000000" font-family="sans-serif" font-size="13" lengthAdjust="spacing" textLength="82" x="638" y="566.0669">attachments</text><text fill="#000000" font-family="sans-serif" font-size="13" lengthAdjust="spacing" textLength="23" x="591.6973" y="542.4704">0..*</text><text fill="#000000" font-family="sans-serif" font-size="13" lengthAdjust="spacing" textLength="8" x="649.3064" y="588.9788">1</text></g><!--SRC=[jLHDJm8n4BtlhsWu-H68N3cO8CQ4n7W0F1bZoku0JKfBsY56ZV_TVkwskojuyRBRpfkPzpepRScfrcGkz05AP58iG1-aq42-2aA6HADYOajOvNRt5675za3qSRrdY52zKNH8I20LON7bx4kpCExsw_OpAL19FXNw7TJBAw5keGrsJRQ0y-hYSX98esqPkQPemQYX3eby5fmdv3xOCbja6IGugwVNrjuIL7mNHPcMn9oehn9X9sWYf4Vxay4JQvtSb-KV4cV72GH-yy20LsHZloaHVXmWyPhj92l1DAPq2zs10k3iQocv-m0LYUCKaPQxFGYq3QutTPET4Yi-4HQnbP7JFQsdrarCb9axjF68tdc95hPgwobef3MHgVYch6a9VL6PGAAbmjzRg63JKsW_bIRGKfeafvgyW4tNsAfGIs9eKZPPdAw1TvMvR8yMEyVSucXAbFCS5U-Th7oaG-dOPrsDPyNF7hD_x6CvJR9OJgErvp4RZ0TaEBnr_-QDEEFedunJJbU3_C8L-VLBawMptlAw6OsksewXZvFw7dPZncTY_aAJj7AINTKV]--></g></svg>