<?xml version="1.0" encoding="us-ascii" standalone="no"?><svg xmlns="http://www.w3.org/2000/svg" xmlns:xlink="http://www.w3.org/1999/xlink" contentStyleType="text/css" height="923px" preserveAspectRatio="none" style="width:1577px;height:923px;background:#FFFFFF;" version="1.1" viewBox="0 0 1577 923" width="1577px" zoomAndPan="magnify"><defs/><g><rect fill="#F1F1F1" height="101.4844" rx="5" ry="5" style="stroke:#F1F1F1;stroke-width:1.5;" width="400" x="10" y="106.8516"/><text fill="#000000" font-family="sans-serif" font-size="14" font-weight="bold" lengthAdjust="spacing" textLength="15" x="15" y="121.8467">id</text><text fill="#000000" font-family="sans-serif" font-size="14" lengthAdjust="spacing" textLength="275" x="130" y="121.8467">21085286190ffad1248d17c4135ee56f</text><line style="stroke:#000000;stroke-width:1.0;" x1="125" x2="125" y1="106.8516" y2="127.1484"/><line style="stroke:#000000;stroke-width:1.0;" x1="10" x2="410" y1="127.1484" y2="127.1484"/><text fill="#000000" font-family="sans-serif" font-size="14" font-weight="bold" lengthAdjust="spacing" textLength="105" x="15" y="142.1436">submitted_at</text><text fill="#000000" font-family="sans-serif" font-size="14" lengthAdjust="spacing" textLength="165" x="130" y="142.1436">2023-07-29T22:38:22Z</text><line style="stroke:#000000;stroke-width:1.0;" x1="125" x2="125" y1="127.1484" y2="147.4453"/><line style="stroke:#000000;stroke-width:1.0;" x1="10" x2="410" y1="147.4453" y2="147.4453"/><text fill="#000000" font-family="sans-serif" font-size="14" font-weight="bold" lengthAdjust="spacing" textLength="75" x="15" y="162.4404">inspector</text><text fill="#000000" font-family="sans-serif" font-size="14" lengthAdjust="spacing" textLength="12" x="130" y="162.4404">&#160;&#160;&#160;</text><line style="stroke:#000000;stroke-width:1.0;" x1="125" x2="125" y1="147.4453" y2="167.7422"/><line style="stroke:#000000;stroke-width:1.0;" x1="10" x2="410" y1="167.7422" y2="167.7422"/><text fill="#000000" font-family="sans-serif" font-size="14" font-weight="bold" lengthAdjust="spacing" textLength="42" x="15" y="182.7373">store</text><text fill="#000000" font-family="sans-serif" font-size="14" lengthAdjust="spacing" textLength="12" x="130" y="182.7373">&#160;&#160;&#160;</text><line style="stroke:#000000;stroke-width:1.0;" x1="125" x2="125" y1="167.7422" y2="188.0391"/><line style="stroke:#000000;stroke-width:1.0;" x1="10" x2="410" y1="188.0391" y2="188.0391"/><text fill="#000000" font-family="sans-serif" font-size="14" font-weight="bold" lengthAdjust="spacing" textLength="65" x="15" y="203.0342">answers</text><text fill="#000000" font-family="sans-serif" font-size="14" lengthAdjust="spacing" textLength="12" x="130" y="203.0342">&#160;&#160;&#160;</text><line style="stroke:#000000;stroke-width:1.0;" x1="125" x2="125" y1="188.0391" y2="208.3359"/><rect fill="none" height="101.4844" rx="5" ry="5" style="stroke:#000000;stroke-width:1.5;" width="400" x="10" y="106.8516"/><rect fill="#F1F1F1" height="40.5938" rx="5" ry="5" style="stroke:#F1F1F1;stroke-width:1.5;" width="154" x="447" y="98.0938"/><text fill="#000000" font-family="sans-serif" font-size="14" font-weight="bold" lengthAdjust="spacing" textLength="15" x="452" y="113.0889">id</text><text fill="#000000" font-family="sans-serif" font-size="14" lengthAdjust="spacing" textLength="90" x="506" y="113.0889">1234567890</text><line style="stroke:#000000;stroke-width:1.0;" x1="501" x2="501" y1="98.0938" y2="118.3906"/><line style="stroke:#000000;stroke-width:1.0;" x1="447" x2="601" y1="118.3906" y2="118.3906"/><text fill="#000000" font-family="sans-serif" font-size="14" font-weight="bold" lengthAdjust="spacing" textLength="44" x="452" y="133.3857">name</text><text fill="#000000" font-family="sans-serif" font-size="14" lengthAdjust="spacing" textLength="64" x="506" y="133.3857">John Doe</text><line style="stroke:#000000;stroke-width:1.0;" x1="501" x2="501" y1="118.3906" y2="138.6875"/><rect fill="none" height="40.5938" rx="5" ry="5" style="stroke:#000000;stroke-width:1.5;" width="154" x="447" y="98.0938"/><rect fill="#F1F1F1" height="40.5938" rx="5" ry="5" style="stroke:#F1F1F1;stroke-width:1.5;" width="154" x="447" y="157.0938"/><text fill="#000000" font-family="sans-serif" font-size="14" font-weight="bold" lengthAdjust="spacing" textLength="15" x="452" y="172.0889">id</text><text fill="#000000" font-family="sans-serif" font-size="14" lengthAdjust="spacing" textLength="90" x="506" y="172.0889">0987654321</text><line style="stroke:#000000;stroke-width:1.0;" x1="501" x2="501" y1="157.0938" y2="177.3906"/><line style="stroke:#000000;stroke-width:1.0;" x1="447" x2="601" y1="177.3906" y2="177.3906"/><text fill="#000000" font-family="sans-serif" font-size="14" font-weight="bold" lengthAdjust="spacing" textLength="44" x="452" y="192.3857">name</text><text fill="#000000" font-family="sans-serif" font-size="14" lengthAdjust="spacing" textLength="84" x="506" y="192.3857">John's Store</text><line style="stroke:#000000;stroke-width:1.0;" x1="501" x2="501" y1="177.3906" y2="197.6875"/><rect fill="none" height="40.5938" rx="5" ry="5" style="stroke:#000000;stroke-width:1.5;" width="154" x="447" y="157.0938"/><rect fill="#F1F1F1" height="60.8906" rx="5" ry="5" style="stroke:#F1F1F1;stroke-width:1.5;" width="22" x="513" y="216.0938"/><text fill="#000000" font-family="sans-serif" font-size="14" lengthAdjust="spacing" textLength="12" x="518" y="231.0889">&#160;&#160;&#160;</text><line style="stroke:#000000;stroke-width:1.0;" x1="513" x2="535" y1="236.3906" y2="236.3906"/><text fill="#000000" font-family="sans-serif" font-size="14" lengthAdjust="spacing" textLength="12" x="518" y="251.3857">&#160;&#160;&#160;</text><line style="stroke:#000000;stroke-width:1.0;" x1="513" x2="535" y1="256.6875" y2="256.6875"/><text fill="#000000" font-family="sans-serif" font-size="14" lengthAdjust="spacing" textLength="12" x="518" y="271.6826">&#160;&#160;&#160;</text><rect fill="none" height="60.8906" rx="5" ry="5" style="stroke:#000000;stroke-width:1.5;" width="22" x="513" y="216.0938"/><rect fill="#F1F1F1" height="81.1875" rx="5" ry="5" style="stroke:#F1F1F1;stroke-width:1.5;" width="174" x="638" y="98"/><text fill="#000000" font-family="sans-serif" font-size="14" font-weight="bold" lengthAdjust="spacing" textLength="36" x="643" y="112.9951">field</text><text fill="#000000" font-family="sans-serif" font-size="14" lengthAdjust="spacing" textLength="12" x="753" y="112.9951">&#160;&#160;&#160;</text><line style="stroke:#000000;stroke-width:1.0;" x1="748" x2="748" y1="98" y2="118.2969"/><line style="stroke:#000000;stroke-width:1.0;" x1="638" x2="812" y1="118.2969" y2="118.2969"/><text fill="#000000" font-family="sans-serif" font-size="14" font-weight="bold" lengthAdjust="spacing" textLength="59" x="643" y="133.292">choices</text><text fill="#000000" font-family="sans-serif" font-size="14" lengthAdjust="spacing" textLength="12" x="753" y="133.292">&#160;&#160;&#160;</text><line style="stroke:#000000;stroke-width:1.0;" x1="748" x2="748" y1="118.2969" y2="138.5938"/><line style="stroke:#000000;stroke-width:1.0;" x1="638" x2="812" y1="138.5938" y2="138.5938"/><text fill="#000000" font-family="sans-serif" font-size="14" font-weight="bold" lengthAdjust="spacing" textLength="100" x="643" y="153.5889">attachments</text><text fill="#000000" font-family="sans-serif" font-size="14" lengthAdjust="spacing" textLength="12" x="753" y="153.5889">&#160;&#160;&#160;</text><line style="stroke:#000000;stroke-width:1.0;" x1="748" x2="748" y1="138.5938" y2="158.8906"/><line style="stroke:#000000;stroke-width:1.0;" x1="638" x2="812" y1="158.8906" y2="158.8906"/><text fill="#000000" font-family="sans-serif" font-size="14" font-weight="bold" lengthAdjust="spacing" textLength="36" x="643" y="173.8857">type</text><text fill="#000000" font-family="sans-serif" font-size="14" lengthAdjust="spacing" textLength="54" x="753" y="173.8857">choices</text><line style="stroke:#000000;stroke-width:1.0;" x1="748" x2="748" y1="158.8906" y2="179.1875"/><rect fill="none" height="81.1875" rx="5" ry="5" style="stroke:#000000;stroke-width:1.5;" width="174" x="638" y="98"/><rect fill="#F1F1F1" height="81.1875" rx="5" ry="5" style="stroke:#F1F1F1;stroke-width:1.5;" width="240" x="870.5" y="10"/><text fill="#000000" font-family="sans-serif" font-size="14" font-weight="bold" lengthAdjust="spacing" textLength="32" x="875.5" y="24.9951">sort</text><text fill="#000000" font-family="sans-serif" font-size="14" lengthAdjust="spacing" textLength="9" x="921.5" y="24.9951">1</text><line style="stroke:#000000;stroke-width:1.0;" x1="916.5" x2="916.5" y1="10" y2="30.2969"/><line style="stroke:#000000;stroke-width:1.0;" x1="870.5" x2="1110.5" y1="30.2969" y2="30.2969"/><text fill="#000000" font-family="sans-serif" font-size="14" font-weight="bold" lengthAdjust="spacing" textLength="15" x="875.5" y="45.292">id</text><text fill="#000000" font-family="sans-serif" font-size="14" lengthAdjust="spacing" textLength="9" x="921.5" y="45.292">1</text><line style="stroke:#000000;stroke-width:1.0;" x1="916.5" x2="916.5" y1="30.2969" y2="50.5938"/><line style="stroke:#000000;stroke-width:1.0;" x1="870.5" x2="1110.5" y1="50.5938" y2="50.5938"/><text fill="#000000" font-family="sans-serif" font-size="14" font-weight="bold" lengthAdjust="spacing" textLength="23" x="875.5" y="65.5889">ref</text><text fill="#000000" font-family="sans-serif" font-size="14" lengthAdjust="spacing" textLength="184" x="921.5" y="65.5889">dispocitivos_anti_inceptos</text><line style="stroke:#000000;stroke-width:1.0;" x1="916.5" x2="916.5" y1="50.5938" y2="70.8906"/><line style="stroke:#000000;stroke-width:1.0;" x1="870.5" x2="1110.5" y1="70.8906" y2="70.8906"/><text fill="#000000" font-family="sans-serif" font-size="14" font-weight="bold" lengthAdjust="spacing" textLength="36" x="875.5" y="85.8857">type</text><text fill="#000000" font-family="sans-serif" font-size="14" lengthAdjust="spacing" textLength="112" x="921.5" y="85.8857">multiple_choice</text><line style="stroke:#000000;stroke-width:1.0;" x1="916.5" x2="916.5" y1="70.8906" y2="91.1875"/><rect fill="none" height="81.1875" rx="5" ry="5" style="stroke:#000000;stroke-width:1.5;" width="240" x="870.5" y="10"/><rect fill="#F1F1F1" height="20.2969" rx="5" ry="5" style="stroke:#F1F1F1;stroke-width:1.5;" width="22" x="979.5" y="109.4453"/><text fill="#000000" font-family="sans-serif" font-size="14" lengthAdjust="spacing" textLength="12" x="984.5" y="124.4404">&#160;&#160;&#160;</text><rect fill="none" height="20.2969" rx="5" ry="5" style="stroke:#000000;stroke-width:1.5;" width="22" x="979.5" y="109.4453"/><rect fill="#F1F1F1" height="40.5938" rx="5" ry="5" style="stroke:#F1F1F1;stroke-width:1.5;" width="174" x="1280" y="74.0938"/><text fill="#000000" font-family="sans-serif" font-size="14" font-weight="bold" lengthAdjust="spacing" textLength="39" x="1285" y="89.0889">label</text><text fill="#000000" font-family="sans-serif" font-size="14" lengthAdjust="spacing" textLength="112" x="1334" y="89.0889">tela mosquitera</text><line style="stroke:#000000;stroke-width:1.0;" x1="1329" x2="1329" y1="74.0938" y2="94.3906"/><line style="stroke:#000000;stroke-width:1.0;" x1="1280" x2="1454" y1="94.3906" y2="94.3906"/><text fill="#000000" font-family="sans-serif" font-size="14" font-weight="bold" lengthAdjust="spacing" textLength="23" x="1285" y="109.3857">ref</text><text fill="#000000" font-family="sans-serif" font-size="14" lengthAdjust="spacing" textLength="115" x="1334" y="109.3857">tela_mosquitera</text><line style="stroke:#000000;stroke-width:1.0;" x1="1329" x2="1329" y1="94.3906" y2="114.6875"/><rect fill="none" height="40.5938" rx="5" ry="5" style="stroke:#000000;stroke-width:1.5;" width="174" x="1280" y="74.0938"/><rect fill="#F1F1F1" height="20.2969" rx="5" ry="5" style="stroke:#F1F1F1;stroke-width:1.5;" width="22" x="979.5" y="147.4453"/><text fill="#000000" font-family="sans-serif" font-size="14" lengthAdjust="spacing" textLength="12" x="984.5" y="162.4404">&#160;&#160;&#160;</text><rect fill="none" height="20.2969" rx="5" ry="5" style="stroke:#000000;stroke-width:1.5;" width="22" x="979.5" y="147.4453"/><rect fill="#F1F1F1" height="101.4844" rx="5" ry="5" style="stroke:#F1F1F1;stroke-width:1.5;" width="396" x="1169" y="132.8516"/><text fill="#000000" font-family="sans-serif" font-size="14" font-weight="bold" lengthAdjust="spacing" textLength="22" x="1174" y="147.8467">url</text><text fill="#000000" font-family="sans-serif" font-size="14" lengthAdjust="spacing" textLength="286" x="1274" y="147.8467">https://example.com/attachments/5.png</text><line style="stroke:#000000;stroke-width:1.0;" x1="1269" x2="1269" y1="132.8516" y2="153.1484"/><line style="stroke:#000000;stroke-width:1.0;" x1="1169" x2="1565" y1="153.1484" y2="153.1484"/><text fill="#000000" font-family="sans-serif" font-size="14" font-weight="bold" lengthAdjust="spacing" textLength="44" x="1174" y="168.1436">name</text><text fill="#000000" font-family="sans-serif" font-size="14" lengthAdjust="spacing" textLength="191" x="1274" y="168.1436">foto ventana lateral cocina</text><line style="stroke:#000000;stroke-width:1.0;" x1="1269" x2="1269" y1="153.1484" y2="173.4453"/><line style="stroke:#000000;stroke-width:1.0;" x1="1169" x2="1565" y1="173.4453" y2="173.4453"/><text fill="#000000" font-family="sans-serif" font-size="14" font-weight="bold" lengthAdjust="spacing" textLength="90" x="1174" y="188.4404">description</text><text fill="#000000" font-family="sans-serif" font-size="14" lengthAdjust="spacing" textLength="213" x="1274" y="188.4404">foto de ventana lateral cocina</text><line style="stroke:#000000;stroke-width:1.0;" x1="1269" x2="1269" y1="173.4453" y2="193.7422"/><line style="stroke:#000000;stroke-width:1.0;" x1="1169" x2="1565" y1="193.7422" y2="193.7422"/><text fill="#000000" font-family="sans-serif" font-size="14" font-weight="bold" lengthAdjust="spacing" textLength="36" x="1174" y="208.7373">type</text><text fill="#000000" font-family="sans-serif" font-size="14" lengthAdjust="spacing" textLength="45" x="1274" y="208.7373">image</text><line style="stroke:#000000;stroke-width:1.0;" x1="1269" x2="1269" y1="193.7422" y2="214.0391"/><line style="stroke:#000000;stroke-width:1.0;" x1="1169" x2="1565" y1="214.0391" y2="214.0391"/><text fill="#000000" font-family="sans-serif" font-size="14" font-weight="bold" lengthAdjust="spacing" textLength="31" x="1174" y="229.0342">size</text><text fill="#000000" font-family="sans-serif" font-size="14" lengthAdjust="spacing" textLength="9" x="1274" y="229.0342">0</text><line style="stroke:#000000;stroke-width:1.0;" x1="1269" x2="1269" y1="214.0391" y2="234.3359"/><rect fill="none" height="101.4844" rx="5" ry="5" style="stroke:#000000;stroke-width:1.5;" width="396" x="1169" y="132.8516"/><rect fill="#F1F1F1" height="60.8906" rx="5" ry="5" style="stroke:#F1F1F1;stroke-width:1.5;" width="142" x="654" y="216.0938"/><text fill="#000000" font-family="sans-serif" font-size="14" font-weight="bold" lengthAdjust="spacing" textLength="36" x="659" y="231.0889">field</text><text fill="#000000" font-family="sans-serif" font-size="14" lengthAdjust="spacing" textLength="12" x="733" y="231.0889">&#160;&#160;&#160;</text><line style="stroke:#000000;stroke-width:1.0;" x1="728" x2="728" y1="216.0938" y2="236.3906"/><line style="stroke:#000000;stroke-width:1.0;" x1="654" x2="796" y1="236.3906" y2="236.3906"/><text fill="#000000" font-family="sans-serif" font-size="14" font-weight="bold" lengthAdjust="spacing" textLength="64" x="659" y="251.3857">boolean</text><text fill="#000000" font-family="sans-serif" font-size="14" lengthAdjust="spacing" textLength="51" x="733" y="251.3857">&#9744; false</text><line style="stroke:#000000;stroke-width:1.0;" x1="728" x2="728" y1="236.3906" y2="256.6875"/><line style="stroke:#000000;stroke-width:1.0;" x1="654" x2="796" y1="256.6875" y2="256.6875"/><text fill="#000000" font-family="sans-serif" font-size="14" font-weight="bold" lengthAdjust="spacing" textLength="36" x="659" y="271.6826">type</text><text fill="#000000" font-family="sans-serif" font-size="14" lengthAdjust="spacing" textLength="58" x="733" y="271.6826">boolean</text><line style="stroke:#000000;stroke-width:1.0;" x1="728" x2="728" y1="256.6875" y2="276.9844"/><rect fill="none" height="60.8906" rx="5" ry="5" style="stroke:#000000;stroke-width:1.5;" width="142" x="654" y="216.0938"/><rect fill="#F1F1F1" height="81.1875" rx="5" ry="5" style="stroke:#F1F1F1;stroke-width:1.5;" width="283" x="849" y="186"/><text fill="#000000" font-family="sans-serif" font-size="14" font-weight="bold" lengthAdjust="spacing" textLength="32" x="854" y="200.9951">sort</text><text fill="#000000" font-family="sans-serif" font-size="14" lengthAdjust="spacing" textLength="9" x="900" y="200.9951">2</text><line style="stroke:#000000;stroke-width:1.0;" x1="895" x2="895" y1="186" y2="206.2969"/><line style="stroke:#000000;stroke-width:1.0;" x1="849" x2="1132" y1="206.2969" y2="206.2969"/><text fill="#000000" font-family="sans-serif" font-size="14" font-weight="bold" lengthAdjust="spacing" textLength="15" x="854" y="221.292">id</text><text fill="#000000" font-family="sans-serif" font-size="14" lengthAdjust="spacing" textLength="9" x="900" y="221.292">2</text><line style="stroke:#000000;stroke-width:1.0;" x1="895" x2="895" y1="206.2969" y2="226.5938"/><line style="stroke:#000000;stroke-width:1.0;" x1="849" x2="1132" y1="226.5938" y2="226.5938"/><text fill="#000000" font-family="sans-serif" font-size="14" font-weight="bold" lengthAdjust="spacing" textLength="23" x="854" y="241.5889">ref</text><text fill="#000000" font-family="sans-serif" font-size="14" lengthAdjust="spacing" textLength="227" x="900" y="241.5889">carnet_manipulacion_alimentos</text><line style="stroke:#000000;stroke-width:1.0;" x1="895" x2="895" y1="226.5938" y2="246.8906"/><line style="stroke:#000000;stroke-width:1.0;" x1="849" x2="1132" y1="246.8906" y2="246.8906"/><text fill="#000000" font-family="sans-serif" font-size="14" font-weight="bold" lengthAdjust="spacing" textLength="36" x="854" y="261.8857">type</text><text fill="#000000" font-family="sans-serif" font-size="14" lengthAdjust="spacing" textLength="49" x="900" y="261.8857">yes_no</text><line style="stroke:#000000;stroke-width:1.0;" x1="895" x2="895" y1="246.8906" y2="267.1875"/><rect fill="none" height="81.1875" rx="5" ry="5" style="stroke:#000000;stroke-width:1.5;" width="283" x="849" y="186"/><rect fill="#F1F1F1" height="81.1875" rx="5" ry="5" style="stroke:#F1F1F1;stroke-width:1.5;" width="167" x="641.5" y="344"/><text fill="#000000" font-family="sans-serif" font-size="14" font-weight="bold" lengthAdjust="spacing" textLength="36" x="646.5" y="358.9951">field</text><text fill="#000000" font-family="sans-serif" font-size="14" lengthAdjust="spacing" textLength="12" x="756.5" y="358.9951">&#160;&#160;&#160;</text><line style="stroke:#000000;stroke-width:1.0;" x1="751.5" x2="751.5" y1="344" y2="364.2969"/><line style="stroke:#000000;stroke-width:1.0;" x1="641.5" x2="808.5" y1="364.2969" y2="364.2969"/><text fill="#000000" font-family="sans-serif" font-size="14" font-weight="bold" lengthAdjust="spacing" textLength="59" x="646.5" y="379.292">choices</text><text fill="#000000" font-family="sans-serif" font-size="14" lengthAdjust="spacing" textLength="12" x="756.5" y="379.292">&#160;&#160;&#160;</text><line style="stroke:#000000;stroke-width:1.0;" x1="751.5" x2="751.5" y1="364.2969" y2="384.5938"/><line style="stroke:#000000;stroke-width:1.0;" x1="641.5" x2="808.5" y1="384.5938" y2="384.5938"/><text fill="#000000" font-family="sans-serif" font-size="14" font-weight="bold" lengthAdjust="spacing" textLength="100" x="646.5" y="399.5889">attachments</text><text fill="#000000" font-family="sans-serif" font-size="14" lengthAdjust="spacing" textLength="12" x="756.5" y="399.5889">&#160;&#160;&#160;</text><line style="stroke:#000000;stroke-width:1.0;" x1="751.5" x2="751.5" y1="384.5938" y2="404.8906"/><line style="stroke:#000000;stroke-width:1.0;" x1="641.5" x2="808.5" y1="404.8906" y2="404.8906"/><text fill="#000000" font-family="sans-serif" font-size="14" font-weight="bold" lengthAdjust="spacing" textLength="36" x="646.5" y="419.8857">type</text><text fill="#000000" font-family="sans-serif" font-size="14" lengthAdjust="spacing" textLength="47" x="756.5" y="419.8857">choice</text><line style="stroke:#000000;stroke-width:1.0;" x1="751.5" x2="751.5" y1="404.8906" y2="425.1875"/><rect fill="none" height="81.1875" rx="5" ry="5" style="stroke:#000000;stroke-width:1.5;" width="167" x="641.5" y="344"/><rect fill="#F1F1F1" height="81.1875" rx="5" ry="5" style="stroke:#F1F1F1;stroke-width:1.5;" width="214" x="883.5" y="285"/><text fill="#000000" font-family="sans-serif" font-size="14" font-weight="bold" lengthAdjust="spacing" textLength="32" x="888.5" y="299.9951">sort</text><text fill="#000000" font-family="sans-serif" font-size="14" lengthAdjust="spacing" textLength="9" x="934.5" y="299.9951">3</text><line style="stroke:#000000;stroke-width:1.0;" x1="929.5" x2="929.5" y1="285" y2="305.2969"/><line style="stroke:#000000;stroke-width:1.0;" x1="883.5" x2="1097.5" y1="305.2969" y2="305.2969"/><text fill="#000000" font-family="sans-serif" font-size="14" font-weight="bold" lengthAdjust="spacing" textLength="15" x="888.5" y="320.292">id</text><text fill="#000000" font-family="sans-serif" font-size="14" lengthAdjust="spacing" textLength="9" x="934.5" y="320.292">3</text><line style="stroke:#000000;stroke-width:1.0;" x1="929.5" x2="929.5" y1="305.2969" y2="325.5938"/><line style="stroke:#000000;stroke-width:1.0;" x1="883.5" x2="1097.5" y1="325.5938" y2="325.5938"/><text fill="#000000" font-family="sans-serif" font-size="14" font-weight="bold" lengthAdjust="spacing" textLength="23" x="888.5" y="340.5889">ref</text><text fill="#000000" font-family="sans-serif" font-size="14" lengthAdjust="spacing" textLength="158" x="934.5" y="340.5889">dispocitivos_incendios</text><line style="stroke:#000000;stroke-width:1.0;" x1="929.5" x2="929.5" y1="325.5938" y2="345.8906"/><line style="stroke:#000000;stroke-width:1.0;" x1="883.5" x2="1097.5" y1="345.8906" y2="345.8906"/><text fill="#000000" font-family="sans-serif" font-size="14" font-weight="bold" lengthAdjust="spacing" textLength="36" x="888.5" y="360.8857">type</text><text fill="#000000" font-family="sans-serif" font-size="14" lengthAdjust="spacing" textLength="112" x="934.5" y="360.8857">multiple_choice</text><line style="stroke:#000000;stroke-width:1.0;" x1="929.5" x2="929.5" y1="345.8906" y2="366.1875"/><rect fill="none" height="81.1875" rx="5" ry="5" style="stroke:#000000;stroke-width:1.5;" width="214" x="883.5" y="285"/><rect fill="#F1F1F1" height="40.5938" rx="5" ry="5" style="stroke:#F1F1F1;stroke-width:1.5;" width="22" x="979.5" y="384.0938"/><text fill="#000000" font-family="sans-serif" font-size="14" lengthAdjust="spacing" textLength="12" x="984.5" y="399.0889">&#160;&#160;&#160;</text><line style="stroke:#000000;stroke-width:1.0;" x1="979.5" x2="1001.5" y1="404.3906" y2="404.3906"/><text fill="#000000" font-family="sans-serif" font-size="14" lengthAdjust="spacing" textLength="12" x="984.5" y="419.3857">&#160;&#160;&#160;</text><rect fill="none" height="40.5938" rx="5" ry="5" style="stroke:#000000;stroke-width:1.5;" width="22" x="979.5" y="384.0938"/><rect fill="#F1F1F1" height="40.5938" rx="5" ry="5" style="stroke:#F1F1F1;stroke-width:1.5;" width="114" x="1310" y="335.0938"/><text fill="#000000" font-family="sans-serif" font-size="14" font-weight="bold" lengthAdjust="spacing" textLength="39" x="1315" y="350.0889">label</text><text fill="#000000" font-family="sans-serif" font-size="14" lengthAdjust="spacing" textLength="55" x="1364" y="350.0889">extintor</text><line style="stroke:#000000;stroke-width:1.0;" x1="1359" x2="1359" y1="335.0938" y2="355.3906"/><line style="stroke:#000000;stroke-width:1.0;" x1="1310" x2="1424" y1="355.3906" y2="355.3906"/><text fill="#000000" font-family="sans-serif" font-size="14" font-weight="bold" lengthAdjust="spacing" textLength="23" x="1315" y="370.3857">ref</text><text fill="#000000" font-family="sans-serif" font-size="14" lengthAdjust="spacing" textLength="55" x="1364" y="370.3857">extintor</text><line style="stroke:#000000;stroke-width:1.0;" x1="1359" x2="1359" y1="355.3906" y2="375.6875"/><rect fill="none" height="40.5938" rx="5" ry="5" style="stroke:#000000;stroke-width:1.5;" width="114" x="1310" y="335.0938"/><rect fill="#F1F1F1" height="40.5938" rx="5" ry="5" style="stroke:#F1F1F1;stroke-width:1.5;" width="133" x="1300.5" y="394.0938"/><text fill="#000000" font-family="sans-serif" font-size="14" font-weight="bold" lengthAdjust="spacing" textLength="39" x="1305.5" y="409.0889">label</text><text fill="#000000" font-family="sans-serif" font-size="14" lengthAdjust="spacing" textLength="74" x="1354.5" y="409.0889">manguera</text><line style="stroke:#000000;stroke-width:1.0;" x1="1349.5" x2="1349.5" y1="394.0938" y2="414.3906"/><line style="stroke:#000000;stroke-width:1.0;" x1="1300.5" x2="1433.5" y1="414.3906" y2="414.3906"/><text fill="#000000" font-family="sans-serif" font-size="14" font-weight="bold" lengthAdjust="spacing" textLength="23" x="1305.5" y="429.3857">ref</text><text fill="#000000" font-family="sans-serif" font-size="14" lengthAdjust="spacing" textLength="74" x="1354.5" y="429.3857">manguera</text><line style="stroke:#000000;stroke-width:1.0;" x1="1349.5" x2="1349.5" y1="414.3906" y2="434.6875"/><rect fill="none" height="40.5938" rx="5" ry="5" style="stroke:#000000;stroke-width:1.5;" width="133" x="1300.5" y="394.0938"/><rect fill="#F1F1F1" height="81.1875" rx="5" ry="5" style="stroke:#F1F1F1;stroke-width:1.5;" width="22" x="979.5" y="592"/><text fill="#000000" font-family="sans-serif" font-size="14" lengthAdjust="spacing" textLength="12" x="984.5" y="606.9951">&#160;&#160;&#160;</text><line style="stroke:#000000;stroke-width:1.0;" x1="979.5" x2="1001.5" y1="612.2969" y2="612.2969"/><text fill="#000000" font-family="sans-serif" font-size="14" lengthAdjust="spacing" textLength="12" x="984.5" y="627.292">&#160;&#160;&#160;</text><line style="stroke:#000000;stroke-width:1.0;" x1="979.5" x2="1001.5" y1="632.5938" y2="632.5938"/><text fill="#000000" font-family="sans-serif" font-size="14" lengthAdjust="spacing" textLength="12" x="984.5" y="647.5889">&#160;&#160;&#160;</text><line style="stroke:#000000;stroke-width:1.0;" x1="979.5" x2="1001.5" y1="652.8906" y2="652.8906"/><text fill="#000000" font-family="sans-serif" font-size="14" lengthAdjust="spacing" textLength="12" x="984.5" y="667.8857">&#160;&#160;&#160;</text><rect fill="none" height="81.1875" rx="5" ry="5" style="stroke:#000000;stroke-width:1.5;" width="22" x="979.5" y="592"/><rect fill="#F1F1F1" height="101.4844" rx="5" ry="5" style="stroke:#F1F1F1;stroke-width:1.5;" width="396" x="1169" y="452.8516"/><text fill="#000000" font-family="sans-serif" font-size="14" font-weight="bold" lengthAdjust="spacing" textLength="22" x="1174" y="467.8467">url</text><text fill="#000000" font-family="sans-serif" font-size="14" lengthAdjust="spacing" textLength="286" x="1274" y="467.8467">https://example.com/attachments/3.png</text><line style="stroke:#000000;stroke-width:1.0;" x1="1269" x2="1269" y1="452.8516" y2="473.1484"/><line style="stroke:#000000;stroke-width:1.0;" x1="1169" x2="1565" y1="473.1484" y2="473.1484"/><text fill="#000000" font-family="sans-serif" font-size="14" font-weight="bold" lengthAdjust="spacing" textLength="44" x="1174" y="488.1436">name</text><text fill="#000000" font-family="sans-serif" font-size="14" lengthAdjust="spacing" textLength="137" x="1274" y="488.1436">foto extintor pasillo</text><line style="stroke:#000000;stroke-width:1.0;" x1="1269" x2="1269" y1="473.1484" y2="493.4453"/><line style="stroke:#000000;stroke-width:1.0;" x1="1169" x2="1565" y1="493.4453" y2="493.4453"/><text fill="#000000" font-family="sans-serif" font-size="14" font-weight="bold" lengthAdjust="spacing" textLength="90" x="1174" y="508.4404">description</text><text fill="#000000" font-family="sans-serif" font-size="14" lengthAdjust="spacing" textLength="181" x="1274" y="508.4404">foto de extintor en pasillo</text><line style="stroke:#000000;stroke-width:1.0;" x1="1269" x2="1269" y1="493.4453" y2="513.7422"/><line style="stroke:#000000;stroke-width:1.0;" x1="1169" x2="1565" y1="513.7422" y2="513.7422"/><text fill="#000000" font-family="sans-serif" font-size="14" font-weight="bold" lengthAdjust="spacing" textLength="36" x="1174" y="528.7373">type</text><text fill="#000000" font-family="sans-serif" font-size="14" lengthAdjust="spacing" textLength="45" x="1274" y="528.7373">image</text><line style="stroke:#000000;stroke-width:1.0;" x1="1269" x2="1269" y1="513.7422" y2="534.0391"/><line style="stroke:#000000;stroke-width:1.0;" x1="1169" x2="1565" y1="534.0391" y2="534.0391"/><text fill="#000000" font-family="sans-serif" font-size="14" font-weight="bold" lengthAdjust="spacing" textLength="31" x="1174" y="549.0342">size</text><text fill="#000000" font-family="sans-serif" font-size="14" lengthAdjust="spacing" textLength="9" x="1274" y="549.0342">0</text><line style="stroke:#000000;stroke-width:1.0;" x1="1269" x2="1269" y1="534.0391" y2="554.3359"/><rect fill="none" height="101.4844" rx="5" ry="5" style="stroke:#000000;stroke-width:1.5;" width="396" x="1169" y="452.8516"/><rect fill="#F1F1F1" height="101.4844" rx="5" ry="5" style="stroke:#F1F1F1;stroke-width:1.5;" width="396" x="1169" y="571.8516"/><text fill="#000000" font-family="sans-serif" font-size="14" font-weight="bold" lengthAdjust="spacing" textLength="22" x="1174" y="586.8467">url</text><text fill="#000000" font-family="sans-serif" font-size="14" lengthAdjust="spacing" textLength="286" x="1274" y="586.8467">https://example.com/attachments/1.png</text><line style="stroke:#000000;stroke-width:1.0;" x1="1269" x2="1269" y1="571.8516" y2="592.1484"/><line style="stroke:#000000;stroke-width:1.0;" x1="1169" x2="1565" y1="592.1484" y2="592.1484"/><text fill="#000000" font-family="sans-serif" font-size="14" font-weight="bold" lengthAdjust="spacing" textLength="44" x="1174" y="607.1436">name</text><text fill="#000000" font-family="sans-serif" font-size="14" lengthAdjust="spacing" textLength="127" x="1274" y="607.1436">foto extintor patio</text><line style="stroke:#000000;stroke-width:1.0;" x1="1269" x2="1269" y1="592.1484" y2="612.4453"/><line style="stroke:#000000;stroke-width:1.0;" x1="1169" x2="1565" y1="612.4453" y2="612.4453"/><text fill="#000000" font-family="sans-serif" font-size="14" font-weight="bold" lengthAdjust="spacing" textLength="90" x="1174" y="627.4404">description</text><text fill="#000000" font-family="sans-serif" font-size="14" lengthAdjust="spacing" textLength="171" x="1274" y="627.4404">foto de extintor en patio</text><line style="stroke:#000000;stroke-width:1.0;" x1="1269" x2="1269" y1="612.4453" y2="632.7422"/><line style="stroke:#000000;stroke-width:1.0;" x1="1169" x2="1565" y1="632.7422" y2="632.7422"/><text fill="#000000" font-family="sans-serif" font-size="14" font-weight="bold" lengthAdjust="spacing" textLength="36" x="1174" y="647.7373">type</text><text fill="#000000" font-family="sans-serif" font-size="14" lengthAdjust="spacing" textLength="45" x="1274" y="647.7373">image</text><line style="stroke:#000000;stroke-width:1.0;" x1="1269" x2="1269" y1="632.7422" y2="653.0391"/><line style="stroke:#000000;stroke-width:1.0;" x1="1169" x2="1565" y1="653.0391" y2="653.0391"/><text fill="#000000" font-family="sans-serif" font-size="14" font-weight="bold" lengthAdjust="spacing" textLength="31" x="1174" y="668.0342">size</text><text fill="#000000" font-family="sans-serif" font-size="14" lengthAdjust="spacing" textLength="9" x="1274" y="668.0342">0</text><line style="stroke:#000000;stroke-width:1.0;" x1="1269" x2="1269" y1="653.0391" y2="673.3359"/><rect fill="none" height="101.4844" rx="5" ry="5" style="stroke:#000000;stroke-width:1.5;" width="396" x="1169" y="571.8516"/><rect fill="#F1F1F1" height="101.4844" rx="5" ry="5" style="stroke:#F1F1F1;stroke-width:1.5;" width="396" x="1169" y="690.8516"/><text fill="#000000" font-family="sans-serif" font-size="14" font-weight="bold" lengthAdjust="spacing" textLength="22" x="1174" y="705.8467">url</text><text fill="#000000" font-family="sans-serif" font-size="14" lengthAdjust="spacing" textLength="286" x="1274" y="705.8467">https://example.com/attachments/2.png</text><line style="stroke:#000000;stroke-width:1.0;" x1="1269" x2="1269" y1="690.8516" y2="711.1484"/><line style="stroke:#000000;stroke-width:1.0;" x1="1169" x2="1565" y1="711.1484" y2="711.1484"/><text fill="#000000" font-family="sans-serif" font-size="14" font-weight="bold" lengthAdjust="spacing" textLength="44" x="1174" y="726.1436">name</text><text fill="#000000" font-family="sans-serif" font-size="14" lengthAdjust="spacing" textLength="210" x="1274" y="726.1436">foto extintor estacionamiento</text><line style="stroke:#000000;stroke-width:1.0;" x1="1269" x2="1269" y1="711.1484" y2="731.4453"/><line style="stroke:#000000;stroke-width:1.0;" x1="1169" x2="1565" y1="731.4453" y2="731.4453"/><text fill="#000000" font-family="sans-serif" font-size="14" font-weight="bold" lengthAdjust="spacing" textLength="90" x="1174" y="746.4404">description</text><text fill="#000000" font-family="sans-serif" font-size="14" lengthAdjust="spacing" textLength="254" x="1274" y="746.4404">foto de extintor en estacionamiento</text><line style="stroke:#000000;stroke-width:1.0;" x1="1269" x2="1269" y1="731.4453" y2="751.7422"/><line style="stroke:#000000;stroke-width:1.0;" x1="1169" x2="1565" y1="751.7422" y2="751.7422"/><text fill="#000000" font-family="sans-serif" font-size="14" font-weight="bold" lengthAdjust="spacing" textLength="36" x="1174" y="766.7373">type</text><text fill="#000000" font-family="sans-serif" font-size="14" lengthAdjust="spacing" textLength="45" x="1274" y="766.7373">image</text><line style="stroke:#000000;stroke-width:1.0;" x1="1269" x2="1269" y1="751.7422" y2="772.0391"/><line style="stroke:#000000;stroke-width:1.0;" x1="1169" x2="1565" y1="772.0391" y2="772.0391"/><text fill="#000000" font-family="sans-serif" font-size="14" font-weight="bold" lengthAdjust="spacing" textLength="31" x="1174" y="787.0342">size</text><text fill="#000000" font-family="sans-serif" font-size="14" lengthAdjust="spacing" textLength="9" x="1274" y="787.0342">0</text><line style="stroke:#000000;stroke-width:1.0;" x1="1269" x2="1269" y1="772.0391" y2="792.3359"/><rect fill="none" height="101.4844" rx="5" ry="5" style="stroke:#000000;stroke-width:1.5;" width="396" x="1169" y="690.8516"/><rect fill="#F1F1F1" height="101.4844" rx="5" ry="5" style="stroke:#F1F1F1;stroke-width:1.5;" width="396" x="1169" y="809.8516"/><text fill="#000000" font-family="sans-serif" font-size="14" font-weight="bold" lengthAdjust="spacing" textLength="22" x="1174" y="824.8467">url</text><text fill="#000000" font-family="sans-serif" font-size="14" lengthAdjust="spacing" textLength="286" x="1274" y="824.8467">https://example.com/attachments/4.png</text><line style="stroke:#000000;stroke-width:1.0;" x1="1269" x2="1269" y1="809.8516" y2="830.1484"/><line style="stroke:#000000;stroke-width:1.0;" x1="1169" x2="1565" y1="830.1484" y2="830.1484"/><text fill="#000000" font-family="sans-serif" font-size="14" font-weight="bold" lengthAdjust="spacing" textLength="44" x="1174" y="845.1436">name</text><text fill="#000000" font-family="sans-serif" font-size="14" lengthAdjust="spacing" textLength="177" x="1274" y="845.1436">foto manguera y extintor</text><line style="stroke:#000000;stroke-width:1.0;" x1="1269" x2="1269" y1="830.1484" y2="850.4453"/><line style="stroke:#000000;stroke-width:1.0;" x1="1169" x2="1565" y1="850.4453" y2="850.4453"/><text fill="#000000" font-family="sans-serif" font-size="14" font-weight="bold" lengthAdjust="spacing" textLength="90" x="1174" y="865.4404">description</text><text fill="#000000" font-family="sans-serif" font-size="14" lengthAdjust="spacing" textLength="199" x="1274" y="865.4404">foto de manguera y extintor</text><line style="stroke:#000000;stroke-width:1.0;" x1="1269" x2="1269" y1="850.4453" y2="870.7422"/><line style="stroke:#000000;stroke-width:1.0;" x1="1169" x2="1565" y1="870.7422" y2="870.7422"/><text fill="#000000" font-family="sans-serif" font-size="14" font-weight="bold" lengthAdjust="spacing" textLength="36" x="1174" y="885.7373">type</text><text fill="#000000" font-family="sans-serif" font-size="14" lengthAdjust="spacing" textLength="45" x="1274" y="885.7373">image</text><line style="stroke:#000000;stroke-width:1.0;" x1="1269" x2="1269" y1="870.7422" y2="891.0391"/><line style="stroke:#000000;stroke-width:1.0;" x1="1169" x2="1565" y1="891.0391" y2="891.0391"/><text fill="#000000" font-family="sans-serif" font-size="14" font-weight="bold" lengthAdjust="spacing" textLength="31" x="1174" y="906.0342">size</text><text fill="#000000" font-family="sans-serif" font-size="14" lengthAdjust="spacing" textLength="9" x="1274" y="906.0342">0</text><line style="stroke:#000000;stroke-width:1.0;" x1="1269" x2="1269" y1="891.0391" y2="911.3359"/><rect fill="none" height="101.4844" rx="5" ry="5" style="stroke:#000000;stroke-width:1.5;" width="396" x="1169" y="809.8516"/><path d="M398,157.5938 L411,157.5938 C416.784,157.5938 439.0137,150.1393 462.2036,141.7485 " fill="none" style="stroke:#000000;stroke-width:1.0;stroke-dasharray:3.0,3.0;"/><path d="M463.2544,144.6327 L464.3668,140.9605 L461.1529,138.8643 L469.4142,139.1216 L463.2544,144.6327 " fill="#000000" style="stroke:#000000;stroke-width:1.0;"/><ellipse cx="398" cy="157.5938" fill="#000000" rx="3" ry="3" style="stroke:#000000;stroke-width:1.0;"/><path d="M398,177.5938 L411,177.5938 C420.2468,177.5938 429.9212,177.5938 439.5487,177.5938 " fill="none" style="stroke:#000000;stroke-width:1.0;stroke-dasharray:3.0,3.0;"/><path d="M439.5487,180.6745 L441.8592,177.5938 L439.5487,174.513 L447.2506,177.5938 L439.5487,180.6745 " fill="#000000" style="stroke:#000000;stroke-width:1.0;"/><ellipse cx="398" cy="177.5938" fill="#000000" rx="3" ry="3" style="stroke:#000000;stroke-width:1.0;"/><path d="M800,108.5938 L813,108.5938 C819.9016,108.5938 841.8842,102.1436 868.1218,93.5453 " fill="none" style="stroke:#000000;stroke-width:1.0;stroke-dasharray:3.0,3.0;"/><path d="M869.0631,96.3966 L870.2602,92.8393 L867.1804,90.6941 L875.2499,91.1918 L869.0631,96.3966 " fill="#000000" style="stroke:#000000;stroke-width:1.0;"/><ellipse cx="800" cy="108.5938" fill="#000000" rx="3" ry="3" style="stroke:#000000;stroke-width:1.0;"/><path d="M989.2667,119.7092 L1002.238,118.8455 C1041.9802,116.1996 1178.549,107.1071 1272.6824,100.8399 " fill="none" style="stroke:#000000;stroke-width:1.0;stroke-dasharray:3.0,3.0;"/><path d="M1272.8835,103.8606 L1274.9479,100.6891 L1272.4813,97.8193 L1280.234,100.3372 L1272.8835,103.8606 " fill="#000000" style="stroke:#000000;stroke-width:1.0;"/><ellipse cx="989.2667" cy="119.7092" fill="#000000" rx="3" ry="3" style="stroke:#000000;stroke-width:1.0;"/><path d="M800,128.5938 L813,128.5938 C871.1844,128.5938 939.9889,123.6829 971.9758,121.1163 " fill="none" style="stroke:#000000;stroke-width:1.0;stroke-dasharray:3.0,3.0;"/><path d="M972.2265,124.1801 L974.2736,120.9283 L971.7251,118.0526 L979.6352,120.4896 L972.2265,124.1801 " fill="#000000" style="stroke:#000000;stroke-width:1.0;"/><ellipse cx="800" cy="128.5938" fill="#000000" rx="3" ry="3" style="stroke:#000000;stroke-width:1.0;"/><path d="M989.269,157.4739 L1002.238,158.3719 C1027.7872,160.1409 1093.3535,164.6808 1161.9363,169.4295 " fill="none" style="stroke:#000000;stroke-width:1.0;stroke-dasharray:3.0,3.0;"/><path d="M1161.7283,172.4324 L1164.1884,169.5855 L1162.1442,166.4267 L1169.4434,169.9494 L1161.7283,172.4324 " fill="#000000" style="stroke:#000000;stroke-width:1.0;"/><ellipse cx="989.269" cy="157.4739" fill="#000000" rx="3" ry="3" style="stroke:#000000;stroke-width:1.0;"/><path d="M800,148.5938 L813,148.5938 C871.1844,148.5938 939.9889,153.5046 971.9758,156.0712 " fill="none" style="stroke:#000000;stroke-width:1.0;stroke-dasharray:3.0,3.0;"/><path d="M971.7251,159.1349 L974.2736,156.2592 L972.2265,153.0074 L979.6352,156.6979 L971.7251,159.1349 " fill="#000000" style="stroke:#000000;stroke-width:1.0;"/><ellipse cx="800" cy="148.5938" fill="#000000" rx="3" ry="3" style="stroke:#000000;stroke-width:1.0;"/><path d="M523.5,226.5938 L536.5,226.5938 C582.1305,226.5938 628.6141,205.0659 663.9442,183.3057 " fill="none" style="stroke:#000000;stroke-width:1.0;stroke-dasharray:3.0,3.0;"/><path d="M665.5685,185.8915 L665.8835,182.0875 L662.3199,180.72 L670.4086,179.2451 L665.5685,185.8915 " fill="#000000" style="stroke:#000000;stroke-width:1.0;"/><ellipse cx="523.5" cy="226.5938" fill="#000000" rx="3" ry="3" style="stroke:#000000;stroke-width:1.0;"/><path d="M784.5,226.5938 L797.5,226.5938 C811.8008,226.5938 826.6992,226.5938 841.5959,226.5938 " fill="none" style="stroke:#000000;stroke-width:1.0;stroke-dasharray:3.0,3.0;"/><path d="M841.5959,229.7084 L843.9319,226.5938 L841.5959,223.4791 L849.3826,226.5938 L841.5959,229.7084 " fill="#000000" style="stroke:#000000;stroke-width:1.0;"/><ellipse cx="784.5" cy="226.5938" fill="#000000" rx="3" ry="3" style="stroke:#000000;stroke-width:1.0;"/><path d="M523.5,246.5938 L536.5,246.5938 C572.761,246.5938 612.9562,246.5938 646.8416,246.5938 " fill="none" style="stroke:#000000;stroke-width:1.0;stroke-dasharray:3.0,3.0;"/><path d="M646.8416,249.624 L649.1143,246.5938 L646.8416,243.5635 L654.4172,246.5938 L646.8416,249.624 " fill="#000000" style="stroke:#000000;stroke-width:1.0;"/><ellipse cx="523.5" cy="246.5938" fill="#000000" rx="3" ry="3" style="stroke:#000000;stroke-width:1.0;"/><path d="M797.5,354.5938 L810.5,354.5938 C831.8196,354.5938 854.3834,352.5754 876.051,349.6036 " fill="none" style="stroke:#000000;stroke-width:1.0;stroke-dasharray:3.0,3.0;"/><path d="M876.4867,352.6529 L878.3379,349.2768 L875.6153,346.5543 L883.6742,348.5144 L876.4867,352.6529 " fill="#000000" style="stroke:#000000;stroke-width:1.0;"/><ellipse cx="797.5" cy="354.5938" fill="#000000" rx="3" ry="3" style="stroke:#000000;stroke-width:1.0;"/><path d="M990,394.5938 L1003,394.5938 C1108.4832,394.5938 1230.2071,378.157 1302.6283,366.6248 " fill="none" style="stroke:#000000;stroke-width:1.0;stroke-dasharray:3.0,3.0;"/><path d="M1303.1243,369.7116 L1304.9434,366.2528 L1302.1323,363.538 L1310.3452,365.3848 L1303.1243,369.7116 " fill="#000000" style="stroke:#000000;stroke-width:1.0;"/><ellipse cx="990" cy="394.5938" fill="#000000" rx="3" ry="3" style="stroke:#000000;stroke-width:1.0;"/><path d="M990,414.5938 L1003,414.5938 C1103.4669,414.5938 1219.5531,414.5938 1292.9792,414.5938 " fill="none" style="stroke:#000000;stroke-width:1.0;stroke-dasharray:3.0,3.0;"/><path d="M1292.9792,417.7352 L1295.3353,414.5938 L1292.9792,411.4523 L1300.8328,414.5938 L1292.9792,417.7352 " fill="#000000" style="stroke:#000000;stroke-width:1.0;"/><ellipse cx="990" cy="414.5938" fill="#000000" rx="3" ry="3" style="stroke:#000000;stroke-width:1.0;"/><path d="M797.5,374.5938 L810.5,374.5938 C870.5375,374.5938 940.3442,391.1224 972.3395,399.6425 " fill="none" style="stroke:#000000;stroke-width:1.0;stroke-dasharray:3.0,3.0;"/><path d="M971.5096,402.6976 L974.6308,400.2649 L973.1693,396.5874 L979.9771,401.7172 L971.5096,402.6976 " fill="#000000" style="stroke:#000000;stroke-width:1.0;"/><ellipse cx="797.5" cy="374.5938" fill="#000000" rx="3" ry="3" style="stroke:#000000;stroke-width:1.0;"/><path d="M990,602.5938 L1003,602.5938 C1022.9597,602.5938 1106.5294,580.0854 1188.5101,556.5335 " fill="none" style="stroke:#000000;stroke-width:1.0;stroke-dasharray:3.0,3.0;"/><path d="M1189.364,559.5002 L1190.7351,555.8931 L1187.6562,553.5668 L1195.9268,554.3988 L1189.364,559.5002 " fill="#000000" style="stroke:#000000;stroke-width:1.0;"/><ellipse cx="990" cy="602.5938" fill="#000000" rx="3" ry="3" style="stroke:#000000;stroke-width:1.0;"/><path d="M990,622.5938 L1003,622.5938 C1054.4278,622.5938 1109.9483,622.5938 1161.7446,622.5938 " fill="none" style="stroke:#000000;stroke-width:1.0;stroke-dasharray:3.0,3.0;"/><path d="M1161.7446,625.6394 L1164.0288,622.5938 L1161.7446,619.5481 L1169.3587,622.5938 L1161.7446,625.6394 " fill="#000000" style="stroke:#000000;stroke-width:1.0;"/><ellipse cx="990" cy="622.5938" fill="#000000" rx="3" ry="3" style="stroke:#000000;stroke-width:1.0;"/><path d="M990,642.5938 L1003,642.5938 C1022.9597,642.5938 1106.5294,665.1021 1188.5101,688.654 " fill="none" style="stroke:#000000;stroke-width:1.0;stroke-dasharray:3.0,3.0;"/><path d="M1187.6562,691.6207 L1190.7351,689.2944 L1189.364,685.6873 L1195.9268,690.7887 L1187.6562,691.6207 " fill="#000000" style="stroke:#000000;stroke-width:1.0;"/><ellipse cx="990" cy="642.5938" fill="#000000" rx="3" ry="3" style="stroke:#000000;stroke-width:1.0;"/><path d="M990,662.5938 L1003,662.5938 C1099.2271,662.5938 1084.2638,755.993 1169,801.5938 C1172.006,803.2114 1175.0621,804.7904 1178.1606,806.3315 " fill="none" style="stroke:#000000;stroke-width:1.0;stroke-dasharray:3.0,3.0;"/><path d="M1176.8353,809.0705 L1180.2149,807.3254 L1179.4858,803.5924 L1185.0082,809.6446 L1176.8353,809.0705 " fill="#000000" style="stroke:#000000;stroke-width:1.0;"/><ellipse cx="990" cy="662.5938" fill="#000000" rx="3" ry="3" style="stroke:#000000;stroke-width:1.0;"/><path d="M797.5,394.5938 L810.5,394.5938 C824.0484,394.5938 935.5609,553.8768 975.6851,611.83 " fill="none" style="stroke:#000000;stroke-width:1.0;stroke-dasharray:3.0,3.0;"/><path d="M973.1915,613.5545 L976.9785,613.7002 L978.1787,610.1055 L979.9964,618.0641 L973.1915,613.5545 " fill="#000000" style="stroke:#000000;stroke-width:1.0;"/><ellipse cx="797.5" cy="394.5938" fill="#000000" rx="3" ry="3" style="stroke:#000000;stroke-width:1.0;"/><path d="M523.5,266.5938 L536.5,266.5938 C593.1967,266.5938 646.8212,305.5698 682.1775,338.7211 " fill="none" style="stroke:#000000;stroke-width:1.0;stroke-dasharray:3.0,3.0;"/><path d="M680.072,340.9273 L683.8321,340.3002 L684.283,336.515 L687.6928,343.9848 L680.072,340.9273 " fill="#000000" style="stroke:#000000;stroke-width:1.0;"/><ellipse cx="523.5" cy="266.5938" fill="#000000" rx="3" ry="3" style="stroke:#000000;stroke-width:1.0;"/><path d="M398,198.5938 L411,198.5938 C430.604,198.5938 480.4522,223.5636 506.7191,237.4842 " fill="none" style="stroke:#000000;stroke-width:1.0;stroke-dasharray:3.0,3.0;"/><path d="M505.2777,240.1796 L508.7407,238.5652 L508.1604,234.7887 L513.4577,241.0875 L505.2777,240.1796 " fill="#000000" style="stroke:#000000;stroke-width:1.0;"/><ellipse cx="398" cy="198.5938" fill="#000000" rx="3" ry="3" style="stroke:#000000;stroke-width:1.0;"/><!--SRC=[lLRRRjf047ttLwnuQIfnyGqmVahQj59fKAj0yj0giXPx35kjTztTDGsj-FVkcjYGG0Bf9JnOQEQScJcpCskVIeM5-YOvitvP23L8qWXHmtNieEi6FMTWfobE7DSF4gSV-uxN1UZsqaRJO6KnpOXIa4HObIpRzLfsl-KE9guRUa7ekb_MIC9a3h7YGiDCcZgHutf-jzSF1dO9r7Q6Cp2U8PypTCwXeSshTJhDXuS1x47GxtLzptNs1NWbqRXarK4mapz0I0tuMiBNmRGZ9K2JEdffabmONKvpOxghkh5b4f0QMq9apcEYo8BB23D58i9Yo1MNss2rpClYie8gabE8uZadSLcV-QqgQ6DjtzIvNMi9e7WAr8HIG37AkFnU40K2RsNR56SmqHQcXgpk_jtKYR5IE9vdmDGJoGjHffuhbSkmqu5Rd6anxPXddIr-fzlEsUn-GTNff5nnjD0ep32Ys5H5KQmRo1ueI436WkIAS5Rp4ZYAMZMRP7W6zrsI_3Gk-ub6LEpg9Aoj0pfYQjoTgN7tJ4sC1GCLPPYHlA0urYeZJ8bft_x1MOAC6D-Tbodd5B1fKOgfX1qLbV-PAhmT5TwXsJTZpnBot-SURXLXvahPD_2rStF0pGFnz1dCYiSMg7Q-qEPu1pQdqeToB0cb_AYTgKd0zlEUjJ3DlnBe72zGo_W3UJki5nJd7YiEzDlNx3pEYDduPyjyal-2Wlq3WglrGKkqVsqVqNgGzo-l-BkxKJzlh9LbdUfRhFmkiZvJ_Jw_6btebuwGkaBajFMdZj_sJyPOeRDS8Bk772VqlD2rqTdb11dtQ-jaz66292z434XVaKgGQM4KlhQ6U87HPQ6_4Z88qQSSsF3yOsL0xzY22CvCQwtXzMW3wFcjDqIXCGXT2ReUMUUGOdsZQaRC4y9c8RgQl6y5reNfc-v8g8V4UijrNB7Kll5l]--></g></svg>