<?xml version="1.0" encoding="us-ascii" standalone="no"?><svg xmlns="http://www.w3.org/2000/svg" xmlns:xlink="http://www.w3.org/1999/xlink" contentStyleType="text/css" height="418px" preserveAspectRatio="none" style="width:1213px;height:418px;background:#FFFFFF;" version="1.1" viewBox="0 0 1213 418" width="1213px" zoomAndPan="magnify"><defs/><g><rect fill="#F1F1F1" height="101.4844" rx="5" ry="5" style="stroke:#F1F1F1;stroke-width:1.5;" width="290" x="10" y="88.8516"/><text fill="#000000" font-family="sans-serif" font-size="14" font-weight="bold" lengthAdjust="spacing" textLength="95" x="15" y="103.8467">response_id</text><text fill="#000000" font-family="sans-serif" font-size="14" lengthAdjust="spacing" textLength="62" x="130" y="103.8467">218...56f</text><line style="stroke:#000000;stroke-width:1.0;" x1="125" x2="125" y1="88.8516" y2="109.1484"/><line style="stroke:#000000;stroke-width:1.0;" x1="10" x2="300" y1="109.1484" y2="109.1484"/><text fill="#000000" font-family="sans-serif" font-size="14" font-weight="bold" lengthAdjust="spacing" textLength="105" x="15" y="124.1436">submitted_at</text><text fill="#000000" font-family="sans-serif" font-size="14" lengthAdjust="spacing" textLength="165" x="130" y="124.1436">2023-07-29T22:38:22Z</text><line style="stroke:#000000;stroke-width:1.0;" x1="125" x2="125" y1="109.1484" y2="129.4453"/><line style="stroke:#000000;stroke-width:1.0;" x1="10" x2="300" y1="129.4453" y2="129.4453"/><text fill="#000000" font-family="sans-serif" font-size="14" font-weight="bold" lengthAdjust="spacing" textLength="75" x="15" y="144.4404">inspector</text><text fill="#000000" font-family="sans-serif" font-size="14" lengthAdjust="spacing" textLength="12" x="130" y="144.4404">&#160;&#160;&#160;</text><line style="stroke:#000000;stroke-width:1.0;" x1="125" x2="125" y1="129.4453" y2="149.7422"/><line style="stroke:#000000;stroke-width:1.0;" x1="10" x2="300" y1="149.7422" y2="149.7422"/><text fill="#000000" font-family="sans-serif" font-size="14" font-weight="bold" lengthAdjust="spacing" textLength="42" x="15" y="164.7373">store</text><text fill="#000000" font-family="sans-serif" font-size="14" lengthAdjust="spacing" textLength="12" x="130" y="164.7373">&#160;&#160;&#160;</text><line style="stroke:#000000;stroke-width:1.0;" x1="125" x2="125" y1="149.7422" y2="170.0391"/><line style="stroke:#000000;stroke-width:1.0;" x1="10" x2="300" y1="170.0391" y2="170.0391"/><text fill="#000000" font-family="sans-serif" font-size="14" font-weight="bold" lengthAdjust="spacing" textLength="65" x="15" y="185.0342">answers</text><text fill="#000000" font-family="sans-serif" font-size="14" lengthAdjust="spacing" textLength="12" x="130" y="185.0342">&#160;&#160;&#160;</text><line style="stroke:#000000;stroke-width:1.0;" x1="125" x2="125" y1="170.0391" y2="190.3359"/><rect fill="none" height="101.4844" rx="5" ry="5" style="stroke:#000000;stroke-width:1.5;" width="290" x="10" y="88.8516"/><rect fill="#F1F1F1" height="40.5938" rx="5" ry="5" style="stroke:#F1F1F1;stroke-width:1.5;" width="154" x="337" y="80.0938"/><text fill="#000000" font-family="sans-serif" font-size="14" font-weight="bold" lengthAdjust="spacing" textLength="15" x="342" y="95.0889">id</text><text fill="#000000" font-family="sans-serif" font-size="14" lengthAdjust="spacing" textLength="90" x="396" y="95.0889">1234567890</text><line style="stroke:#000000;stroke-width:1.0;" x1="391" x2="391" y1="80.0938" y2="100.3906"/><line style="stroke:#000000;stroke-width:1.0;" x1="337" x2="491" y1="100.3906" y2="100.3906"/><text fill="#000000" font-family="sans-serif" font-size="14" font-weight="bold" lengthAdjust="spacing" textLength="44" x="342" y="115.3857">name</text><text fill="#000000" font-family="sans-serif" font-size="14" lengthAdjust="spacing" textLength="64" x="396" y="115.3857">John Doe</text><line style="stroke:#000000;stroke-width:1.0;" x1="391" x2="391" y1="100.3906" y2="120.6875"/><rect fill="none" height="40.5938" rx="5" ry="5" style="stroke:#000000;stroke-width:1.5;" width="154" x="337" y="80.0938"/><rect fill="#F1F1F1" height="40.5938" rx="5" ry="5" style="stroke:#F1F1F1;stroke-width:1.5;" width="154" x="337" y="139.0938"/><text fill="#000000" font-family="sans-serif" font-size="14" font-weight="bold" lengthAdjust="spacing" textLength="15" x="342" y="154.0889">id</text><text fill="#000000" font-family="sans-serif" font-size="14" lengthAdjust="spacing" textLength="90" x="396" y="154.0889">0987654321</text><line style="stroke:#000000;stroke-width:1.0;" x1="391" x2="391" y1="139.0938" y2="159.3906"/><line style="stroke:#000000;stroke-width:1.0;" x1="337" x2="491" y1="159.3906" y2="159.3906"/><text fill="#000000" font-family="sans-serif" font-size="14" font-weight="bold" lengthAdjust="spacing" textLength="44" x="342" y="174.3857">name</text><text fill="#000000" font-family="sans-serif" font-size="14" lengthAdjust="spacing" textLength="84" x="396" y="174.3857">John's Store</text><line style="stroke:#000000;stroke-width:1.0;" x1="391" x2="391" y1="159.3906" y2="179.6875"/><rect fill="none" height="40.5938" rx="5" ry="5" style="stroke:#000000;stroke-width:1.5;" width="154" x="337" y="139.0938"/><rect fill="#F1F1F1" height="60.8906" rx="5" ry="5" style="stroke:#F1F1F1;stroke-width:1.5;" width="22" x="403" y="198.0938"/><text fill="#000000" font-family="sans-serif" font-size="14" lengthAdjust="spacing" textLength="12" x="408" y="213.0889">&#160;&#160;&#160;</text><line style="stroke:#000000;stroke-width:1.0;" x1="403" x2="425" y1="218.3906" y2="218.3906"/><text fill="#000000" font-family="sans-serif" font-size="14" lengthAdjust="spacing" textLength="12" x="408" y="233.3857">&#160;&#160;&#160;</text><line style="stroke:#000000;stroke-width:1.0;" x1="403" x2="425" y1="238.6875" y2="238.6875"/><text fill="#000000" font-family="sans-serif" font-size="14" lengthAdjust="spacing" textLength="12" x="408" y="253.6826">&#160;&#160;&#160;</text><rect fill="none" height="60.8906" rx="5" ry="5" style="stroke:#000000;stroke-width:1.5;" width="22" x="403" y="198.0938"/><rect fill="#F1F1F1" height="60.8906" rx="5" ry="5" style="stroke:#F1F1F1;stroke-width:1.5;" width="133" x="532.5" y="99.0938"/><text fill="#000000" font-family="sans-serif" font-size="14" font-weight="bold" lengthAdjust="spacing" textLength="36" x="537.5" y="114.0889">field</text><text fill="#000000" font-family="sans-serif" font-size="14" lengthAdjust="spacing" textLength="12" x="606.5" y="114.0889">&#160;&#160;&#160;</text><line style="stroke:#000000;stroke-width:1.0;" x1="601.5" x2="601.5" y1="99.0938" y2="119.3906"/><line style="stroke:#000000;stroke-width:1.0;" x1="532.5" x2="665.5" y1="119.3906" y2="119.3906"/><text fill="#000000" font-family="sans-serif" font-size="14" font-weight="bold" lengthAdjust="spacing" textLength="59" x="537.5" y="134.3857">choices</text><text fill="#000000" font-family="sans-serif" font-size="14" lengthAdjust="spacing" textLength="12" x="606.5" y="134.3857">&#160;&#160;&#160;</text><line style="stroke:#000000;stroke-width:1.0;" x1="601.5" x2="601.5" y1="119.3906" y2="139.6875"/><line style="stroke:#000000;stroke-width:1.0;" x1="532.5" x2="665.5" y1="139.6875" y2="139.6875"/><text fill="#000000" font-family="sans-serif" font-size="14" font-weight="bold" lengthAdjust="spacing" textLength="36" x="537.5" y="154.6826">type</text><text fill="#000000" font-family="sans-serif" font-size="14" lengthAdjust="spacing" textLength="54" x="606.5" y="154.6826">choices</text><line style="stroke:#000000;stroke-width:1.0;" x1="601.5" x2="601.5" y1="139.6875" y2="159.9844"/><rect fill="none" height="60.8906" rx="5" ry="5" style="stroke:#000000;stroke-width:1.5;" width="133" x="532.5" y="99.0938"/><rect fill="#F1F1F1" height="81.1875" rx="5" ry="5" style="stroke:#F1F1F1;stroke-width:1.5;" width="240" x="728.5" y="10"/><text fill="#000000" font-family="sans-serif" font-size="14" font-weight="bold" lengthAdjust="spacing" textLength="32" x="733.5" y="24.9951">sort</text><text fill="#000000" font-family="sans-serif" font-size="14" lengthAdjust="spacing" textLength="9" x="779.5" y="24.9951">1</text><line style="stroke:#000000;stroke-width:1.0;" x1="774.5" x2="774.5" y1="10" y2="30.2969"/><line style="stroke:#000000;stroke-width:1.0;" x1="728.5" x2="968.5" y1="30.2969" y2="30.2969"/><text fill="#000000" font-family="sans-serif" font-size="14" font-weight="bold" lengthAdjust="spacing" textLength="15" x="733.5" y="45.292">id</text><text fill="#000000" font-family="sans-serif" font-size="14" lengthAdjust="spacing" textLength="9" x="779.5" y="45.292">1</text><line style="stroke:#000000;stroke-width:1.0;" x1="774.5" x2="774.5" y1="30.2969" y2="50.5938"/><line style="stroke:#000000;stroke-width:1.0;" x1="728.5" x2="968.5" y1="50.5938" y2="50.5938"/><text fill="#000000" font-family="sans-serif" font-size="14" font-weight="bold" lengthAdjust="spacing" textLength="23" x="733.5" y="65.5889">ref</text><text fill="#000000" font-family="sans-serif" font-size="14" lengthAdjust="spacing" textLength="184" x="779.5" y="65.5889">dispocitivos_anti_inceptos</text><line style="stroke:#000000;stroke-width:1.0;" x1="774.5" x2="774.5" y1="50.5938" y2="70.8906"/><line style="stroke:#000000;stroke-width:1.0;" x1="728.5" x2="968.5" y1="70.8906" y2="70.8906"/><text fill="#000000" font-family="sans-serif" font-size="14" font-weight="bold" lengthAdjust="spacing" textLength="36" x="733.5" y="85.8857">type</text><text fill="#000000" font-family="sans-serif" font-size="14" lengthAdjust="spacing" textLength="112" x="779.5" y="85.8857">multiple_choice</text><line style="stroke:#000000;stroke-width:1.0;" x1="774.5" x2="774.5" y1="70.8906" y2="91.1875"/><rect fill="none" height="81.1875" rx="5" ry="5" style="stroke:#000000;stroke-width:1.5;" width="240" x="728.5" y="10"/><rect fill="#F1F1F1" height="40.5938" rx="5" ry="5" style="stroke:#F1F1F1;stroke-width:1.5;" width="22" x="837.5" y="109.0938"/><text fill="#000000" font-family="sans-serif" font-size="14" lengthAdjust="spacing" textLength="12" x="842.5" y="124.0889">&#160;&#160;&#160;</text><line style="stroke:#000000;stroke-width:1.0;" x1="837.5" x2="859.5" y1="129.3906" y2="129.3906"/><text fill="#000000" font-family="sans-serif" font-size="14" lengthAdjust="spacing" textLength="12" x="842.5" y="144.3857">&#160;&#160;&#160;</text><rect fill="none" height="40.5938" rx="5" ry="5" style="stroke:#000000;stroke-width:1.5;" width="22" x="837.5" y="109.0938"/><rect fill="#F1F1F1" height="40.5938" rx="5" ry="5" style="stroke:#F1F1F1;stroke-width:1.5;" width="174" x="1027" y="79.0938"/><text fill="#000000" font-family="sans-serif" font-size="14" font-weight="bold" lengthAdjust="spacing" textLength="39" x="1032" y="94.0889">label</text><text fill="#000000" font-family="sans-serif" font-size="14" lengthAdjust="spacing" textLength="112" x="1081" y="94.0889">tela mosquitera</text><line style="stroke:#000000;stroke-width:1.0;" x1="1076" x2="1076" y1="79.0938" y2="99.3906"/><line style="stroke:#000000;stroke-width:1.0;" x1="1027" x2="1201" y1="99.3906" y2="99.3906"/><text fill="#000000" font-family="sans-serif" font-size="14" font-weight="bold" lengthAdjust="spacing" textLength="23" x="1032" y="114.3857">ref</text><text fill="#000000" font-family="sans-serif" font-size="14" lengthAdjust="spacing" textLength="115" x="1081" y="114.3857">tela_mosquitera</text><line style="stroke:#000000;stroke-width:1.0;" x1="1076" x2="1076" y1="99.3906" y2="119.6875"/><rect fill="none" height="40.5938" rx="5" ry="5" style="stroke:#000000;stroke-width:1.5;" width="174" x="1027" y="79.0938"/><rect fill="#F1F1F1" height="40.5938" rx="5" ry="5" style="stroke:#F1F1F1;stroke-width:1.5;" width="161" x="1033.5" y="138.0938"/><text fill="#000000" font-family="sans-serif" font-size="14" font-weight="bold" lengthAdjust="spacing" textLength="39" x="1038.5" y="153.0889">label</text><text fill="#000000" font-family="sans-serif" font-size="14" lengthAdjust="spacing" textLength="99" x="1087.5" y="153.0889">malla plastica</text><line style="stroke:#000000;stroke-width:1.0;" x1="1082.5" x2="1082.5" y1="138.0938" y2="158.3906"/><line style="stroke:#000000;stroke-width:1.0;" x1="1033.5" x2="1194.5" y1="158.3906" y2="158.3906"/><text fill="#000000" font-family="sans-serif" font-size="14" font-weight="bold" lengthAdjust="spacing" textLength="23" x="1038.5" y="173.3857">ref</text><text fill="#000000" font-family="sans-serif" font-size="14" lengthAdjust="spacing" textLength="102" x="1087.5" y="173.3857">malla_plastica</text><line style="stroke:#000000;stroke-width:1.0;" x1="1082.5" x2="1082.5" y1="158.3906" y2="178.6875"/><rect fill="none" height="40.5938" rx="5" ry="5" style="stroke:#000000;stroke-width:1.5;" width="161" x="1033.5" y="138.0938"/><rect fill="#F1F1F1" height="60.8906" rx="5" ry="5" style="stroke:#F1F1F1;stroke-width:1.5;" width="142" x="528" y="198.0938"/><text fill="#000000" font-family="sans-serif" font-size="14" font-weight="bold" lengthAdjust="spacing" textLength="36" x="533" y="213.0889">field</text><text fill="#000000" font-family="sans-serif" font-size="14" lengthAdjust="spacing" textLength="12" x="607" y="213.0889">&#160;&#160;&#160;</text><line style="stroke:#000000;stroke-width:1.0;" x1="602" x2="602" y1="198.0938" y2="218.3906"/><line style="stroke:#000000;stroke-width:1.0;" x1="528" x2="670" y1="218.3906" y2="218.3906"/><text fill="#000000" font-family="sans-serif" font-size="14" font-weight="bold" lengthAdjust="spacing" textLength="64" x="533" y="233.3857">boolean</text><text fill="#000000" font-family="sans-serif" font-size="14" lengthAdjust="spacing" textLength="51" x="607" y="233.3857">&#9744; false</text><line style="stroke:#000000;stroke-width:1.0;" x1="602" x2="602" y1="218.3906" y2="238.6875"/><line style="stroke:#000000;stroke-width:1.0;" x1="528" x2="670" y1="238.6875" y2="238.6875"/><text fill="#000000" font-family="sans-serif" font-size="14" font-weight="bold" lengthAdjust="spacing" textLength="36" x="533" y="253.6826">type</text><text fill="#000000" font-family="sans-serif" font-size="14" lengthAdjust="spacing" textLength="58" x="607" y="253.6826">boolean</text><line style="stroke:#000000;stroke-width:1.0;" x1="602" x2="602" y1="238.6875" y2="258.9844"/><rect fill="none" height="60.8906" rx="5" ry="5" style="stroke:#000000;stroke-width:1.5;" width="142" x="528" y="198.0938"/><rect fill="#F1F1F1" height="81.1875" rx="5" ry="5" style="stroke:#F1F1F1;stroke-width:1.5;" width="283" x="707" y="168"/><text fill="#000000" font-family="sans-serif" font-size="14" font-weight="bold" lengthAdjust="spacing" textLength="32" x="712" y="182.9951">sort</text><text fill="#000000" font-family="sans-serif" font-size="14" lengthAdjust="spacing" textLength="9" x="758" y="182.9951">3</text><line style="stroke:#000000;stroke-width:1.0;" x1="753" x2="753" y1="168" y2="188.2969"/><line style="stroke:#000000;stroke-width:1.0;" x1="707" x2="990" y1="188.2969" y2="188.2969"/><text fill="#000000" font-family="sans-serif" font-size="14" font-weight="bold" lengthAdjust="spacing" textLength="15" x="712" y="203.292">id</text><text fill="#000000" font-family="sans-serif" font-size="14" lengthAdjust="spacing" textLength="9" x="758" y="203.292">3</text><line style="stroke:#000000;stroke-width:1.0;" x1="753" x2="753" y1="188.2969" y2="208.5938"/><line style="stroke:#000000;stroke-width:1.0;" x1="707" x2="990" y1="208.5938" y2="208.5938"/><text fill="#000000" font-family="sans-serif" font-size="14" font-weight="bold" lengthAdjust="spacing" textLength="23" x="712" y="223.5889">ref</text><text fill="#000000" font-family="sans-serif" font-size="14" lengthAdjust="spacing" textLength="227" x="758" y="223.5889">carnet_manipulacion_alimentos</text><line style="stroke:#000000;stroke-width:1.0;" x1="753" x2="753" y1="208.5938" y2="228.8906"/><line style="stroke:#000000;stroke-width:1.0;" x1="707" x2="990" y1="228.8906" y2="228.8906"/><text fill="#000000" font-family="sans-serif" font-size="14" font-weight="bold" lengthAdjust="spacing" textLength="36" x="712" y="243.8857">type</text><text fill="#000000" font-family="sans-serif" font-size="14" lengthAdjust="spacing" textLength="49" x="758" y="243.8857">yes_no</text><line style="stroke:#000000;stroke-width:1.0;" x1="753" x2="753" y1="228.8906" y2="249.1875"/><rect fill="none" height="81.1875" rx="5" ry="5" style="stroke:#000000;stroke-width:1.5;" width="283" x="707" y="168"/><rect fill="#F1F1F1" height="60.8906" rx="5" ry="5" style="stroke:#F1F1F1;stroke-width:1.5;" width="118" x="540" y="297.0938"/><text fill="#000000" font-family="sans-serif" font-size="14" font-weight="bold" lengthAdjust="spacing" textLength="36" x="545" y="312.0889">field</text><text fill="#000000" font-family="sans-serif" font-size="14" lengthAdjust="spacing" textLength="12" x="606" y="312.0889">&#160;&#160;&#160;</text><line style="stroke:#000000;stroke-width:1.0;" x1="601" x2="601" y1="297.0938" y2="317.3906"/><line style="stroke:#000000;stroke-width:1.0;" x1="540" x2="658" y1="317.3906" y2="317.3906"/><text fill="#000000" font-family="sans-serif" font-size="14" font-weight="bold" lengthAdjust="spacing" textLength="51" x="545" y="332.3857">choice</text><text fill="#000000" font-family="sans-serif" font-size="14" lengthAdjust="spacing" textLength="12" x="606" y="332.3857">&#160;&#160;&#160;</text><line style="stroke:#000000;stroke-width:1.0;" x1="601" x2="601" y1="317.3906" y2="337.6875"/><line style="stroke:#000000;stroke-width:1.0;" x1="540" x2="658" y1="337.6875" y2="337.6875"/><text fill="#000000" font-family="sans-serif" font-size="14" font-weight="bold" lengthAdjust="spacing" textLength="36" x="545" y="352.6826">type</text><text fill="#000000" font-family="sans-serif" font-size="14" lengthAdjust="spacing" textLength="47" x="606" y="352.6826">choice</text><line style="stroke:#000000;stroke-width:1.0;" x1="601" x2="601" y1="337.6875" y2="357.9844"/><rect fill="none" height="60.8906" rx="5" ry="5" style="stroke:#000000;stroke-width:1.5;" width="118" x="540" y="297.0938"/><rect fill="#F1F1F1" height="81.1875" rx="5" ry="5" style="stroke:#F1F1F1;stroke-width:1.5;" width="207" x="745" y="267"/><text fill="#000000" font-family="sans-serif" font-size="14" font-weight="bold" lengthAdjust="spacing" textLength="32" x="750" y="281.9951">sort</text><text fill="#000000" font-family="sans-serif" font-size="14" lengthAdjust="spacing" textLength="9" x="796" y="281.9951">3</text><line style="stroke:#000000;stroke-width:1.0;" x1="791" x2="791" y1="267" y2="287.2969"/><line style="stroke:#000000;stroke-width:1.0;" x1="745" x2="952" y1="287.2969" y2="287.2969"/><text fill="#000000" font-family="sans-serif" font-size="14" font-weight="bold" lengthAdjust="spacing" textLength="15" x="750" y="302.292">id</text><text fill="#000000" font-family="sans-serif" font-size="14" lengthAdjust="spacing" textLength="9" x="796" y="302.292">3</text><line style="stroke:#000000;stroke-width:1.0;" x1="791" x2="791" y1="287.2969" y2="307.5938"/><line style="stroke:#000000;stroke-width:1.0;" x1="745" x2="952" y1="307.5938" y2="307.5938"/><text fill="#000000" font-family="sans-serif" font-size="14" font-weight="bold" lengthAdjust="spacing" textLength="23" x="750" y="322.5889">ref</text><text fill="#000000" font-family="sans-serif" font-size="14" lengthAdjust="spacing" textLength="151" x="796" y="322.5889">dispocitivos_incendio</text><line style="stroke:#000000;stroke-width:1.0;" x1="791" x2="791" y1="307.5938" y2="327.8906"/><line style="stroke:#000000;stroke-width:1.0;" x1="745" x2="952" y1="327.8906" y2="327.8906"/><text fill="#000000" font-family="sans-serif" font-size="14" font-weight="bold" lengthAdjust="spacing" textLength="36" x="750" y="342.8857">type</text><text fill="#000000" font-family="sans-serif" font-size="14" lengthAdjust="spacing" textLength="112" x="796" y="342.8857">multiple_choice</text><line style="stroke:#000000;stroke-width:1.0;" x1="791" x2="791" y1="327.8906" y2="348.1875"/><rect fill="none" height="81.1875" rx="5" ry="5" style="stroke:#000000;stroke-width:1.5;" width="207" x="745" y="267"/><rect fill="#F1F1F1" height="40.5938" rx="5" ry="5" style="stroke:#F1F1F1;stroke-width:1.5;" width="144" x="776.5" y="366.0938"/><text fill="#000000" font-family="sans-serif" font-size="14" font-weight="bold" lengthAdjust="spacing" textLength="39" x="781.5" y="381.0889">label</text><text fill="#000000" font-family="sans-serif" font-size="14" lengthAdjust="spacing" textLength="85" x="830.5" y="381.0889">matafuegos</text><line style="stroke:#000000;stroke-width:1.0;" x1="825.5" x2="825.5" y1="366.0938" y2="386.3906"/><line style="stroke:#000000;stroke-width:1.0;" x1="776.5" x2="920.5" y1="386.3906" y2="386.3906"/><text fill="#000000" font-family="sans-serif" font-size="14" font-weight="bold" lengthAdjust="spacing" textLength="23" x="781.5" y="401.3857">ref</text><text fill="#000000" font-family="sans-serif" font-size="14" lengthAdjust="spacing" textLength="85" x="830.5" y="401.3857">matafuegos</text><line style="stroke:#000000;stroke-width:1.0;" x1="825.5" x2="825.5" y1="386.3906" y2="406.6875"/><rect fill="none" height="40.5938" rx="5" ry="5" style="stroke:#000000;stroke-width:1.5;" width="144" x="776.5" y="366.0938"/><path d="M288,139.5938 L301,139.5938 C306.784,139.5938 329.0137,132.1393 352.2036,123.7485 " fill="none" style="stroke:#000000;stroke-width:1.0;stroke-dasharray:3.0,3.0;"/><path d="M353.2544,126.6327 L354.3668,122.9605 L351.1529,120.8643 L359.4142,121.1216 L353.2544,126.6327 " fill="#000000" style="stroke:#000000;stroke-width:1.0;"/><ellipse cx="288" cy="139.5938" fill="#000000" rx="3" ry="3" style="stroke:#000000;stroke-width:1.0;"/><path d="M288,159.5938 L301,159.5938 C310.2468,159.5938 319.9212,159.5938 329.5487,159.5938 " fill="none" style="stroke:#000000;stroke-width:1.0;stroke-dasharray:3.0,3.0;"/><path d="M329.5487,162.6745 L331.8592,159.5938 L329.5487,156.513 L337.2506,159.5938 L329.5487,162.6745 " fill="#000000" style="stroke:#000000;stroke-width:1.0;"/><ellipse cx="288" cy="159.5938" fill="#000000" rx="3" ry="3" style="stroke:#000000;stroke-width:1.0;"/><path d="M654.5,109.5938 L667.5,109.5938 C671.1281,109.5938 693.6084,102.6159 721.545,93.4596 " fill="none" style="stroke:#000000;stroke-width:1.0;stroke-dasharray:3.0,3.0;"/><path d="M722.4938,96.3443 L723.7086,92.748 L720.5963,90.5748 L728.757,91.0877 L722.4938,96.3443 " fill="#000000" style="stroke:#000000;stroke-width:1.0;"/><ellipse cx="654.5" cy="109.5938" fill="#000000" rx="3" ry="3" style="stroke:#000000;stroke-width:1.0;"/><path d="M848,119.5938 L861,119.5938 C913.6981,119.5938 972.3901,115.211 1019.9162,110.5488 " fill="none" style="stroke:#000000;stroke-width:1.0;stroke-dasharray:3.0,3.0;"/><path d="M1020.2162,113.5605 L1022.1749,110.3238 L1019.6162,107.5372 L1027.4454,109.7988 L1020.2162,113.5605 " fill="#000000" style="stroke:#000000;stroke-width:1.0;"/><ellipse cx="848" cy="119.5938" fill="#000000" rx="3" ry="3" style="stroke:#000000;stroke-width:1.0;"/><path d="M848,139.5938 L861,139.5938 C915.9771,139.5938 977.4981,144.128 1026.0494,148.7665 " fill="none" style="stroke:#000000;stroke-width:1.0;stroke-dasharray:3.0,3.0;"/><path d="M1025.7516,151.8376 L1028.3528,148.9899 L1026.3473,145.6953 L1033.7273,149.5111 L1025.7516,151.8376 " fill="#000000" style="stroke:#000000;stroke-width:1.0;"/><ellipse cx="848" cy="139.5938" fill="#000000" rx="3" ry="3" style="stroke:#000000;stroke-width:1.0;"/><path d="M654.5,129.5938 L667.5,129.5938 C727.0461,129.5938 797.6418,129.5938 830.0765,129.5938 " fill="none" style="stroke:#000000;stroke-width:1.0;stroke-dasharray:3.0,3.0;"/><path d="M830.0765,132.6921 L832.4002,129.5938 L830.0765,126.4954 L837.8224,129.5938 L830.0765,132.6921 " fill="#000000" style="stroke:#000000;stroke-width:1.0;"/><ellipse cx="654.5" cy="129.5938" fill="#000000" rx="3" ry="3" style="stroke:#000000;stroke-width:1.0;"/><path d="M413.5,208.5938 L426.5,208.5938 C471.9395,208.5938 518.4749,185.5436 551.6641,164.3449 " fill="none" style="stroke:#000000;stroke-width:1.0;stroke-dasharray:3.0,3.0;"/><path d="M553.3472,166.9271 L553.6008,163.0826 L549.981,161.7626 L558.1197,160.1372 L553.3472,166.9271 " fill="#000000" style="stroke:#000000;stroke-width:1.0;"/><ellipse cx="413.5" cy="208.5938" fill="#000000" rx="3" ry="3" style="stroke:#000000;stroke-width:1.0;"/><path d="M658,208.5938 L671,208.5938 C680.3352,208.5938 689.9473,208.5938 699.6392,208.5938 " fill="none" style="stroke:#000000;stroke-width:1.0;stroke-dasharray:3.0,3.0;"/><path d="M699.6392,211.7082 L701.975,208.5938 L699.6392,205.4793 L707.4252,208.5938 L699.6392,211.7082 " fill="#000000" style="stroke:#000000;stroke-width:1.0;"/><ellipse cx="658" cy="208.5938" fill="#000000" rx="3" ry="3" style="stroke:#000000;stroke-width:1.0;"/><path d="M413.5,228.5938 L426.5,228.5938 C457.201,228.5938 490.9844,228.5938 520.4225,228.5938 " fill="none" style="stroke:#000000;stroke-width:1.0;stroke-dasharray:3.0,3.0;"/><path d="M520.4225,231.7068 L522.7573,228.5938 L520.4225,225.4807 L528.2051,228.5938 L520.4225,231.7068 " fill="#000000" style="stroke:#000000;stroke-width:1.0;"/><ellipse cx="413.5" cy="228.5938" fill="#000000" rx="3" ry="3" style="stroke:#000000;stroke-width:1.0;"/><path d="M646.5,307.5938 L659.5,307.5938 C684.8177,307.5938 712.0481,307.5938 737.7231,307.5938 " fill="none" style="stroke:#000000;stroke-width:1.0;stroke-dasharray:3.0,3.0;"/><path d="M737.7231,310.6156 L739.9894,307.5938 L737.7231,304.5719 L745.2776,307.5938 L737.7231,310.6156 " fill="#000000" style="stroke:#000000;stroke-width:1.0;"/><ellipse cx="646.5" cy="307.5938" fill="#000000" rx="3" ry="3" style="stroke:#000000;stroke-width:1.0;"/><path d="M646.5,327.5938 L659.5,327.5938 C684.4691,327.5938 683.8407,348.2608 707,357.5938 C726.6125,365.4974 748.663,371.3444 769.3974,375.6309 " fill="none" style="stroke:#000000;stroke-width:1.0;stroke-dasharray:3.0,3.0;"/><path d="M768.7936,378.66 L771.6692,376.0838 L770.0012,372.6019 L776.9699,377.1405 L768.7936,378.66 " fill="#000000" style="stroke:#000000;stroke-width:1.0;"/><ellipse cx="646.5" cy="327.5938" fill="#000000" rx="3" ry="3" style="stroke:#000000;stroke-width:1.0;"/><path d="M413.5,248.5938 L426.5,248.5938 C471.9395,248.5938 518.4749,271.6439 551.6641,292.8426 " fill="none" style="stroke:#000000;stroke-width:1.0;stroke-dasharray:3.0,3.0;"/><path d="M549.981,295.4249 L553.6008,294.1049 L553.3472,290.2604 L558.1197,297.0503 L549.981,295.4249 " fill="#000000" style="stroke:#000000;stroke-width:1.0;"/><ellipse cx="413.5" cy="248.5938" fill="#000000" rx="3" ry="3" style="stroke:#000000;stroke-width:1.0;"/><path d="M288,180.5938 L301,180.5938 C320.604,180.5938 370.4522,205.5636 396.7191,219.4842 " fill="none" style="stroke:#000000;stroke-width:1.0;stroke-dasharray:3.0,3.0;"/><path d="M395.2777,222.1796 L398.7407,220.5652 L398.1604,216.7887 L403.4577,223.0875 L395.2777,222.1796 " fill="#000000" style="stroke:#000000;stroke-width:1.0;"/><ellipse cx="288" cy="180.5938" fill="#000000" rx="3" ry="3" style="stroke:#000000;stroke-width:1.0;"/><!--SRC=[jLHTQzim57tNhn1-MGjDYEry-gdTii6oXeqcxSD6COfzdMh8aYV9AM7al-_AIMndoM0mbWSJpZqwElSUIRV6Ccs_6oK98Jy9fPu6KoXf8EQf5r4lyCVTRdSmpBmRLpNbAkVMGXepMvLxGTZfZJh1P1a4KJYEWk3hdicbAI2nIYFD2JkeKlI3i3yOZiQJNaL4NB8SN6McNYITAl0Gtkstm_Nmkq1lCXuD1_qmy2y9l35qKQsgHPWqhw0D4hvLzBqO5Z8E8gtLAyWexVhoRnheuDfhGHeoXwKSHvLmopVAn4nQ7dEPG66LQPFjjgZCvQMml10G9o-A9vK_zziTgTuURtoslLO4mLOWd9G5mMYkp8-IMz2ijLjZpd7Y5gUcx6ukg3VQEHCeNWXcB4_OXQuhGbmJ6jt3l-UweMFdnyP8Q_k_224y2o6yO2TXMeADSoPvKGgMS2LZ9dWEyWyvRC74KfsFVwMK02QHaZ5XuAoBO_s_T75obDmfaYbN_t2AJgsqmhKiAs5zEfawsBfufdeQvM46-7qcEtmuRj7k_Wtv8l0UFCxlwGPl74P1_Iu-4Vrk_sh1BBqhDEqDgUz7OHW5FNhtiAIkV4skvX-NrAXI9q1n5bRpLMbn_JMPiGsZ3oNUhXmY-ha0EPj-EWBqlTnmhQHBcyoUvWrXsE-yvPOkGACJ-ZGdKyWOpWvN92hbSXtHn-M7pfZSCxaksHgrGP9t2dNr5ckBNm00]--></g></svg>