<?xml version="1.0" encoding="us-ascii" standalone="no"?><svg xmlns="http://www.w3.org/2000/svg" xmlns:xlink="http://www.w3.org/1999/xlink" contentStyleType="text/css" height="383px" preserveAspectRatio="none" style="width:2873px;height:383px;background:#FFFFFF;" version="1.1" viewBox="0 0 2873 383" width="2873px" zoomAndPan="magnify"><defs/><g><g id="elem_ir"><rect fill="#F1F1F1" height="60.8906" style="stroke:#181818;stroke-width:0.5;" width="332" x="489" y="7"/><text fill="#000000" font-family="sans-serif" font-size="14" lengthAdjust="spacing" textLength="142" x="584" y="21.9951">InspectionResponse</text><line style="stroke:#181818;stroke-width:0.5;" x1="490" x2="820" y1="27.2969" y2="27.2969"/><text fill="#000000" font-family="sans-serif" font-size="14" lengthAdjust="spacing" textLength="320" x="495" y="44.292">id = "21085286190ffad1248d17c4135ee56f"</text><text fill="#000000" font-family="sans-serif" font-size="14" lengthAdjust="spacing" textLength="289" x="495" y="60.5889">submitted_at = "2023-07-29T22:38:22Z"</text></g><g id="elem_inspector"><rect fill="#F1F1F1" height="60.8906" style="stroke:#181818;stroke-width:0.5;" width="149" x="202.5" y="145"/><text fill="#000000" font-family="sans-serif" font-size="14" lengthAdjust="spacing" textLength="66" x="244" y="159.9951">Inspector</text><line style="stroke:#181818;stroke-width:0.5;" x1="203.5" x2="350.5" y1="165.2969" y2="165.2969"/><text fill="#000000" font-family="sans-serif" font-size="14" lengthAdjust="spacing" textLength="135" x="208.5" y="182.292">id = "1234567890"</text><text fill="#000000" font-family="sans-serif" font-size="14" lengthAdjust="spacing" textLength="137" x="208.5" y="198.5889">name = "John Doe"</text></g><g id="elem_store"><rect fill="#F1F1F1" height="60.8906" style="stroke:#181818;stroke-width:0.5;" width="169" x="386.5" y="145"/><text fill="#000000" font-family="sans-serif" font-size="14" lengthAdjust="spacing" textLength="38" x="452" y="159.9951">Store</text><line style="stroke:#181818;stroke-width:0.5;" x1="387.5" x2="554.5" y1="165.2969" y2="165.2969"/><text fill="#000000" font-family="sans-serif" font-size="14" lengthAdjust="spacing" textLength="135" x="392.5" y="182.292">id = "0987654321"</text><text fill="#000000" font-family="sans-serif" font-size="14" lengthAdjust="spacing" textLength="157" x="392.5" y="198.5889">name = "John's Store"</text></g><g id="elem_answer1"><rect fill="#F1F1F1" height="44.5938" style="stroke:#181818;stroke-width:0.5;" width="129" x="590.5" y="153"/><text fill="#000000" font-family="sans-serif" font-size="14" lengthAdjust="spacing" textLength="113" x="598.5" y="167.9951">ControlAnswer1</text><line style="stroke:#181818;stroke-width:0.5;" x1="591.5" x2="718.5" y1="173.2969" y2="173.2969"/><text fill="#000000" font-family="sans-serif" font-size="14" lengthAdjust="spacing" textLength="117" x="596.5" y="190.292">type = "choices"</text></g><g id="elem_field1"><rect fill="#F1F1F1" height="93.4844" style="stroke:#181818;stroke-width:0.5;" width="248" x="7" y="283"/><text fill="#000000" font-family="sans-serif" font-size="14" lengthAdjust="spacing" textLength="95" x="83.5" y="297.9951">AnswerField1</text><line style="stroke:#181818;stroke-width:0.5;" x1="8" x2="254" y1="303.2969" y2="303.2969"/><text fill="#000000" font-family="sans-serif" font-size="14" lengthAdjust="spacing" textLength="56" x="13" y="320.292">sort = 1</text><text fill="#000000" font-family="sans-serif" font-size="14" lengthAdjust="spacing" textLength="54" x="13" y="336.5889">id = "1"</text><text fill="#000000" font-family="sans-serif" font-size="14" lengthAdjust="spacing" textLength="236" x="13" y="352.8857">ref = "dispocitivos_anti_inceptos"</text><text fill="#000000" font-family="sans-serif" font-size="14" lengthAdjust="spacing" textLength="175" x="13" y="369.1826">type = "multiple_choice"</text></g><g id="elem_choice1a"><rect fill="#F1F1F1" height="60.8906" style="stroke:#181818;stroke-width:0.5;" width="191" x="290.5" y="299"/><text fill="#000000" font-family="sans-serif" font-size="14" lengthAdjust="spacing" textLength="119" x="326.5" y="313.9951">AnswerChoice1a</text><line style="stroke:#181818;stroke-width:0.5;" x1="291.5" x2="480.5" y1="319.2969" y2="319.2969"/><text fill="#000000" font-family="sans-serif" font-size="14" lengthAdjust="spacing" textLength="179" x="296.5" y="336.292">label = "tela mosquitera"</text><text fill="#000000" font-family="sans-serif" font-size="14" lengthAdjust="spacing" textLength="167" x="296.5" y="352.5889">ref = "tela_mosquitera"</text></g><g id="elem_attachment1a"><rect fill="#F1F1F1" height="93.4844" style="stroke:#181818;stroke-width:0.5;" width="276" x="517" y="283"/><text fill="#000000" font-family="sans-serif" font-size="14" lengthAdjust="spacing" textLength="153" x="578.5" y="297.9951">AnswerAttachment1a</text><line style="stroke:#181818;stroke-width:0.5;" x1="518" x2="792" y1="303.2969" y2="303.2969"/><text fill="#000000" font-family="sans-serif" font-size="14" lengthAdjust="spacing" textLength="185" x="523" y="320.292">url = "attachments/5.png"</text><text fill="#000000" font-family="sans-serif" font-size="14" lengthAdjust="spacing" textLength="108" x="523" y="336.5889">type = "image"</text><text fill="#000000" font-family="sans-serif" font-size="14" lengthAdjust="spacing" textLength="264" x="523" y="352.8857">name = "foto ventana lateral cocina"</text><text fill="#000000" font-family="sans-serif" font-size="14" lengthAdjust="spacing" textLength="56" x="523" y="369.1826">size = 0</text></g><g id="elem_answer2"><rect fill="#F1F1F1" height="60.8906" style="stroke:#181818;stroke-width:0.5;" width="133" x="851.5" y="145"/><text fill="#000000" font-family="sans-serif" font-size="14" lengthAdjust="spacing" textLength="113" x="861.5" y="159.9951">ControlAnswer2</text><line style="stroke:#181818;stroke-width:0.5;" x1="852.5" x2="983.5" y1="165.2969" y2="165.2969"/><text fill="#000000" font-family="sans-serif" font-size="14" lengthAdjust="spacing" textLength="121" x="857.5" y="182.292">type = "boolean"</text><text fill="#000000" font-family="sans-serif" font-size="14" lengthAdjust="spacing" textLength="112" x="857.5" y="198.5889">boolean = false</text></g><g id="elem_field2"><rect fill="#F1F1F1" height="93.4844" style="stroke:#181818;stroke-width:0.5;" width="291" x="828.5" y="283"/><text fill="#000000" font-family="sans-serif" font-size="14" lengthAdjust="spacing" textLength="95" x="926.5" y="297.9951">AnswerField2</text><line style="stroke:#181818;stroke-width:0.5;" x1="829.5" x2="1118.5" y1="303.2969" y2="303.2969"/><text fill="#000000" font-family="sans-serif" font-size="14" lengthAdjust="spacing" textLength="56" x="834.5" y="320.292">sort = 2</text><text fill="#000000" font-family="sans-serif" font-size="14" lengthAdjust="spacing" textLength="54" x="834.5" y="336.5889">id = "2"</text><text fill="#000000" font-family="sans-serif" font-size="14" lengthAdjust="spacing" textLength="279" x="834.5" y="352.8857">ref = "carnet_manipulacion_alimentos"</text><text fill="#000000" font-family="sans-serif" font-size="14" lengthAdjust="spacing" textLength="112" x="834.5" y="369.1826">type = "yes_no"</text></g><g id="elem_answer3"><rect fill="#F1F1F1" height="44.5938" style="stroke:#181818;stroke-width:0.5;" width="129" x="1703.5" y="153"/><text fill="#000000" font-family="sans-serif" font-size="14" lengthAdjust="spacing" textLength="113" x="1711.5" y="167.9951">ControlAnswer3</text><line style="stroke:#181818;stroke-width:0.5;" x1="1704.5" x2="1831.5" y1="173.2969" y2="173.2969"/><text fill="#000000" font-family="sans-serif" font-size="14" lengthAdjust="spacing" textLength="117" x="1709.5" y="190.292">type = "choices"</text></g><g id="elem_field3"><rect fill="#F1F1F1" height="93.4844" style="stroke:#181818;stroke-width:0.5;" width="222" x="1154" y="283"/><text fill="#000000" font-family="sans-serif" font-size="14" lengthAdjust="spacing" textLength="95" x="1217.5" y="297.9951">AnswerField3</text><line style="stroke:#181818;stroke-width:0.5;" x1="1155" x2="1375" y1="303.2969" y2="303.2969"/><text fill="#000000" font-family="sans-serif" font-size="14" lengthAdjust="spacing" textLength="56" x="1160" y="320.292">sort = 3</text><text fill="#000000" font-family="sans-serif" font-size="14" lengthAdjust="spacing" textLength="54" x="1160" y="336.5889">id = "3"</text><text fill="#000000" font-family="sans-serif" font-size="14" lengthAdjust="spacing" textLength="210" x="1160" y="352.8857">ref = "dispocitivos_incendios"</text><text fill="#000000" font-family="sans-serif" font-size="14" lengthAdjust="spacing" textLength="175" x="1160" y="369.1826">type = "multiple_choice"</text></g><g id="elem_choice3a"><rect fill="#F1F1F1" height="60.8906" style="stroke:#181818;stroke-width:0.5;" width="134" x="1411" y="299"/><text fill="#000000" font-family="sans-serif" font-size="14" lengthAdjust="spacing" textLength="119" x="1418.5" y="313.9951">AnswerChoice3a</text><line style="stroke:#181818;stroke-width:0.5;" x1="1412" x2="1544" y1="319.2969" y2="319.2969"/><text fill="#000000" font-family="sans-serif" font-size="14" lengthAdjust="spacing" textLength="122" x="1417" y="336.292">label = "extintor"</text><text fill="#000000" font-family="sans-serif" font-size="14" lengthAdjust="spacing" textLength="107" x="1417" y="352.5889">ref = "extintor"</text></g><g id="elem_choice3b"><rect fill="#F1F1F1" height="60.8906" style="stroke:#181818;stroke-width:0.5;" width="153" x="1580.5" y="299"/><text fill="#000000" font-family="sans-serif" font-size="14" lengthAdjust="spacing" textLength="119" x="1597.5" y="313.9951">AnswerChoice3b</text><line style="stroke:#181818;stroke-width:0.5;" x1="1581.5" x2="1732.5" y1="319.2969" y2="319.2969"/><text fill="#000000" font-family="sans-serif" font-size="14" lengthAdjust="spacing" textLength="141" x="1586.5" y="336.292">label = "manguera"</text><text fill="#000000" font-family="sans-serif" font-size="14" lengthAdjust="spacing" textLength="126" x="1586.5" y="352.5889">ref = "manguera"</text></g><g id="elem_attachment3a"><rect fill="#F1F1F1" height="93.4844" style="stroke:#181818;stroke-width:0.5;" width="222" x="1769" y="283"/><text fill="#000000" font-family="sans-serif" font-size="14" lengthAdjust="spacing" textLength="153" x="1803.5" y="297.9951">AnswerAttachment3a</text><line style="stroke:#181818;stroke-width:0.5;" x1="1770" x2="1990" y1="303.2969" y2="303.2969"/><text fill="#000000" font-family="sans-serif" font-size="14" lengthAdjust="spacing" textLength="185" x="1775" y="320.292">url = "attachments/3.png"</text><text fill="#000000" font-family="sans-serif" font-size="14" lengthAdjust="spacing" textLength="108" x="1775" y="336.5889">type = "image"</text><text fill="#000000" font-family="sans-serif" font-size="14" lengthAdjust="spacing" textLength="210" x="1775" y="352.8857">name = "foto extintor pasillo"</text><text fill="#000000" font-family="sans-serif" font-size="14" lengthAdjust="spacing" textLength="56" x="1775" y="369.1826">size = 0</text></g><g id="elem_attachment3b"><rect fill="#F1F1F1" height="93.4844" style="stroke:#181818;stroke-width:0.5;" width="212" x="2026" y="283"/><text fill="#000000" font-family="sans-serif" font-size="14" lengthAdjust="spacing" textLength="153" x="2055.5" y="297.9951">AnswerAttachment3b</text><line style="stroke:#181818;stroke-width:0.5;" x1="2027" x2="2237" y1="303.2969" y2="303.2969"/><text fill="#000000" font-family="sans-serif" font-size="14" lengthAdjust="spacing" textLength="185" x="2032" y="320.292">url = "attachments/1.png"</text><text fill="#000000" font-family="sans-serif" font-size="14" lengthAdjust="spacing" textLength="108" x="2032" y="336.5889">type = "image"</text><text fill="#000000" font-family="sans-serif" font-size="14" lengthAdjust="spacing" textLength="200" x="2032" y="352.8857">name = "foto extintor patio"</text><text fill="#000000" font-family="sans-serif" font-size="14" lengthAdjust="spacing" textLength="56" x="2032" y="369.1826">size = 0</text></g><g id="elem_attachment3c"><rect fill="#F1F1F1" height="93.4844" style="stroke:#181818;stroke-width:0.5;" width="295" x="2273.5" y="283"/><text fill="#000000" font-family="sans-serif" font-size="14" lengthAdjust="spacing" textLength="152" x="2345" y="297.9951">AnswerAttachment3c</text><line style="stroke:#181818;stroke-width:0.5;" x1="2274.5" x2="2567.5" y1="303.2969" y2="303.2969"/><text fill="#000000" font-family="sans-serif" font-size="14" lengthAdjust="spacing" textLength="185" x="2279.5" y="320.292">url = "attachments/2.png"</text><text fill="#000000" font-family="sans-serif" font-size="14" lengthAdjust="spacing" textLength="108" x="2279.5" y="336.5889">type = "image"</text><text fill="#000000" font-family="sans-serif" font-size="14" lengthAdjust="spacing" textLength="283" x="2279.5" y="352.8857">name = "foto extintor estacionamiento"</text><text fill="#000000" font-family="sans-serif" font-size="14" lengthAdjust="spacing" textLength="56" x="2279.5" y="369.1826">size = 0</text></g><g id="elem_attachment3d"><rect fill="#F1F1F1" height="93.4844" style="stroke:#181818;stroke-width:0.5;" width="262" x="2604" y="283"/><text fill="#000000" font-family="sans-serif" font-size="14" lengthAdjust="spacing" textLength="153" x="2658.5" y="297.9951">AnswerAttachment3d</text><line style="stroke:#181818;stroke-width:0.5;" x1="2605" x2="2865" y1="303.2969" y2="303.2969"/><text fill="#000000" font-family="sans-serif" font-size="14" lengthAdjust="spacing" textLength="185" x="2610" y="320.292">url = "attachments/4.png"</text><text fill="#000000" font-family="sans-serif" font-size="14" lengthAdjust="spacing" textLength="108" x="2610" y="336.5889">type = "image"</text><text fill="#000000" font-family="sans-serif" font-size="14" lengthAdjust="spacing" textLength="250" x="2610" y="352.8857">name = "foto manguera y extintor"</text><text fill="#000000" font-family="sans-serif" font-size="14" lengthAdjust="spacing" textLength="56" x="2610" y="369.1826">size = 0</text></g><!--link ir to inspector--><g id="link_ir_inspector"><path codeLine="101" d="M572.98,68.01 C507.19,91.68 421.2557,122.5986 357.4457,145.5586 " fill="none" id="ir-to-inspector" style="stroke:#181818;stroke-width:1.0;"/><polygon fill="#181818" points="351.8,147.59,361.6227,148.3067,356.5047,145.8972,358.9142,140.7791,351.8,147.59" style="stroke:#181818;stroke-width:1.0;"/></g><!--link ir to store--><g id="link_ir_store"><path codeLine="102" d="M615.07,68.01 C584.32,90.74 546.8058,118.4747 515.9858,141.2447 " fill="none" id="ir-to-store" style="stroke:#181818;stroke-width:1.0;"/><polygon fill="#181818" points="511.16,144.81,520.7756,142.6792,515.1815,141.8389,516.0218,136.2448,511.16,144.81" style="stroke:#181818;stroke-width:1.0;"/></g><!--link ir to answer1--><g id="link_ir_answer1"><path codeLine="103" d="M655,68.01 C655,93.48 655,123.69 655,146.63 " fill="none" id="ir-to-answer1" style="stroke:#181818;stroke-width:1.0;"/><polygon fill="#181818" points="655,152.63,659,143.63,655,147.63,651,143.63,655,152.63" style="stroke:#181818;stroke-width:1.0;"/><text fill="#000000" font-family="sans-serif" font-size="13" lengthAdjust="spacing" textLength="54" x="656" y="111.0669">answers</text></g><!--link ir to answer2--><g id="link_ir_answer2"><path codeLine="104" d="M712.07,68.01 C756.03,90.74 811.21,119.2848 855.26,142.0548 " fill="none" id="ir-to-answer2" style="stroke:#181818;stroke-width:1.0;"/><polygon fill="#181818" points="860.59,144.81,854.4317,137.1239,856.1483,142.514,850.7582,144.2306,860.59,144.81" style="stroke:#181818;stroke-width:1.0;"/><text fill="#000000" font-family="sans-serif" font-size="13" lengthAdjust="spacing" textLength="54" x="804" y="111.0669">answers</text></g><!--link ir to answer3--><g id="link_ir_answer3"><path codeLine="105" d="M821.03,58.79 C1071.15,89.35 1527.4643,145.1123 1697.2843,165.8623 " fill="none" id="ir-to-answer3" style="stroke:#181818;stroke-width:1.0;"/><polygon fill="#181818" points="1703.24,166.59,1694.7916,161.528,1698.2769,165.9836,1693.8213,169.4689,1703.24,166.59" style="stroke:#181818;stroke-width:1.0;"/><text fill="#000000" font-family="sans-serif" font-size="13" lengthAdjust="spacing" textLength="54" x="1280" y="111.0669">answers</text></g><!--link answer1 to field1--><g id="link_answer1_field1"><path codeLine="107" d="M596.99,198.13 C588.97,200.9 580.81,203.6 573,206 C441.42,246.46 405.27,244.87 273,283 C267.15,284.69 266.9359,284.7124 260.9159,286.5224 " fill="none" id="answer1-to-field1" style="stroke:#181818;stroke-width:1.0;"/><polygon fill="#181818" points="255.17,288.25,264.9406,289.4892,259.9583,286.8103,262.6371,281.828,255.17,288.25" style="stroke:#181818;stroke-width:1.0;"/><text fill="#000000" font-family="sans-serif" font-size="13" lengthAdjust="spacing" textLength="29" x="461" y="249.0669">field</text></g><!--link answer1 to choice1a--><g id="link_answer1_choice1a"><path codeLine="108" d="M616.74,198.12 C570.04,224.51 496.0336,266.318 443.6736,295.908 " fill="none" id="answer1-to-choice1a" style="stroke:#181818;stroke-width:1.0;"/><polygon fill="#181818" points="438.45,298.86,448.2534,297.9144,442.803,296.4,444.3174,290.9496,438.45,298.86" style="stroke:#181818;stroke-width:1.0;"/><text fill="#000000" font-family="sans-serif" font-size="13" lengthAdjust="spacing" textLength="49" x="546" y="249.0669">choices</text></g><!--link answer1 to attachment1a--><g id="link_answer1_attachment1a"><path codeLine="109" d="M655,198.28 C655,220.28 655,248.93 655,276.95 " fill="none" id="answer1-to-attachment1a" style="stroke:#181818;stroke-width:1.0;"/><polygon fill="#181818" points="655,282.95,659,273.95,655,277.95,651,273.95,655,282.95" style="stroke:#181818;stroke-width:1.0;"/><text fill="#000000" font-family="sans-serif" font-size="13" lengthAdjust="spacing" textLength="82" x="656" y="249.0669">attachments</text></g><!--link answer2 to field2--><g id="link_answer2_field2"><path codeLine="111" d="M928.93,206.17 C936.95,227.94 945.9153,252.2801 955.0653,277.1101 " fill="none" id="answer2-to-field2" style="stroke:#181818;stroke-width:1.0;"/><polygon fill="#181818" points="957.14,282.74,957.7813,272.912,955.4111,278.0484,950.2748,275.6782,957.14,282.74" style="stroke:#181818;stroke-width:1.0;"/><text fill="#000000" font-family="sans-serif" font-size="13" lengthAdjust="spacing" textLength="29" x="947" y="249.0669">field</text></g><!--link answer3 to field3--><g id="link_answer3_field3"><path codeLine="113" d="M1703.25,193.52 C1628.2,213.56 1500.99,248.51 1393,283 C1387.5,284.76 1387.5651,284.7117 1381.8951,286.5917 " fill="none" id="answer3-to-field3" style="stroke:#181818;stroke-width:1.0;"/><polygon fill="#181818" points="1376.2,288.48,1386.0015,289.4443,1380.9459,286.9064,1383.4838,281.8508,1376.2,288.48" style="stroke:#181818;stroke-width:1.0;"/><text fill="#000000" font-family="sans-serif" font-size="13" lengthAdjust="spacing" textLength="29" x="1548" y="249.0669">field</text></g><!--link answer3 to choice3a--><g id="link_answer3_choice3a"><path codeLine="114" d="M1725.91,198.17 C1684.41,219.59 1619.23,253.35 1563,283 C1553.38,288.08 1548.4529,290.6842 1538.5629,295.9642 " fill="none" id="answer3-to-choice3a" style="stroke:#181818;stroke-width:1.0;"/><polygon fill="#181818" points="1533.27,298.79,1543.0932,298.08,1537.6808,296.4352,1539.3256,291.0228,1533.27,298.79" style="stroke:#181818;stroke-width:1.0;"/><text fill="#000000" font-family="sans-serif" font-size="13" lengthAdjust="spacing" textLength="49" x="1654" y="249.0669">choices</text></g><!--link answer3 to choice3b--><g id="link_answer3_choice3b"><path codeLine="115" d="M1752.1,198.28 C1732.79,224.71 1703.6991,264.5549 1682.1291,294.0849 " fill="none" id="answer3-to-choice3b" style="stroke:#181818;stroke-width:1.0;"/><polygon fill="#181818" points="1678.59,298.93,1687.1287,294.0217,1681.5392,294.8924,1680.6685,289.303,1678.59,298.93" style="stroke:#181818;stroke-width:1.0;"/><text fill="#000000" font-family="sans-serif" font-size="13" lengthAdjust="spacing" textLength="49" x="1724" y="249.0669">choices</text></g><!--link answer3 to attachment3a--><g id="link_answer3_attachment3a"><path codeLine="116" d="M1784.05,198.28 C1800.26,220.28 1822.2304,250.1 1842.8804,278.12 " fill="none" id="answer3-to-attachment3a" style="stroke:#181818;stroke-width:1.0;"/><polygon fill="#181818" points="1846.44,282.95,1844.3206,273.3319,1843.4737,278.925,1837.8806,278.078,1846.44,282.95" style="stroke:#181818;stroke-width:1.0;"/><text fill="#000000" font-family="sans-serif" font-size="13" lengthAdjust="spacing" textLength="82" x="1825" y="249.0669">attachments</text></g><!--link answer3 to attachment3b--><g id="link_answer3_attachment3b"><path codeLine="117" d="M1822.59,198.11 C1850.58,209.27 1885.18,223.21 1916,236 C1952.26,251.05 1986.2766,265.4931 2021.4966,280.6131 " fill="none" id="answer3-to-attachment3b" style="stroke:#181818;stroke-width:1.0;"/><polygon fill="#181818" points="2027.01,282.98,2020.3178,275.754,2022.4155,281.0076,2017.1619,283.1052,2027.01,282.98" style="stroke:#181818;stroke-width:1.0;"/><text fill="#000000" font-family="sans-serif" font-size="13" lengthAdjust="spacing" textLength="82" x="1953" y="249.0669">attachments</text></g><!--link answer3 to attachment3c--><g id="link_answer3_attachment3c"><path codeLine="118" d="M1832.86,189.48 C1926.45,208.48 2104.65,245.67 2255,283 C2260.95,284.48 2261.1882,284.5191 2267.3082,286.0891 " fill="none" id="answer3-to-attachment3c" style="stroke:#181818;stroke-width:1.0;"/><polygon fill="#181818" points="2273.12,287.58,2265.3962,281.4691,2268.2768,286.3376,2263.4083,289.2181,2273.12,287.58" style="stroke:#181818;stroke-width:1.0;"/><text fill="#000000" font-family="sans-serif" font-size="13" lengthAdjust="spacing" textLength="82" x="2123" y="249.0669">attachments</text></g><!--link answer3 to attachment3d--><g id="link_answer3_attachment3d"><path codeLine="119" d="M1832.52,181.22 C1971.51,192.18 2309.02,223.12 2586,283 C2591.82,284.26 2591.9046,284.1932 2597.8646,285.6632 " fill="none" id="answer3-to-attachment3d" style="stroke:#181818;stroke-width:1.0;"/><polygon fill="#181818" points="2603.69,287.1,2595.9097,281.0612,2598.8355,285.9027,2593.994,288.8284,2603.69,287.1" style="stroke:#181818;stroke-width:1.0;"/><text fill="#000000" font-family="sans-serif" font-size="13" lengthAdjust="spacing" textLength="82" x="2410" y="249.0669">attachments</text></g><!--SRC=[dLLDhzGW5DtFho2pSJNQmdI-4arUdZ7HfRfoqr1wEuEXK0jzEXh_kuLEfz0HCy_TvNwT0_S0glWApA3bUwcRtk1AVWJTAAbXYQX6l4M_5WZn4hr6IvmckmplDka-gIfQfdYzAzCjMwSa0yWsrRBFr5rHSsEWpAbnDGacgsIxmllF61_8xe3nb-NYzsAXGc3L3dZZoeDDCLbdc-rkdrW0IMkmtW_g9D5R1K6pJttbG5nRoskIx7VRJROcE9qtUQ7HKEOtUbJIj4eyIFqTsjHrf8FjUffpu-hPIN46EYWTQjvn4ELGM3dJrMdLsbD9fxrPDYrKrYvvV_2C6_waT4wbuJcN31gZzDA3h3jXU2CW7x3_0lte0YbruEooSF225Y1i4mE2ebhfRnqtq5AFX8taVkIc_OCnb9rgaEO2GJs7W-bQ1pBvzQliPIEF_ZPuJO_WZw9IHg6dFfbAsXEru0An_ZoaewVvJvkMH8U4lI7XO4Y5KWAej5qkPk-jgD0G6HkUneRziU7f9dWdncWhmUGrbRpf16Nz5Sgfu7RVuUJEe7EfuZ8ZtWx8SsH69hx4vqkkV4bCPbPXikJ_9p7YIupC90O_39VsMa_8aolMiF0R5c73_e2FNIZMoVKFbPAvIabKfUG-bOxxG0tLN0WLq-SDasBEf8WnIP_Df7-wx-R1vZnOZ0T-9W_Gnjq0MdEh_xiPbND6POpH-Zv6epJG6VbAzCdqVzjgzMRwSaQ7-ph6nVZg7owM3WCu5Y1UO34siU7BRt0OZ21qVQiF5rC7uU2TFNZBAmAU4F0LOJ4IkiR839ruwEGMFGWNaN1mlK9oaRJYlZHsNrevI_i3]--></g></svg>