<?xml version="1.0" encoding="us-ascii" standalone="no"?><svg xmlns="http://www.w3.org/2000/svg" xmlns:xlink="http://www.w3.org/1999/xlink" contentStyleType="text/css" height="505px" preserveAspectRatio="none" style="width:524px;height:505px;background:#FFFFFF;" version="1.1" viewBox="0 0 524 505" width="524px" zoomAndPan="magnify"><defs/><g><!--class InspectionResponse--><g id="elem_InspectionResponse"><rect codeLine="3" fill="#F1F1F1" height="129.4844" id="InspectionResponse" rx="2.5" ry="2.5" style="stroke:#181818;stroke-width:0.5;" width="240" x="91.5" y="7"/><ellipse cx="136.25" cy="23" fill="#ADD1B2" rx="11" ry="11" style="stroke:#181818;stroke-width:1.0;"/><path d="M139.2188,28.6406 Q138.6406,28.9375 138,29.0781 Q137.3594,29.2344 136.6563,29.2344 Q134.1563,29.2344 132.8281,27.5938 Q131.5156,25.9375 131.5156,22.8125 Q131.5156,19.6875 132.8281,18.0313 Q134.1563,16.375 136.6563,16.375 Q137.3594,16.375 138,16.5313 Q138.6563,16.6875 139.2188,16.9844 L139.2188,19.7031 Q138.5938,19.125 138,18.8594 Q137.4063,18.5781 136.7813,18.5781 Q135.4375,18.5781 134.75,19.6563 Q134.0625,20.7188 134.0625,22.8125 Q134.0625,24.9063 134.75,25.9844 Q135.4375,27.0469 136.7813,27.0469 Q137.4063,27.0469 138,26.7813 Q138.5938,26.5 139.2188,25.9219 L139.2188,28.6406 Z " fill="#000000"/><text fill="#000000" font-family="sans-serif" font-size="14" lengthAdjust="spacing" textLength="142" x="156.75" y="27.8467">InspectionResponse</text><line style="stroke:#181818;stroke-width:0.5;" x1="92.5" x2="330.5" y1="39" y2="39"/><rect fill="none" height="6" style="stroke:#C82930;stroke-width:1.0;" width="6" x="99.5" y="49.6484"/><text fill="#000000" font-family="sans-serif" font-size="14" lengthAdjust="spacing" textLength="124" x="111.5" y="55.9951">String responseId</text><rect fill="none" height="6" style="stroke:#C82930;stroke-width:1.0;" width="6" x="99.5" y="65.9453"/><text fill="#000000" font-family="sans-serif" font-size="14" lengthAdjust="spacing" textLength="124" x="111.5" y="72.292">Date submittedAt</text><rect fill="none" height="6" style="stroke:#C82930;stroke-width:1.0;" width="6" x="99.5" y="82.2422"/><text fill="#000000" font-family="sans-serif" font-size="14" lengthAdjust="spacing" textLength="136" x="111.5" y="88.5889">Inspector inspector</text><rect fill="none" height="6" style="stroke:#C82930;stroke-width:1.0;" width="6" x="99.5" y="98.5391"/><text fill="#000000" font-family="sans-serif" font-size="14" lengthAdjust="spacing" textLength="78" x="111.5" y="104.8857">Store store</text><rect fill="none" height="6" style="stroke:#C82930;stroke-width:1.0;" width="6" x="99.5" y="114.8359"/><text fill="#000000" font-family="sans-serif" font-size="14" lengthAdjust="spacing" textLength="214" x="111.5" y="121.1826">List&lt;ControlAnswer&gt; answers</text><line style="stroke:#181818;stroke-width:0.5;" x1="92.5" x2="330.5" y1="128.4844" y2="128.4844"/></g><!--class Inspector--><g id="elem_Inspector"><rect codeLine="11" fill="#F1F1F1" height="80.5938" id="Inspector" rx="2.5" ry="2.5" style="stroke:#181818;stroke-width:0.5;" width="113" x="7" y="220"/><ellipse cx="28.75" cy="236" fill="#ADD1B2" rx="11" ry="11" style="stroke:#181818;stroke-width:1.0;"/><path d="M31.7188,241.6406 Q31.1406,241.9375 30.5,242.0781 Q29.8594,242.2344 29.1563,242.2344 Q26.6563,242.2344 25.3281,240.5938 Q24.0156,238.9375 24.0156,235.8125 Q24.0156,232.6875 25.3281,231.0313 Q26.6563,229.375 29.1563,229.375 Q29.8594,229.375 30.5,229.5313 Q31.1563,229.6875 31.7188,229.9844 L31.7188,232.7031 Q31.0938,232.125 30.5,231.8594 Q29.9063,231.5781 29.2813,231.5781 Q27.9375,231.5781 27.25,232.6563 Q26.5625,233.7188 26.5625,235.8125 Q26.5625,237.9063 27.25,238.9844 Q27.9375,240.0469 29.2813,240.0469 Q29.9063,240.0469 30.5,239.7813 Q31.0938,239.5 31.7188,238.9219 L31.7188,241.6406 Z " fill="#000000"/><text fill="#000000" font-family="sans-serif" font-size="14" lengthAdjust="spacing" textLength="66" x="44.25" y="240.8467">Inspector</text><line style="stroke:#181818;stroke-width:0.5;" x1="8" x2="119" y1="252" y2="252"/><rect fill="none" height="6" style="stroke:#C82930;stroke-width:1.0;" width="6" x="15" y="262.6484"/><text fill="#000000" font-family="sans-serif" font-size="14" lengthAdjust="spacing" textLength="59" x="27" y="268.9951">String id</text><rect fill="none" height="6" style="stroke:#C82930;stroke-width:1.0;" width="6" x="15" y="278.9453"/><text fill="#000000" font-family="sans-serif" font-size="14" lengthAdjust="spacing" textLength="87" x="27" y="285.292">String name</text><line style="stroke:#181818;stroke-width:0.5;" x1="8" x2="119" y1="292.5938" y2="292.5938"/></g><!--class Store--><g id="elem_Store"><rect codeLine="16" fill="#F1F1F1" height="80.5938" id="Store" rx="2.5" ry="2.5" style="stroke:#181818;stroke-width:0.5;" width="113" x="155" y="220"/><ellipse cx="189.35" cy="236" fill="#ADD1B2" rx="11" ry="11" style="stroke:#181818;stroke-width:1.0;"/><path d="M192.3188,241.6406 Q191.7406,241.9375 191.1,242.0781 Q190.4594,242.2344 189.7563,242.2344 Q187.2563,242.2344 185.9281,240.5938 Q184.6156,238.9375 184.6156,235.8125 Q184.6156,232.6875 185.9281,231.0313 Q187.2563,229.375 189.7563,229.375 Q190.4594,229.375 191.1,229.5313 Q191.7563,229.6875 192.3188,229.9844 L192.3188,232.7031 Q191.6938,232.125 191.1,231.8594 Q190.5063,231.5781 189.8813,231.5781 Q188.5375,231.5781 187.85,232.6563 Q187.1625,233.7188 187.1625,235.8125 Q187.1625,237.9063 187.85,238.9844 Q188.5375,240.0469 189.8813,240.0469 Q190.5063,240.0469 191.1,239.7813 Q191.6938,239.5 192.3188,238.9219 L192.3188,241.6406 Z " fill="#000000"/><text fill="#000000" font-family="sans-serif" font-size="14" lengthAdjust="spacing" textLength="38" x="207.65" y="240.8467">Store</text><line style="stroke:#181818;stroke-width:0.5;" x1="156" x2="267" y1="252" y2="252"/><rect fill="none" height="6" style="stroke:#C82930;stroke-width:1.0;" width="6" x="163" y="262.6484"/><text fill="#000000" font-family="sans-serif" font-size="14" lengthAdjust="spacing" textLength="59" x="175" y="268.9951">String id</text><rect fill="none" height="6" style="stroke:#C82930;stroke-width:1.0;" width="6" x="163" y="278.9453"/><text fill="#000000" font-family="sans-serif" font-size="14" lengthAdjust="spacing" textLength="87" x="175" y="285.292">String name</text><line style="stroke:#181818;stroke-width:0.5;" x1="156" x2="267" y1="292.5938" y2="292.5938"/></g><!--class ControlAnswer--><g id="elem_ControlAnswer"><rect codeLine="21" fill="#F1F1F1" height="129.4844" id="ControlAnswer" rx="2.5" ry="2.5" style="stroke:#181818;stroke-width:0.5;" width="181" x="303" y="196"/><ellipse cx="338.25" cy="212" fill="#ADD1B2" rx="11" ry="11" style="stroke:#181818;stroke-width:1.0;"/><path d="M341.2188,217.6406 Q340.6406,217.9375 340,218.0781 Q339.3594,218.2344 338.6563,218.2344 Q336.1563,218.2344 334.8281,216.5938 Q333.5156,214.9375 333.5156,211.8125 Q333.5156,208.6875 334.8281,207.0313 Q336.1563,205.375 338.6563,205.375 Q339.3594,205.375 340,205.5313 Q340.6563,205.6875 341.2188,205.9844 L341.2188,208.7031 Q340.5938,208.125 340,207.8594 Q339.4063,207.5781 338.7813,207.5781 Q337.4375,207.5781 336.75,208.6563 Q336.0625,209.7188 336.0625,211.8125 Q336.0625,213.9063 336.75,214.9844 Q337.4375,216.0469 338.7813,216.0469 Q339.4063,216.0469 340,215.7813 Q340.5938,215.5 341.2188,214.9219 L341.2188,217.6406 Z " fill="#000000"/><text fill="#000000" font-family="sans-serif" font-size="14" lengthAdjust="spacing" textLength="104" x="356.75" y="216.8467">ControlAnswer</text><line style="stroke:#181818;stroke-width:0.5;" x1="304" x2="483" y1="228" y2="228"/><rect fill="none" height="6" style="stroke:#C82930;stroke-width:1.0;" width="6" x="311" y="238.6484"/><text fill="#000000" font-family="sans-serif" font-size="14" lengthAdjust="spacing" textLength="69" x="323" y="244.9951">Field field</text><rect fill="none" height="6" style="stroke:#C82930;stroke-width:1.0;" width="6" x="311" y="254.9453"/><text fill="#000000" font-family="sans-serif" font-size="14" lengthAdjust="spacing" textLength="77" x="323" y="261.292">String type</text><rect fill="none" height="6" style="stroke:#C82930;stroke-width:1.0;" width="6" x="311" y="271.2422"/><text fill="#000000" font-family="sans-serif" font-size="14" lengthAdjust="spacing" textLength="155" x="323" y="277.5889">List&lt;Choice&gt; choices</text><rect fill="none" height="6" style="stroke:#C82930;stroke-width:1.0;" width="6" x="311" y="287.5391"/><text fill="#000000" font-family="sans-serif" font-size="14" lengthAdjust="spacing" textLength="100" x="323" y="293.8857">Choice choice</text><rect fill="none" height="6" style="stroke:#C82930;stroke-width:1.0;" width="6" x="311" y="303.8359"/><text fill="#000000" font-family="sans-serif" font-size="14" lengthAdjust="spacing" textLength="121" x="323" y="310.1826">Boolean boolean</text><line style="stroke:#181818;stroke-width:0.5;" x1="304" x2="483" y1="317.4844" y2="317.4844"/></g><!--class Field--><g id="elem_Field"><rect codeLine="29" fill="#F1F1F1" height="113.1875" id="Field" rx="2.5" ry="2.5" style="stroke:#181818;stroke-width:0.5;" width="103" x="272" y="385"/><ellipse cx="303.65" cy="401" fill="#ADD1B2" rx="11" ry="11" style="stroke:#181818;stroke-width:1.0;"/><path d="M306.6188,406.6406 Q306.0406,406.9375 305.4,407.0781 Q304.7594,407.2344 304.0563,407.2344 Q301.5563,407.2344 300.2281,405.5938 Q298.9156,403.9375 298.9156,400.8125 Q298.9156,397.6875 300.2281,396.0313 Q301.5563,394.375 304.0563,394.375 Q304.7594,394.375 305.4,394.5313 Q306.0563,394.6875 306.6188,394.9844 L306.6188,397.7031 Q305.9938,397.125 305.4,396.8594 Q304.8063,396.5781 304.1813,396.5781 Q302.8375,396.5781 302.15,397.6563 Q301.4625,398.7188 301.4625,400.8125 Q301.4625,402.9063 302.15,403.9844 Q302.8375,405.0469 304.1813,405.0469 Q304.8063,405.0469 305.4,404.7813 Q305.9938,404.5 306.6188,403.9219 L306.6188,406.6406 Z " fill="#000000"/><text fill="#000000" font-family="sans-serif" font-size="14" lengthAdjust="spacing" textLength="34" x="321.35" y="405.8467">Field</text><line style="stroke:#181818;stroke-width:0.5;" x1="273" x2="374" y1="417" y2="417"/><rect fill="none" height="6" style="stroke:#C82930;stroke-width:1.0;" width="6" x="280" y="427.6484"/><text fill="#000000" font-family="sans-serif" font-size="14" lengthAdjust="spacing" textLength="49" x="292" y="433.9951">int sort</text><rect fill="none" height="6" style="stroke:#C82930;stroke-width:1.0;" width="6" x="280" y="443.9453"/><text fill="#000000" font-family="sans-serif" font-size="14" lengthAdjust="spacing" textLength="59" x="292" y="450.292">String id</text><rect fill="none" height="6" style="stroke:#C82930;stroke-width:1.0;" width="6" x="280" y="460.2422"/><text fill="#000000" font-family="sans-serif" font-size="14" lengthAdjust="spacing" textLength="66" x="292" y="466.5889">String ref</text><rect fill="none" height="6" style="stroke:#C82930;stroke-width:1.0;" width="6" x="280" y="476.5391"/><text fill="#000000" font-family="sans-serif" font-size="14" lengthAdjust="spacing" textLength="77" x="292" y="482.8857">String type</text><line style="stroke:#181818;stroke-width:0.5;" x1="273" x2="374" y1="490.1875" y2="490.1875"/></g><!--class Choice--><g id="elem_Choice"><rect codeLine="36" fill="#F1F1F1" height="80.5938" id="Choice" rx="2.5" ry="2.5" style="stroke:#181818;stroke-width:0.5;" width="107" x="410" y="401"/><ellipse cx="436.7" cy="417" fill="#ADD1B2" rx="11" ry="11" style="stroke:#181818;stroke-width:1.0;"/><path d="M439.6688,422.6406 Q439.0906,422.9375 438.45,423.0781 Q437.8094,423.2344 437.1063,423.2344 Q434.6063,423.2344 433.2781,421.5938 Q431.9656,419.9375 431.9656,416.8125 Q431.9656,413.6875 433.2781,412.0313 Q434.6063,410.375 437.1063,410.375 Q437.8094,410.375 438.45,410.5313 Q439.1063,410.6875 439.6688,410.9844 L439.6688,413.7031 Q439.0438,413.125 438.45,412.8594 Q437.8563,412.5781 437.2313,412.5781 Q435.8875,412.5781 435.2,413.6563 Q434.5125,414.7188 434.5125,416.8125 Q434.5125,418.9063 435.2,419.9844 Q435.8875,421.0469 437.2313,421.0469 Q437.8563,421.0469 438.45,420.7813 Q439.0438,420.5 439.6688,419.9219 L439.6688,422.6406 Z " fill="#000000"/><text fill="#000000" font-family="sans-serif" font-size="14" lengthAdjust="spacing" textLength="49" x="453.3" y="421.8467">Choice</text><line style="stroke:#181818;stroke-width:0.5;" x1="411" x2="516" y1="433" y2="433"/><rect fill="none" height="6" style="stroke:#C82930;stroke-width:1.0;" width="6" x="418" y="443.6484"/><text fill="#000000" font-family="sans-serif" font-size="14" lengthAdjust="spacing" textLength="81" x="430" y="449.9951">String label</text><rect fill="none" height="6" style="stroke:#C82930;stroke-width:1.0;" width="6" x="418" y="459.9453"/><text fill="#000000" font-family="sans-serif" font-size="14" lengthAdjust="spacing" textLength="66" x="430" y="466.292">String ref</text><line style="stroke:#181818;stroke-width:0.5;" x1="411" x2="516" y1="473.5938" y2="473.5938"/></g><!--link InspectionResponse to Inspector--><g id="link_InspectionResponse_Inspector"><path codeLine="41" d="M161.19,136.07 C139.23,163.81 117.8938,190.7754 98.6438,215.0954 " fill="none" id="InspectionResponse-to-Inspector" style="stroke:#181818;stroke-width:1.0;"/><polygon fill="#181818" points="94.92,219.8,103.6421,215.2257,98.0232,215.8795,97.3693,210.2606,94.92,219.8" style="stroke:#181818;stroke-width:1.0;"/></g><!--link InspectionResponse to Store--><g id="link_InspectionResponse_Store"><path codeLine="42" d="M211.5,136.07 C211.5,163.81 211.5,189.48 211.5,213.8 " fill="none" id="InspectionResponse-to-Store" style="stroke:#181818;stroke-width:1.0;"/><polygon fill="#181818" points="211.5,219.8,215.5,210.8,211.5,214.8,207.5,210.8,211.5,219.8" style="stroke:#181818;stroke-width:1.0;"/></g><!--link InspectionResponse to ControlAnswer--><g id="link_InspectionResponse_ControlAnswer"><path codeLine="43" d="M273.37,136.07 C292.13,155.34 308.5457,172.2098 327.3057,191.4898 " fill="none" id="InspectionResponse-to-ControlAnswer" style="stroke:#181818;stroke-width:1.0;"/><polygon fill="#181818" points="331.49,195.79,328.0804,186.5501,328.0031,192.2065,322.3468,192.1291,331.49,195.79" style="stroke:#181818;stroke-width:1.0;"/></g><!--link ControlAnswer to Field--><g id="link_ControlAnswer_Field"><path codeLine="44" d="M368.62,325.11 C361,344.61 354.8645,360.3018 347.4645,379.2318 " fill="none" id="ControlAnswer-to-Field" style="stroke:#181818;stroke-width:1.0;"/><polygon fill="#181818" points="345.28,384.82,352.2822,377.894,347.1004,380.1632,344.8313,374.9814,345.28,384.82" style="stroke:#181818;stroke-width:1.0;"/></g><!--link ControlAnswer to Choice--><g id="link_ControlAnswer_Choice"><path codeLine="45" d="M418.38,325.11 C428.24,350.34 437.0946,372.9721 445.7846,395.1921 " fill="none" id="ControlAnswer-to-Choice" style="stroke:#181818;stroke-width:1.0;"/><polygon fill="#181818" points="447.97,400.78,448.4172,390.9413,446.1489,396.1234,440.9667,393.8551,447.97,400.78" style="stroke:#181818;stroke-width:1.0;"/></g><!--SRC=[bL51JiGm3Bpd5UO1_G6gL9O5hRJQmy87qjO5IzcuYeqGGloTDWdQ1je3bpWUPpnZvwR7WJp2URzxRawFnprqpeeOSmKENaRibDYVKKRsWl1f02fuqa3-1K963tr4xwqYo5jx8LNi6urWxi41wEUMMt2ONizdp8yaUhjZhu5Tu-KTGmqsHZ5VAwQcXeKNwfUPjnSiQKdlNvJ2JQO-4BeUXlbSalLZN8xnojHX3LsC4Wi9or14xfWTMWzjYgLsqacQv1M4Wsvx3pZySLEEajIByPrjqVtkCh5MVhsgwklUjnx43MyLYrsQShDpFSwxWYVZvXi0]--></g></svg>