<?xml version="1.0" encoding="us-ascii" standalone="no"?><svg xmlns="http://www.w3.org/2000/svg" xmlns:xlink="http://www.w3.org/1999/xlink" contentStyleType="text/css" height="448px" preserveAspectRatio="none" style="width:1506px;height:448px;background:#FFFFFF;" version="1.1" viewBox="0 0 1506 448" width="1506px" zoomAndPan="magnify"><defs/><g><g id="elem_InspectionResponse"><rect fill="#F1F1F1" height="109.7813" style="stroke:#181818;stroke-width:0.5;" width="397" x="409.5" y="7"/><text fill="#000000" font-family="sans-serif" font-size="14" lengthAdjust="spacing" textLength="142" x="537" y="21.9951">InspectionResponse</text><line style="stroke:#181818;stroke-width:0.5;" x1="410.5" x2="805.5" y1="27.2969" y2="27.2969"/><text fill="#000000" font-family="sans-serif" font-size="14" lengthAdjust="spacing" textLength="385" x="415.5" y="44.292">responseId = "21085286190ffad1248d17c4135ee56f"</text><text fill="#000000" font-family="sans-serif" font-size="14" lengthAdjust="spacing" textLength="283" x="415.5" y="60.5889">submittedAt = "2023-07-29T22:38:22Z"</text><text fill="#000000" font-family="sans-serif" font-size="14" lengthAdjust="spacing" textLength="66" x="415.5" y="76.8857">inspector</text><text fill="#000000" font-family="sans-serif" font-size="14" lengthAdjust="spacing" textLength="36" x="415.5" y="93.1826">store</text><text fill="#000000" font-family="sans-serif" font-size="14" lengthAdjust="spacing" textLength="58" x="415.5" y="109.4795">answers</text></g><g id="elem_Inspector"><rect fill="#F1F1F1" height="60.8906" style="stroke:#181818;stroke-width:0.5;" width="149" x="155.5" y="202"/><text fill="#000000" font-family="sans-serif" font-size="14" lengthAdjust="spacing" textLength="66" x="197" y="216.9951">Inspector</text><line style="stroke:#181818;stroke-width:0.5;" x1="156.5" x2="303.5" y1="222.2969" y2="222.2969"/><text fill="#000000" font-family="sans-serif" font-size="14" lengthAdjust="spacing" textLength="135" x="161.5" y="239.292">id = "1234567890"</text><text fill="#000000" font-family="sans-serif" font-size="14" lengthAdjust="spacing" textLength="137" x="161.5" y="255.5889">name = "John Doe"</text></g><g id="elem_Store"><rect fill="#F1F1F1" height="60.8906" style="stroke:#181818;stroke-width:0.5;" width="169" x="339.5" y="202"/><text fill="#000000" font-family="sans-serif" font-size="14" lengthAdjust="spacing" textLength="38" x="405" y="216.9951">Store</text><line style="stroke:#181818;stroke-width:0.5;" x1="340.5" x2="507.5" y1="222.2969" y2="222.2969"/><text fill="#000000" font-family="sans-serif" font-size="14" lengthAdjust="spacing" textLength="135" x="345.5" y="239.292">id = "0987654321"</text><text fill="#000000" font-family="sans-serif" font-size="14" lengthAdjust="spacing" textLength="157" x="345.5" y="255.5889">name = "John's Store"</text></g><g id="elem_ControlAnswer1"><rect fill="#F1F1F1" height="77.1875" style="stroke:#181818;stroke-width:0.5;" width="129" x="543.5" y="194"/><text fill="#000000" font-family="sans-serif" font-size="14" lengthAdjust="spacing" textLength="113" x="551.5" y="208.9951">ControlAnswer1</text><line style="stroke:#181818;stroke-width:0.5;" x1="544.5" x2="671.5" y1="214.2969" y2="214.2969"/><text fill="#000000" font-family="sans-serif" font-size="14" lengthAdjust="spacing" textLength="31" x="549.5" y="231.292">field</text><text fill="#000000" font-family="sans-serif" font-size="14" lengthAdjust="spacing" textLength="117" x="549.5" y="247.5889">type = "choices"</text><text fill="#000000" font-family="sans-serif" font-size="14" lengthAdjust="spacing" textLength="54" x="549.5" y="263.8857">choices</text></g><g id="elem_ControlAnswer2"><rect fill="#F1F1F1" height="77.1875" style="stroke:#181818;stroke-width:0.5;" width="127" x="790.5" y="194"/><text fill="#000000" font-family="sans-serif" font-size="14" lengthAdjust="spacing" textLength="113" x="797.5" y="208.9951">ControlAnswer2</text><line style="stroke:#181818;stroke-width:0.5;" x1="791.5" x2="916.5" y1="214.2969" y2="214.2969"/><text fill="#000000" font-family="sans-serif" font-size="14" lengthAdjust="spacing" textLength="31" x="796.5" y="231.292">field</text><text fill="#000000" font-family="sans-serif" font-size="14" lengthAdjust="spacing" textLength="110" x="796.5" y="247.5889">type = "choice"</text><text fill="#000000" font-family="sans-serif" font-size="14" lengthAdjust="spacing" textLength="47" x="796.5" y="263.8857">choice</text></g><g id="elem_ControlAnswer3"><rect fill="#F1F1F1" height="77.1875" style="stroke:#181818;stroke-width:0.5;" width="133" x="1119.5" y="194"/><text fill="#000000" font-family="sans-serif" font-size="14" lengthAdjust="spacing" textLength="113" x="1129.5" y="208.9951">ControlAnswer3</text><line style="stroke:#181818;stroke-width:0.5;" x1="1120.5" x2="1251.5" y1="214.2969" y2="214.2969"/><text fill="#000000" font-family="sans-serif" font-size="14" lengthAdjust="spacing" textLength="31" x="1125.5" y="231.292">field</text><text fill="#000000" font-family="sans-serif" font-size="14" lengthAdjust="spacing" textLength="121" x="1125.5" y="247.5889">type = "boolean"</text><text fill="#000000" font-family="sans-serif" font-size="14" lengthAdjust="spacing" textLength="112" x="1125.5" y="263.8857">boolean = false</text></g><g id="elem_Field1"><rect fill="#F1F1F1" height="93.4844" style="stroke:#181818;stroke-width:0.5;" width="248" x="7" y="348"/><text fill="#000000" font-family="sans-serif" font-size="14" lengthAdjust="spacing" textLength="43" x="109.5" y="362.9951">Field1</text><line style="stroke:#181818;stroke-width:0.5;" x1="8" x2="254" y1="368.2969" y2="368.2969"/><text fill="#000000" font-family="sans-serif" font-size="14" lengthAdjust="spacing" textLength="56" x="13" y="385.292">sort = 1</text><text fill="#000000" font-family="sans-serif" font-size="14" lengthAdjust="spacing" textLength="54" x="13" y="401.5889">id = "1"</text><text fill="#000000" font-family="sans-serif" font-size="14" lengthAdjust="spacing" textLength="236" x="13" y="417.8857">ref = "dispocitivos_anti_inceptos"</text><text fill="#000000" font-family="sans-serif" font-size="14" lengthAdjust="spacing" textLength="175" x="13" y="434.1826">type = "multiple_choice"</text></g><g id="elem_Field4"><rect fill="#F1F1F1" height="93.4844" style="stroke:#181818;stroke-width:0.5;" width="239" x="734.5" y="348"/><text fill="#000000" font-family="sans-serif" font-size="14" lengthAdjust="spacing" textLength="43" x="832.5" y="362.9951">Field4</text><line style="stroke:#181818;stroke-width:0.5;" x1="735.5" x2="972.5" y1="368.2969" y2="368.2969"/><text fill="#000000" font-family="sans-serif" font-size="14" lengthAdjust="spacing" textLength="56" x="740.5" y="385.292">sort = 3</text><text fill="#000000" font-family="sans-serif" font-size="14" lengthAdjust="spacing" textLength="54" x="740.5" y="401.5889">id = "3"</text><text fill="#000000" font-family="sans-serif" font-size="14" lengthAdjust="spacing" textLength="227" x="740.5" y="417.8857">ref = "dispositivos_de_incendio"</text><text fill="#000000" font-family="sans-serif" font-size="14" lengthAdjust="spacing" textLength="175" x="740.5" y="434.1826">type = "multiple_choice"</text></g><g id="elem_Field2"><rect fill="#F1F1F1" height="93.4844" style="stroke:#181818;stroke-width:0.5;" width="291" x="1208.5" y="348"/><text fill="#000000" font-family="sans-serif" font-size="14" lengthAdjust="spacing" textLength="43" x="1332.5" y="362.9951">Field2</text><line style="stroke:#181818;stroke-width:0.5;" x1="1209.5" x2="1498.5" y1="368.2969" y2="368.2969"/><text fill="#000000" font-family="sans-serif" font-size="14" lengthAdjust="spacing" textLength="56" x="1214.5" y="385.292">sort = 2</text><text fill="#000000" font-family="sans-serif" font-size="14" lengthAdjust="spacing" textLength="54" x="1214.5" y="401.5889">id = "2"</text><text fill="#000000" font-family="sans-serif" font-size="14" lengthAdjust="spacing" textLength="279" x="1214.5" y="417.8857">ref = "carnet_manipulacion_alimentos"</text><text fill="#000000" font-family="sans-serif" font-size="14" lengthAdjust="spacing" textLength="112" x="1214.5" y="434.1826">type = "yes_no"</text></g><g id="elem_Choice4"><rect fill="#F1F1F1" height="60.8906" style="stroke:#181818;stroke-width:0.5;" width="178" x="841" y="31.5"/><text fill="#000000" font-family="sans-serif" font-size="14" lengthAdjust="spacing" textLength="58" x="901" y="46.4951">Choice4</text><line style="stroke:#181818;stroke-width:0.5;" x1="842" x2="1018" y1="51.7969" y2="51.7969"/><text fill="#000000" font-family="sans-serif" font-size="14" lengthAdjust="spacing" textLength="166" x="847" y="68.792">label = "malla plastica"</text><text fill="#000000" font-family="sans-serif" font-size="14" lengthAdjust="spacing" textLength="154" x="847" y="85.0889">ref = "malla_plastica"</text></g><g id="elem_Choice1"><rect fill="#F1F1F1" height="60.8906" style="stroke:#181818;stroke-width:0.5;" width="191" x="290.5" y="364"/><text fill="#000000" font-family="sans-serif" font-size="14" lengthAdjust="spacing" textLength="58" x="357" y="378.9951">Choice1</text><line style="stroke:#181818;stroke-width:0.5;" x1="291.5" x2="480.5" y1="384.2969" y2="384.2969"/><text fill="#000000" font-family="sans-serif" font-size="14" lengthAdjust="spacing" textLength="179" x="296.5" y="401.292">label = "tela mosquitera"</text><text fill="#000000" font-family="sans-serif" font-size="14" lengthAdjust="spacing" textLength="167" x="296.5" y="417.5889">ref = "tela_mosquitera"</text></g><g id="elem_Choice3"><rect fill="#F1F1F1" height="60.8906" style="stroke:#181818;stroke-width:0.5;" width="164" x="1009" y="364"/><text fill="#000000" font-family="sans-serif" font-size="14" lengthAdjust="spacing" textLength="58" x="1062" y="378.9951">Choice3</text><line style="stroke:#181818;stroke-width:0.5;" x1="1010" x2="1172" y1="384.2969" y2="384.2969"/><text fill="#000000" font-family="sans-serif" font-size="14" lengthAdjust="spacing" textLength="152" x="1015" y="401.292">label = "matafuegos"</text><text fill="#000000" font-family="sans-serif" font-size="14" lengthAdjust="spacing" textLength="137" x="1015" y="417.5889">ref = "matafuegos"</text></g><g id="elem_Choice2"><rect fill="#F1F1F1" height="60.8906" style="stroke:#181818;stroke-width:0.5;" width="183" x="516.5" y="364"/><text fill="#000000" font-family="sans-serif" font-size="14" lengthAdjust="spacing" textLength="58" x="579" y="378.9951">Choice2</text><line style="stroke:#181818;stroke-width:0.5;" x1="517.5" x2="698.5" y1="384.2969" y2="384.2969"/><text fill="#000000" font-family="sans-serif" font-size="14" lengthAdjust="spacing" textLength="171" x="522.5" y="401.292">label = "cortina de aire"</text><text fill="#000000" font-family="sans-serif" font-size="14" lengthAdjust="spacing" textLength="162" x="522.5" y="417.5889">ref = "cortina_de_aire"</text></g><!--link InspectionResponse to Inspector--><g id="link_InspectionResponse_Inspector"><path codeLine="83" d="M486.84,117.01 C423.67,145.17 354.3404,176.0776 301.7904,199.4976 " fill="none" id="InspectionResponse-to-Inspector" style="stroke:#181818;stroke-width:1.0;"/><polygon fill="#181818" points="296.31,201.94,306.1589,201.9299,300.877,199.9046,302.9023,194.6228,296.31,201.94" style="stroke:#181818;stroke-width:1.0;"/><text fill="#000000" font-family="sans-serif" font-size="13" lengthAdjust="spacing" textLength="60" x="420" y="160.0669">inspector</text></g><!--link InspectionResponse to Store--><g id="link_InspectionResponse_Store"><path codeLine="84" d="M549.02,117.01 C518.33,145.12 486.4046,174.3475 460.8346,197.7675 " fill="none" id="InspectionResponse-to-Store" style="stroke:#181818;stroke-width:1.0;"/><polygon fill="#181818" points="456.41,201.82,465.7486,198.6909,460.0971,198.4429,460.3452,192.7915,456.41,201.82" style="stroke:#181818;stroke-width:1.0;"/><text fill="#000000" font-family="sans-serif" font-size="13" lengthAdjust="spacing" textLength="33" x="517" y="160.0669">store</text></g><!--link InspectionResponse to ControlAnswer1--><g id="link_InspectionResponse_ControlAnswer1"><path codeLine="85" d="M608,117.24 C608,142.26 608,165.33 608,187.89 " fill="none" id="InspectionResponse-to-ControlAnswer1" style="stroke:#181818;stroke-width:1.0;"/><polygon fill="#181818" points="608,193.89,612,184.89,608,188.89,604,184.89,608,193.89" style="stroke:#181818;stroke-width:1.0;"/><text fill="#000000" font-family="sans-serif" font-size="13" lengthAdjust="spacing" textLength="54" x="609" y="160.0669">answers</text></g><!--link InspectionResponse to ControlAnswer2--><g id="link_InspectionResponse_ControlAnswer2"><path codeLine="86" d="M686.85,117.01 C723.39,142.04 760.9701,167.7791 793.9901,190.3991 " fill="none" id="InspectionResponse-to-ControlAnswer2" style="stroke:#181818;stroke-width:1.0;"/><polygon fill="#181818" points="798.94,193.79,793.7757,185.4037,794.8151,190.9643,789.2545,192.0036,798.94,193.79" style="stroke:#181818;stroke-width:1.0;"/><text fill="#000000" font-family="sans-serif" font-size="13" lengthAdjust="spacing" textLength="54" x="755" y="160.0669">answers</text></g><!--link InspectionResponse to ControlAnswer3--><g id="link_InspectionResponse_ControlAnswer3"><path codeLine="87" d="M793.27,117.01 C904.88,149.55 1034.5198,187.3408 1113.6598,210.4108 " fill="none" id="InspectionResponse-to-ControlAnswer3" style="stroke:#181818;stroke-width:1.0;"/><polygon fill="#181818" points="1119.42,212.09,1111.8991,205.7311,1114.6198,210.6907,1109.6602,213.4114,1119.42,212.09" style="stroke:#181818;stroke-width:1.0;"/><text fill="#000000" font-family="sans-serif" font-size="13" lengthAdjust="spacing" textLength="54" x="950" y="160.0669">answers</text></g><!--link ControlAnswer1 to Field1--><g id="link_ControlAnswer1_Field1"><path codeLine="89" d="M543.44,263.99 C537.58,266.46 531.71,268.84 526,271 C416.09,312.65 385.19,312.96 273,348 C267.19,349.81 266.9828,349.8773 260.9828,351.7673 " fill="none" id="ControlAnswer1-to-Field1" style="stroke:#181818;stroke-width:1.0;"/><polygon fill="#181818" points="255.26,353.57,265.046,354.6812,260.029,352.0678,262.6424,347.0508,255.26,353.57" style="stroke:#181818;stroke-width:1.0;"/><text fill="#000000" font-family="sans-serif" font-size="13" lengthAdjust="spacing" textLength="29" x="436" y="314.0669">field</text></g><!--link ControlAnswer1 to Choice1--><g id="link_ControlAnswer1_Choice1"><path codeLine="90" d="M555.95,271.01 C516.61,299.37 468.2076,334.2519 431.8676,360.4419 " fill="none" id="ControlAnswer1-to-Choice1" style="stroke:#181818;stroke-width:1.0;"/><polygon fill="#181818" points="427,363.95,436.6401,361.933,431.0563,361.0266,431.9627,355.4429,427,363.95" style="stroke:#181818;stroke-width:1.0;"/><text fill="#000000" font-family="sans-serif" font-size="13" lengthAdjust="spacing" textLength="49" x="512" y="314.0669">choices</text></g><!--link ControlAnswer2 to Field4--><g id="link_ControlAnswer2_Field4"><path codeLine="91" d="M854,271.01 C854,294.01 854,317.61 854,341.95 " fill="none" id="ControlAnswer2-to-Field4" style="stroke:#181818;stroke-width:1.0;"/><polygon fill="#181818" points="854,347.95,858,338.95,854,342.95,850,338.95,854,347.95" style="stroke:#181818;stroke-width:1.0;"/><text fill="#000000" font-family="sans-serif" font-size="13" lengthAdjust="spacing" textLength="29" x="855" y="314.0669">field</text></g><!--link ControlAnswer1 to Choice2--><g id="link_ControlAnswer1_Choice2"><path codeLine="92" d="M608,271.01 C608,299.37 608,331.76 608,357.95 " fill="none" id="ControlAnswer1-to-Choice2" style="stroke:#181818;stroke-width:1.0;"/><polygon fill="#181818" points="608,363.95,612,354.95,608,358.95,604,354.95,608,363.95" style="stroke:#181818;stroke-width:1.0;"/><text fill="#000000" font-family="sans-serif" font-size="13" lengthAdjust="spacing" textLength="42" x="609" y="314.0669">choice</text></g><!--link ControlAnswer2 to Choice3--><g id="link_ControlAnswer2_Choice3"><path codeLine="93" d="M909.57,271.01 C951.57,299.37 1003.4569,334.4032 1042.2569,360.5932 " fill="none" id="ControlAnswer2-to-Choice3" style="stroke:#181818;stroke-width:1.0;"/><polygon fill="#181818" points="1047.23,363.95,1042.0083,355.5993,1043.0858,361.1526,1037.5325,362.2301,1047.23,363.95" style="stroke:#181818;stroke-width:1.0;"/><text fill="#000000" font-family="sans-serif" font-size="13" lengthAdjust="spacing" textLength="42" x="974" y="314.0669">choice</text></g><!--link ControlAnswer3 to Field2--><g id="link_ControlAnswer3_Field2"><path codeLine="94" d="M1225.39,271.01 C1249.54,294.01 1276.2757,319.4715 1301.8257,343.8115 " fill="none" id="ControlAnswer3-to-Field2" style="stroke:#181818;stroke-width:1.0;"/><polygon fill="#181818" points="1306.17,347.95,1302.4126,338.846,1302.5498,344.5012,1296.8946,344.6384,1306.17,347.95" style="stroke:#181818;stroke-width:1.0;"/><text fill="#000000" font-family="sans-serif" font-size="13" lengthAdjust="spacing" textLength="29" x="1271" y="314.0669">field</text></g><!--SRC=[bPHDZzCm48Rl-HMc5qwL4ZjfqqWWLSk25Y4EovwuH6uoOOqSEyGkQ8NuxzZEbsjbkt2ACn_FE_Pu_Ag6XWb0zxSt3yVF7pxT8ddw3fMEeiLo9rHdJ4oAUr2T50hGxmYXVlovgz4RjC59d6SutoM7k6bedU0qhvDzbIOa0yXspSPagFEfPLf3VTGk9SPa6- -t-F20SK7o0kElDemDUhAtAUO3vak5-WMzYlwi52PxLmzpTIIOfDbkdnzYYnAq1MlzA1y5UYTXSmduOkbUSdp8zxii9JW9ar-h8JW0t4YXUycFhhh4aHe6l3PV_TIvxEfHiWgK1OxBAmXy1R4GhW38Ak0a9GSgB65S6cj3kGfGxstUi0qbUzkaP3dOZUjvOzSrCwslc6O_fIgfqAnaee9EIxVDIRKzSyqw3kLKlz4AnL9VZCnY91HJerWDJahKJBua5IXXNmdFIjXJgcWlG9Sj5QmxSrgP6rzIpbeGmSwUG9L2XdV1IGyRGfoUWBlAAESKTPmgpIfg8PEQyvIBPmKsj69cQJ2eLgeVPwQXfrxbrbFwdXKOkOIrLDFc3D-6dNbLBUOL2Bw4LEOucQ2e1aHP3_vP3XxRiC5Zcn-jF2NRxLjla0jl-fy97eQs69-6PuA2mIpc1-HVul5_nXClFWgKRV0uLiKuboiHKxkB-Oq82fenwSiOF6FMADDbM8yXYnAUbVu2]--></g></svg>