<?xml version="1.0" encoding="us-ascii" standalone="no"?><svg xmlns="http://www.w3.org/2000/svg" xmlns:xlink="http://www.w3.org/1999/xlink" contentStyleType="text/css" height="917px" preserveAspectRatio="none" style="width:1437px;height:917px;background:#FFFFFF;" version="1.1" viewBox="0 0 1437 917" width="1437px" zoomAndPan="magnify"><defs/><g><rect fill="none" height="335.8047" style="stroke:#000000;stroke-width:1.5;" width="984.5" x="446.5" y="425.4922"/><rect fill="none" height="304.6719" style="stroke:#000000;stroke-width:1.5;" width="964.5" x="456.5" y="449.625"/><rect fill="none" height="173.1406" style="stroke:#000000;stroke-width:1.5;" width="330.5" x="466.5" y="515.8906"/><line style="stroke:#181818;stroke-width:0.5;stroke-dasharray:5.0,5.0;" x1="24" x2="24" y1="81.2969" y2="836.5625"/><line style="stroke:#181818;stroke-width:0.5;stroke-dasharray:5.0,5.0;" x1="210.5" x2="210.5" y1="81.2969" y2="836.5625"/><line style="stroke:#181818;stroke-width:0.5;stroke-dasharray:5.0,5.0;" x1="347.5" x2="347.5" y1="81.2969" y2="836.5625"/><line style="stroke:#181818;stroke-width:0.5;stroke-dasharray:5.0,5.0;" x1="563.5" x2="563.5" y1="81.2969" y2="836.5625"/><line style="stroke:#181818;stroke-width:0.5;stroke-dasharray:5.0,5.0;" x1="817" x2="817" y1="81.2969" y2="836.5625"/><line style="stroke:#181818;stroke-width:0.5;stroke-dasharray:5.0,5.0;" x1="978" x2="978" y1="81.2969" y2="836.5625"/><line style="stroke:#181818;stroke-width:0.5;stroke-dasharray:5.0,5.0;" x1="1355" x2="1355" y1="81.2969" y2="836.5625"/><text fill="#000000" font-family="sans-serif" font-size="14" lengthAdjust="spacing" textLength="32" x="5" y="77.9951">User</text><ellipse cx="24" cy="13.5" fill="#E2E2F0" rx="8" ry="8" style="stroke:#181818;stroke-width:0.5;"/><path d="M24,21.5 L24,48.5 M11,29.5 L37,29.5 M24,48.5 L11,63.5 M24,48.5 L37,63.5 " fill="none" style="stroke:#181818;stroke-width:0.5;"/><text fill="#000000" font-family="sans-serif" font-size="14" lengthAdjust="spacing" textLength="32" x="5" y="848.5576">User</text><ellipse cx="24" cy="860.3594" fill="#E2E2F0" rx="8" ry="8" style="stroke:#181818;stroke-width:0.5;"/><path d="M24,868.3594 L24,895.3594 M11,876.3594 L37,876.3594 M24,895.3594 L11,910.3594 M24,895.3594 L37,910.3594 " fill="none" style="stroke:#181818;stroke-width:0.5;"/><rect fill="#E2E2F0" height="30.2969" rx="2.5" ry="2.5" style="stroke:#181818;stroke-width:0.5;" width="77" x="172.5" y="50"/><text fill="#000000" font-family="sans-serif" font-size="14" lengthAdjust="spacing" textLength="63" x="179.5" y="69.9951">JSON File</text><rect fill="#E2E2F0" height="30.2969" rx="2.5" ry="2.5" style="stroke:#181818;stroke-width:0.5;" width="77" x="172.5" y="835.5625"/><text fill="#000000" font-family="sans-serif" font-size="14" lengthAdjust="spacing" textLength="63" x="179.5" y="855.5576">JSON File</text><rect fill="#E2E2F0" height="30.2969" rx="2.5" ry="2.5" style="stroke:#181818;stroke-width:0.5;" width="177" x="259.5" y="50"/><text fill="#000000" font-family="sans-serif" font-size="14" lengthAdjust="spacing" textLength="163" x="266.5" y="69.9951">InspectionFormService</text><rect fill="#E2E2F0" height="30.2969" rx="2.5" ry="2.5" style="stroke:#181818;stroke-width:0.5;" width="177" x="259.5" y="835.5625"/><text fill="#000000" font-family="sans-serif" font-size="14" lengthAdjust="spacing" textLength="163" x="266.5" y="855.5576">InspectionFormService</text><rect fill="#E2E2F0" height="30.2969" rx="2.5" ry="2.5" style="stroke:#181818;stroke-width:0.5;" width="175" x="476.5" y="50"/><text fill="#000000" font-family="sans-serif" font-size="14" lengthAdjust="spacing" textLength="161" x="483.5" y="69.9951">InspectionFormBuilder</text><rect fill="#E2E2F0" height="30.2969" rx="2.5" ry="2.5" style="stroke:#181818;stroke-width:0.5;" width="175" x="476.5" y="835.5625"/><text fill="#000000" font-family="sans-serif" font-size="14" lengthAdjust="spacing" textLength="161" x="483.5" y="855.5576">InspectionFormBuilder</text><rect fill="#E2E2F0" height="30.2969" rx="2.5" ry="2.5" style="stroke:#181818;stroke-width:0.5;" width="124" x="755" y="50"/><text fill="#000000" font-family="sans-serif" font-size="14" lengthAdjust="spacing" textLength="110" x="762" y="69.9951">InspectionForm</text><rect fill="#E2E2F0" height="30.2969" rx="2.5" ry="2.5" style="stroke:#181818;stroke-width:0.5;" width="124" x="755" y="835.5625"/><text fill="#000000" font-family="sans-serif" font-size="14" lengthAdjust="spacing" textLength="110" x="762" y="855.5576">InspectionForm</text><rect fill="#E2E2F0" height="30.2969" rx="2.5" ry="2.5" style="stroke:#181818;stroke-width:0.5;" width="179" x="889" y="50"/><text fill="#000000" font-family="sans-serif" font-size="14" lengthAdjust="spacing" textLength="165" x="896" y="69.9951">ControlFieldValidations</text><rect fill="#E2E2F0" height="30.2969" rx="2.5" ry="2.5" style="stroke:#181818;stroke-width:0.5;" width="179" x="889" y="835.5625"/><text fill="#000000" font-family="sans-serif" font-size="14" lengthAdjust="spacing" textLength="165" x="896" y="855.5576">ControlFieldValidations</text><rect fill="#E2E2F0" height="30.2969" rx="2.5" ry="2.5" style="stroke:#181818;stroke-width:0.5;" width="111" x="1300" y="50"/><text fill="#000000" font-family="sans-serif" font-size="14" lengthAdjust="spacing" textLength="97" x="1307" y="69.9951">PenaltyLevels</text><rect fill="#E2E2F0" height="30.2969" rx="2.5" ry="2.5" style="stroke:#181818;stroke-width:0.5;" width="111" x="1300" y="835.5625"/><text fill="#000000" font-family="sans-serif" font-size="14" lengthAdjust="spacing" textLength="97" x="1307" y="855.5576">PenaltyLevels</text><polygon fill="#181818" points="199,108.4297,209,112.4297,199,116.4297,203,112.4297" style="stroke:#181818;stroke-width:1.0;"/><line style="stroke:#181818;stroke-width:1.0;" x1="24" x2="205" y1="112.4297" y2="112.4297"/><text fill="#000000" font-family="sans-serif" font-size="13" lengthAdjust="spacing" textLength="116" x="31" y="107.3638">Leer archivo JSON</text><polygon fill="#181818" points="35,137.5625,25,141.5625,35,145.5625,31,141.5625" style="stroke:#181818;stroke-width:1.0;"/><line style="stroke:#181818;stroke-width:1.0;" x1="29" x2="210" y1="141.5625" y2="141.5625"/><text fill="#000000" font-family="sans-serif" font-size="13" lengthAdjust="spacing" textLength="163" x="41" y="136.4966">Devolver contenido JSON</text><polygon fill="#181818" points="336,166.6953,346,170.6953,336,174.6953,340,170.6953" style="stroke:#181818;stroke-width:1.0;"/><line style="stroke:#181818;stroke-width:1.0;" x1="24" x2="342" y1="170.6953" y2="170.6953"/><text fill="#000000" font-family="sans-serif" font-size="13" lengthAdjust="spacing" textLength="189" x="31" y="165.6294">hidratarFormulario(jsonData)</text><polygon fill="#181818" points="552,195.8281,562,199.8281,552,203.8281,556,199.8281" style="stroke:#181818;stroke-width:1.0;"/><line style="stroke:#181818;stroke-width:1.0;" x1="348" x2="558" y1="199.8281" y2="199.8281"/><text fill="#000000" font-family="sans-serif" font-size="13" lengthAdjust="spacing" textLength="192" x="355" y="194.7622">iniciarConstrucci&#243;n(jsonData)</text><line style="stroke:#181818;stroke-width:1.0;" x1="564" x2="606" y1="228.9609" y2="228.9609"/><line style="stroke:#181818;stroke-width:1.0;" x1="606" x2="606" y1="228.9609" y2="241.9609"/><line style="stroke:#181818;stroke-width:1.0;" x1="565" x2="606" y1="241.9609" y2="241.9609"/><polygon fill="#181818" points="575,237.9609,565,241.9609,575,245.9609,571,241.9609" style="stroke:#181818;stroke-width:1.0;"/><text fill="#000000" font-family="sans-serif" font-size="13" lengthAdjust="spacing" textLength="187" x="571" y="223.895">setFormId(jsonData.form_id)</text><line style="stroke:#181818;stroke-width:1.0;" x1="564" x2="606" y1="271.0938" y2="271.0938"/><line style="stroke:#181818;stroke-width:1.0;" x1="606" x2="606" y1="271.0938" y2="284.0938"/><line style="stroke:#181818;stroke-width:1.0;" x1="565" x2="606" y1="284.0938" y2="284.0938"/><polygon fill="#181818" points="575,280.0938,565,284.0938,575,288.0938,571,284.0938" style="stroke:#181818;stroke-width:1.0;"/><text fill="#000000" font-family="sans-serif" font-size="13" lengthAdjust="spacing" textLength="239" x="571" y="266.0278">setFormName(jsonData.form_name)</text><line style="stroke:#181818;stroke-width:1.0;" x1="564" x2="606" y1="313.2266" y2="313.2266"/><line style="stroke:#181818;stroke-width:1.0;" x1="606" x2="606" y1="313.2266" y2="326.2266"/><line style="stroke:#181818;stroke-width:1.0;" x1="565" x2="606" y1="326.2266" y2="326.2266"/><polygon fill="#181818" points="575,322.2266,565,326.2266,575,330.2266,571,326.2266" style="stroke:#181818;stroke-width:1.0;"/><text fill="#000000" font-family="sans-serif" font-size="13" lengthAdjust="spacing" textLength="147" x="571" y="308.1606">setTitle(jsonData.title)</text><line style="stroke:#181818;stroke-width:1.0;" x1="564" x2="606" y1="355.3594" y2="355.3594"/><line style="stroke:#181818;stroke-width:1.0;" x1="606" x2="606" y1="355.3594" y2="368.3594"/><line style="stroke:#181818;stroke-width:1.0;" x1="565" x2="606" y1="368.3594" y2="368.3594"/><polygon fill="#181818" points="575,364.3594,565,368.3594,575,372.3594,571,368.3594" style="stroke:#181818;stroke-width:1.0;"/><text fill="#000000" font-family="sans-serif" font-size="13" lengthAdjust="spacing" textLength="238" x="571" y="350.2935">setDescription(jsonData.description)</text><line style="stroke:#181818;stroke-width:1.0;" x1="564" x2="606" y1="397.4922" y2="397.4922"/><line style="stroke:#181818;stroke-width:1.0;" x1="606" x2="606" y1="397.4922" y2="410.4922"/><line style="stroke:#181818;stroke-width:1.0;" x1="565" x2="606" y1="410.4922" y2="410.4922"/><polygon fill="#181818" points="575,406.4922,565,410.4922,575,414.4922,571,410.4922" style="stroke:#181818;stroke-width:1.0;"/><text fill="#000000" font-family="sans-serif" font-size="13" lengthAdjust="spacing" textLength="194" x="571" y="392.4263">crearCampos(jsonData.fields)</text><path d="M446.5,425.4922 L510.5,425.4922 L510.5,432.625 L500.5,442.625 L446.5,442.625 L446.5,425.4922 " fill="#EEEEEE" style="stroke:#000000;stroke-width:1.5;"/><rect fill="none" height="335.8047" style="stroke:#000000;stroke-width:1.5;" width="984.5" x="446.5" y="425.4922"/><text fill="#000000" font-family="sans-serif" font-size="13" font-weight="bold" lengthAdjust="spacing" textLength="19" x="461.5" y="438.5591">alt</text><text fill="#000000" font-family="sans-serif" font-size="11" font-weight="bold" lengthAdjust="spacing" textLength="84" x="525.5" y="437.7026">[cada campo]</text><path d="M456.5,449.625 L532.5,449.625 L532.5,456.7578 L522.5,466.7578 L456.5,466.7578 L456.5,449.625 " fill="#EEEEEE" style="stroke:#000000;stroke-width:1.5;"/><rect fill="none" height="304.6719" style="stroke:#000000;stroke-width:1.5;" width="964.5" x="456.5" y="449.625"/><text fill="#000000" font-family="sans-serif" font-size="13" font-weight="bold" lengthAdjust="spacing" textLength="31" x="471.5" y="462.6919">loop</text><text fill="#000000" font-family="sans-serif" font-size="11" font-weight="bold" lengthAdjust="spacing" textLength="232" x="547.5" y="461.8354">[para cada campo en jsonData.fields]</text><line style="stroke:#181818;stroke-width:1.0;" x1="564" x2="606" y1="487.8906" y2="487.8906"/><line style="stroke:#181818;stroke-width:1.0;" x1="606" x2="606" y1="487.8906" y2="500.8906"/><line style="stroke:#181818;stroke-width:1.0;" x1="565" x2="606" y1="500.8906" y2="500.8906"/><polygon fill="#181818" points="575,496.8906,565,500.8906,575,504.8906,571,500.8906" style="stroke:#181818;stroke-width:1.0;"/><text fill="#000000" font-family="sans-serif" font-size="13" lengthAdjust="spacing" textLength="165" x="571" y="482.8247">crearControlField(campo)</text><path d="M466.5,515.8906 L530.5,515.8906 L530.5,523.0234 L520.5,533.0234 L466.5,533.0234 L466.5,515.8906 " fill="#EEEEEE" style="stroke:#000000;stroke-width:1.5;"/><rect fill="none" height="173.1406" style="stroke:#000000;stroke-width:1.5;" width="330.5" x="466.5" y="515.8906"/><text fill="#000000" font-family="sans-serif" font-size="13" font-weight="bold" lengthAdjust="spacing" textLength="19" x="481.5" y="528.9575">alt</text><text fill="#000000" font-family="sans-serif" font-size="11" font-weight="bold" lengthAdjust="spacing" textLength="196" x="545.5" y="528.1011">[tipo de campo es "dropdown"]</text><line style="stroke:#181818;stroke-width:1.0;" x1="564" x2="606" y1="554.1563" y2="554.1563"/><line style="stroke:#181818;stroke-width:1.0;" x1="606" x2="606" y1="554.1563" y2="567.1563"/><line style="stroke:#181818;stroke-width:1.0;" x1="565" x2="606" y1="567.1563" y2="567.1563"/><polygon fill="#181818" points="575,563.1563,565,567.1563,575,571.1563,571,567.1563" style="stroke:#181818;stroke-width:1.0;"/><text fill="#000000" font-family="sans-serif" font-size="13" lengthAdjust="spacing" textLength="184" x="571" y="549.0903">crearDropdownField(campo)</text><line style="stroke:#000000;stroke-width:1.0;stroke-dasharray:2.0,2.0;" x1="466.5" x2="797" y1="576.1563" y2="576.1563"/><text fill="#000000" font-family="sans-serif" font-size="11" font-weight="bold" lengthAdjust="spacing" textLength="231" x="471.5" y="586.3667">[tipo de campo es "multiple_choice"]</text><line style="stroke:#181818;stroke-width:1.0;" x1="564" x2="606" y1="611.0938" y2="611.0938"/><line style="stroke:#181818;stroke-width:1.0;" x1="606" x2="606" y1="611.0938" y2="624.0938"/><line style="stroke:#181818;stroke-width:1.0;" x1="565" x2="606" y1="624.0938" y2="624.0938"/><polygon fill="#181818" points="575,620.0938,565,624.0938,575,628.0938,571,624.0938" style="stroke:#181818;stroke-width:1.0;"/><text fill="#000000" font-family="sans-serif" font-size="13" lengthAdjust="spacing" textLength="214" x="571" y="606.0278">crearMultipleChoiceField(campo)</text><line style="stroke:#000000;stroke-width:1.0;stroke-dasharray:2.0,2.0;" x1="466.5" x2="797" y1="633.0938" y2="633.0938"/><text fill="#000000" font-family="sans-serif" font-size="11" font-weight="bold" lengthAdjust="spacing" textLength="176" x="471.5" y="643.3042">[tipo de campo es "yes_no"]</text><line style="stroke:#181818;stroke-width:1.0;" x1="564" x2="606" y1="668.0313" y2="668.0313"/><line style="stroke:#181818;stroke-width:1.0;" x1="606" x2="606" y1="668.0313" y2="681.0313"/><line style="stroke:#181818;stroke-width:1.0;" x1="565" x2="606" y1="681.0313" y2="681.0313"/><polygon fill="#181818" points="575,677.0313,565,681.0313,575,685.0313,571,681.0313" style="stroke:#181818;stroke-width:1.0;"/><text fill="#000000" font-family="sans-serif" font-size="13" lengthAdjust="spacing" textLength="159" x="571" y="662.9653">crearYesNoField(campo)</text><polygon fill="#181818" points="966.5,713.1641,976.5,717.1641,966.5,721.1641,970.5,717.1641" style="stroke:#181818;stroke-width:1.0;"/><line style="stroke:#181818;stroke-width:1.0;" x1="564" x2="972.5" y1="717.1641" y2="717.1641"/><text fill="#000000" font-family="sans-serif" font-size="13" lengthAdjust="spacing" textLength="236" x="571" y="712.0981">crearValidations(campo.validations)</text><polygon fill="#181818" points="1343.5,742.2969,1353.5,746.2969,1343.5,750.2969,1347.5,746.2969" style="stroke:#181818;stroke-width:1.0;"/><line style="stroke:#181818;stroke-width:1.0;" x1="978.5" x2="1349.5" y1="746.2969" y2="746.2969"/><text fill="#000000" font-family="sans-serif" font-size="13" lengthAdjust="spacing" textLength="353" x="985.5" y="741.231">crearPenaltyLevels(campo.validations.penalty_levels)</text><polygon fill="#181818" points="805,785.4297,815,789.4297,805,793.4297,809,789.4297" style="stroke:#181818;stroke-width:1.0;"/><line style="stroke:#181818;stroke-width:1.0;" x1="564" x2="811" y1="789.4297" y2="789.4297"/><text fill="#000000" font-family="sans-serif" font-size="13" lengthAdjust="spacing" textLength="67" x="571" y="784.3638">construir()</text><polygon fill="#181818" points="35,814.5625,25,818.5625,35,822.5625,31,818.5625" style="stroke:#181818;stroke-width:1.0;"/><line style="stroke:#181818;stroke-width:1.0;" x1="29" x2="347" y1="818.5625" y2="818.5625"/><text fill="#000000" font-family="sans-serif" font-size="13" lengthAdjust="spacing" textLength="244" x="41" y="813.4966">devolver instancia de InspectionForm</text><!--SRC=[bLJDQXin4BxhAOHFzg5-W3tqq9X0GkeMaXHwCeCqnHDaQP7aBNckF49Uh3FxPwtZsl623JFwVgJHQC3a4FLpmgXgY9aCrU2pdjq__bZhMt8uqv3qVGfUWYdcpgSQJIPU2t7tYB4Xq-6B-1pbsvwSnJXI-lWSPSHEGJV1vnZSBQ6ply2H1I6a5bt4Kz9FzE3owmCsw3he9AEKb4L_-JeUlz8Fo1c8PajDq58ZDQm9Jl2LNc4JNCCumvj2JxP73cf5SIgz9HiXGvJata6aC7zXnHNd5gf03iI-H9Kcp-U0o0TFEUwDeVStVqJjiH-e2RF4TtR4B_zml27xATuQTdZ4z9owo7sYx0fYbl0YQON9HAhbzWvKUqYU5p0HkKImgqCgTYnDaXPAyLLh0nRuZn5Ay-T2g3Kt2HGB6hq-8hTO-IwR5uqvR-KM8rdyCx61nS4fwPcDeRRXhv-Dk4yPhNhQIIVkPZnXnHt7IOSRimtoTAzp_DwpRrhoDRwlc3O-N6dt6zCwd7RnzdyNKhpzNgR8T3hBvf0vQ1OmqPaCXbvfalkejQoxzOrh0PsqR5L-fxgsae4XZvdYVA6E7tytM-mmMuYHu7a2I6Md8_8V]--></g></svg>