<?xml version="1.0" encoding="us-ascii" standalone="no"?><svg xmlns="http://www.w3.org/2000/svg" xmlns:xlink="http://www.w3.org/1999/xlink" contentStyleType="text/css" height="1019px" preserveAspectRatio="none" style="width:1510px;height:1019px;background:#FFFFFF;" version="1.1" viewBox="0 0 1510 1019" width="1510px" zoomAndPan="magnify"><defs/><g><rect fill="#FFFFFF" height="808.2578" style="stroke:#181818;stroke-width:1.0;" width="10" x="269" y="112.4297"/><rect fill="#FFFFFF" height="30" style="stroke:#181818;stroke-width:1.0;" width="10" x="747" y="861.5547"/><rect fill="#FFFFFF" height="28" style="stroke:#181818;stroke-width:1.0;" width="10" x="875" y="249.9609"/><rect fill="#FFFFFF" height="28" style="stroke:#181818;stroke-width:1.0;" width="10" x="951" y="249.9609"/><rect fill="#FFFFFF" height="28" style="stroke:#181818;stroke-width:1.0;" width="10" x="1046" y="790.4219"/><rect fill="#FFFFFF" height="28" style="stroke:#181818;stroke-width:1.0;" width="10" x="1165" y="346.2266"/><rect fill="#FFFFFF" height="28" style="stroke:#181818;stroke-width:1.0;" width="10" x="1282.5" y="466.625"/><rect fill="#FFFFFF" height="28" style="stroke:#181818;stroke-width:1.0;" width="10" x="1282.5" y="576.8906"/><rect fill="#FFFFFF" height="28" style="stroke:#181818;stroke-width:1.0;" width="10" x="1424.5" y="704.2891"/><rect fill="none" height="533.4609" style="stroke:#000000;stroke-width:1.5;" width="367" x="171" y="299.9609"/><rect fill="none" height="120.3984" style="stroke:#000000;stroke-width:1.5;" width="315" x="181" y="396.2266"/><rect fill="none" height="89.2656" style="stroke:#000000;stroke-width:1.5;" width="295" x="191" y="420.3594"/><rect fill="none" height="89.2656" style="stroke:#000000;stroke-width:1.5;" width="295" x="191" y="530.625"/><rect fill="none" height="120.3984" style="stroke:#000000;stroke-width:1.5;" width="347" x="181" y="633.8906"/><rect fill="none" height="89.2656" style="stroke:#000000;stroke-width:1.5;" width="327" x="191" y="658.0234"/><line style="stroke:#181818;stroke-width:0.5;stroke-dasharray:5.0,5.0;" x1="24" x2="24" y1="81.2969" y2="938.6875"/><line style="stroke:#181818;stroke-width:0.5;stroke-dasharray:5.0,5.0;" x1="274" x2="274" y1="81.2969" y2="938.6875"/><line style="stroke:#181818;stroke-width:0.5;stroke-dasharray:5.0,5.0;" x1="521.5" x2="521.5" y1="81.2969" y2="938.6875"/><line style="stroke:#181818;stroke-width:0.5;stroke-dasharray:5.0,5.0;" x1="752" x2="752" y1="81.2969" y2="938.6875"/><line style="stroke:#181818;stroke-width:0.5;stroke-dasharray:5.0,5.0;" x1="880" x2="880" y1="81.2969" y2="938.6875"/><line style="stroke:#181818;stroke-width:0.5;stroke-dasharray:5.0,5.0;" x1="956" x2="956" y1="81.2969" y2="938.6875"/><line style="stroke:#181818;stroke-width:0.5;stroke-dasharray:5.0,5.0;" x1="1051" x2="1051" y1="81.2969" y2="938.6875"/><line style="stroke:#181818;stroke-width:0.5;stroke-dasharray:5.0,5.0;" x1="1170" x2="1170" y1="81.2969" y2="938.6875"/><line style="stroke:#181818;stroke-width:0.5;stroke-dasharray:5.0,5.0;" x1="1287" x2="1287" y1="81.2969" y2="938.6875"/><line style="stroke:#181818;stroke-width:0.5;stroke-dasharray:5.0,5.0;" x1="1429" x2="1429" y1="81.2969" y2="938.6875"/><text fill="#000000" font-family="sans-serif" font-size="14" lengthAdjust="spacing" textLength="32" x="5" y="77.9951">User</text><ellipse cx="24" cy="13.5" fill="#E2E2F0" rx="8" ry="8" style="stroke:#181818;stroke-width:0.5;"/><path d="M24,21.5 L24,48.5 M11,29.5 L37,29.5 M24,48.5 L11,63.5 M24,48.5 L37,63.5 " fill="none" style="stroke:#181818;stroke-width:0.5;"/><text fill="#000000" font-family="sans-serif" font-size="14" lengthAdjust="spacing" textLength="32" x="5" y="950.6826">User</text><ellipse cx="24" cy="962.4844" fill="#E2E2F0" rx="8" ry="8" style="stroke:#181818;stroke-width:0.5;"/><path d="M24,970.4844 L24,997.4844 M11,978.4844 L37,978.4844 M24,997.4844 L11,1012.4844 M24,997.4844 L37,1012.4844 " fill="none" style="stroke:#181818;stroke-width:0.5;"/><rect fill="#E2E2F0" height="30.2969" rx="2.5" ry="2.5" style="stroke:#181818;stroke-width:0.5;" width="146" x="201" y="50"/><text fill="#000000" font-family="sans-serif" font-size="14" lengthAdjust="spacing" textLength="132" x="208" y="69.9951">ResponseHydrator</text><rect fill="#E2E2F0" height="30.2969" rx="2.5" ry="2.5" style="stroke:#181818;stroke-width:0.5;" width="146" x="201" y="937.6875"/><text fill="#000000" font-family="sans-serif" font-size="14" lengthAdjust="spacing" textLength="132" x="208" y="957.6826">ResponseHydrator</text><rect fill="#E2E2F0" height="30.2969" rx="2.5" ry="2.5" style="stroke:#181818;stroke-width:0.5;" width="95" x="474.5" y="50"/><text fill="#000000" font-family="sans-serif" font-size="14" lengthAdjust="spacing" textLength="81" x="481.5" y="69.9951">File System</text><rect fill="#E2E2F0" height="30.2969" rx="2.5" ry="2.5" style="stroke:#181818;stroke-width:0.5;" width="95" x="474.5" y="937.6875"/><text fill="#000000" font-family="sans-serif" font-size="14" lengthAdjust="spacing" textLength="81" x="481.5" y="957.6826">File System</text><rect fill="#E2E2F0" height="30.2969" rx="2.5" ry="2.5" style="stroke:#181818;stroke-width:0.5;" width="156" x="674" y="50"/><text fill="#000000" font-family="sans-serif" font-size="14" lengthAdjust="spacing" textLength="142" x="681" y="69.9951">InspectionResponse</text><rect fill="#E2E2F0" height="30.2969" rx="2.5" ry="2.5" style="stroke:#181818;stroke-width:0.5;" width="156" x="674" y="937.6875"/><text fill="#000000" font-family="sans-serif" font-size="14" lengthAdjust="spacing" textLength="142" x="681" y="957.6826">InspectionResponse</text><rect fill="#E2E2F0" height="30.2969" rx="2.5" ry="2.5" style="stroke:#181818;stroke-width:0.5;" width="80" x="840" y="50"/><text fill="#000000" font-family="sans-serif" font-size="14" lengthAdjust="spacing" textLength="66" x="847" y="69.9951">Inspector</text><rect fill="#E2E2F0" height="30.2969" rx="2.5" ry="2.5" style="stroke:#181818;stroke-width:0.5;" width="80" x="840" y="937.6875"/><text fill="#000000" font-family="sans-serif" font-size="14" lengthAdjust="spacing" textLength="66" x="847" y="957.6826">Inspector</text><rect fill="#E2E2F0" height="30.2969" rx="2.5" ry="2.5" style="stroke:#181818;stroke-width:0.5;" width="52" x="930" y="50"/><text fill="#000000" font-family="sans-serif" font-size="14" lengthAdjust="spacing" textLength="38" x="937" y="69.9951">Store</text><rect fill="#E2E2F0" height="30.2969" rx="2.5" ry="2.5" style="stroke:#181818;stroke-width:0.5;" width="52" x="930" y="937.6875"/><text fill="#000000" font-family="sans-serif" font-size="14" lengthAdjust="spacing" textLength="38" x="937" y="957.6826">Store</text><rect fill="#E2E2F0" height="30.2969" rx="2.5" ry="2.5" style="stroke:#181818;stroke-width:0.5;" width="118" x="992" y="50"/><text fill="#000000" font-family="sans-serif" font-size="14" lengthAdjust="spacing" textLength="104" x="999" y="69.9951">ControlAnswer</text><rect fill="#E2E2F0" height="30.2969" rx="2.5" ry="2.5" style="stroke:#181818;stroke-width:0.5;" width="118" x="992" y="937.6875"/><text fill="#000000" font-family="sans-serif" font-size="14" lengthAdjust="spacing" textLength="104" x="999" y="957.6826">ControlAnswer</text><rect fill="#E2E2F0" height="30.2969" rx="2.5" ry="2.5" style="stroke:#181818;stroke-width:0.5;" width="100" x="1120" y="50"/><text fill="#000000" font-family="sans-serif" font-size="14" lengthAdjust="spacing" textLength="86" x="1127" y="69.9951">AnswerField</text><rect fill="#E2E2F0" height="30.2969" rx="2.5" ry="2.5" style="stroke:#181818;stroke-width:0.5;" width="100" x="1120" y="937.6875"/><text fill="#000000" font-family="sans-serif" font-size="14" lengthAdjust="spacing" textLength="86" x="1127" y="957.6826">AnswerField</text><rect fill="#E2E2F0" height="30.2969" rx="2.5" ry="2.5" style="stroke:#181818;stroke-width:0.5;" width="115" x="1230" y="50"/><text fill="#000000" font-family="sans-serif" font-size="14" lengthAdjust="spacing" textLength="101" x="1237" y="69.9951">AnswerChoice</text><rect fill="#E2E2F0" height="30.2969" rx="2.5" ry="2.5" style="stroke:#181818;stroke-width:0.5;" width="115" x="1230" y="937.6875"/><text fill="#000000" font-family="sans-serif" font-size="14" lengthAdjust="spacing" textLength="101" x="1237" y="957.6826">AnswerChoice</text><rect fill="#E2E2F0" height="30.2969" rx="2.5" ry="2.5" style="stroke:#181818;stroke-width:0.5;" width="149" x="1355" y="50"/><text fill="#000000" font-family="sans-serif" font-size="14" lengthAdjust="spacing" textLength="135" x="1362" y="69.9951">AnswerAttachment</text><rect fill="#E2E2F0" height="30.2969" rx="2.5" ry="2.5" style="stroke:#181818;stroke-width:0.5;" width="149" x="1355" y="937.6875"/><text fill="#000000" font-family="sans-serif" font-size="14" lengthAdjust="spacing" textLength="135" x="1362" y="957.6826">AnswerAttachment</text><rect fill="#FFFFFF" height="808.2578" style="stroke:#181818;stroke-width:1.0;" width="10" x="269" y="112.4297"/><rect fill="#FFFFFF" height="30" style="stroke:#181818;stroke-width:1.0;" width="10" x="747" y="861.5547"/><rect fill="#FFFFFF" height="28" style="stroke:#181818;stroke-width:1.0;" width="10" x="875" y="249.9609"/><rect fill="#FFFFFF" height="28" style="stroke:#181818;stroke-width:1.0;" width="10" x="951" y="249.9609"/><rect fill="#FFFFFF" height="28" style="stroke:#181818;stroke-width:1.0;" width="10" x="1046" y="790.4219"/><rect fill="#FFFFFF" height="28" style="stroke:#181818;stroke-width:1.0;" width="10" x="1165" y="346.2266"/><rect fill="#FFFFFF" height="28" style="stroke:#181818;stroke-width:1.0;" width="10" x="1282.5" y="466.625"/><rect fill="#FFFFFF" height="28" style="stroke:#181818;stroke-width:1.0;" width="10" x="1282.5" y="576.8906"/><rect fill="#FFFFFF" height="28" style="stroke:#181818;stroke-width:1.0;" width="10" x="1424.5" y="704.2891"/><polygon fill="#181818" points="257,108.4297,267,112.4297,257,116.4297,261,112.4297" style="stroke:#181818;stroke-width:1.0;"/><line style="stroke:#181818;stroke-width:1.0;" x1="24" x2="263" y1="112.4297" y2="112.4297"/><text fill="#000000" font-family="sans-serif" font-size="13" lengthAdjust="spacing" textLength="60" x="31" y="107.3638">hydrate()</text><polygon fill="#181818" points="510,137.5625,520,141.5625,510,145.5625,514,141.5625" style="stroke:#181818;stroke-width:1.0;"/><line style="stroke:#181818;stroke-width:1.0;" x1="279" x2="516" y1="141.5625" y2="141.5625"/><text fill="#000000" font-family="sans-serif" font-size="13" lengthAdjust="spacing" textLength="162" x="286" y="136.4966">Read JSON data from file</text><polygon fill="#181818" points="290,166.6953,280,170.6953,290,174.6953,286,170.6953" style="stroke:#181818;stroke-width:1.0;"/><line style="stroke:#181818;stroke-width:1.0;stroke-dasharray:2.0,2.0;" x1="284" x2="521" y1="170.6953" y2="170.6953"/><text fill="#000000" font-family="sans-serif" font-size="13" lengthAdjust="spacing" textLength="65" x="296" y="165.6294">JSON data</text><line style="stroke:#181818;stroke-width:1.0;" x1="279" x2="321" y1="199.8281" y2="199.8281"/><line style="stroke:#181818;stroke-width:1.0;" x1="321" x2="321" y1="199.8281" y2="212.8281"/><line style="stroke:#181818;stroke-width:1.0;" x1="280" x2="321" y1="212.8281" y2="212.8281"/><polygon fill="#181818" points="290,208.8281,280,212.8281,290,216.8281,286,212.8281" style="stroke:#181818;stroke-width:1.0;"/><text fill="#000000" font-family="sans-serif" font-size="13" lengthAdjust="spacing" textLength="118" x="286" y="194.7622">Decode JSON data</text><line style="stroke:#181818;stroke-width:1.0;" x1="284" x2="326" y1="241.9609" y2="241.9609"/><line style="stroke:#181818;stroke-width:1.0;" x1="326" x2="326" y1="241.9609" y2="254.9609"/><line style="stroke:#181818;stroke-width:1.0;" x1="285" x2="326" y1="254.9609" y2="254.9609"/><polygon fill="#181818" points="295,250.9609,285,254.9609,295,258.9609,291,254.9609" style="stroke:#181818;stroke-width:1.0;"/><text fill="#000000" font-family="sans-serif" font-size="13" lengthAdjust="spacing" textLength="224" x="291" y="236.895">Create Inspector and Store objects</text><path d="M171,299.9609 L247,299.9609 L247,307.0938 L237,317.0938 L171,317.0938 L171,299.9609 " fill="#EEEEEE" style="stroke:#000000;stroke-width:1.5;"/><rect fill="none" height="533.4609" style="stroke:#000000;stroke-width:1.5;" width="367" x="171" y="299.9609"/><text fill="#000000" font-family="sans-serif" font-size="13" font-weight="bold" lengthAdjust="spacing" textLength="31" x="186" y="313.0278">loop</text><text fill="#000000" font-family="sans-serif" font-size="11" font-weight="bold" lengthAdjust="spacing" textLength="190" x="262" y="312.1714">[for each answer in JSON data]</text><line style="stroke:#181818;stroke-width:1.0;" x1="284" x2="326" y1="338.2266" y2="338.2266"/><line style="stroke:#181818;stroke-width:1.0;" x1="326" x2="326" y1="338.2266" y2="351.2266"/><line style="stroke:#181818;stroke-width:1.0;" x1="285" x2="326" y1="351.2266" y2="351.2266"/><polygon fill="#181818" points="295,347.2266,285,351.2266,295,355.2266,291,351.2266" style="stroke:#181818;stroke-width:1.0;"/><text fill="#000000" font-family="sans-serif" font-size="13" lengthAdjust="spacing" textLength="170" x="291" y="333.1606">Create AnswerField object</text><path d="M181,396.2266 L245,396.2266 L245,403.3594 L235,413.3594 L181,413.3594 L181,396.2266 " fill="#EEEEEE" style="stroke:#000000;stroke-width:1.5;"/><rect fill="none" height="120.3984" style="stroke:#000000;stroke-width:1.5;" width="315" x="181" y="396.2266"/><text fill="#000000" font-family="sans-serif" font-size="13" font-weight="bold" lengthAdjust="spacing" textLength="19" x="196" y="409.2935">alt</text><text fill="#000000" font-family="sans-serif" font-size="11" font-weight="bold" lengthAdjust="spacing" textLength="105" x="260" y="408.437">[if choices exist]</text><path d="M191,420.3594 L267,420.3594 L267,427.4922 L257,437.4922 L191,437.4922 L191,420.3594 " fill="#EEEEEE" style="stroke:#000000;stroke-width:1.5;"/><rect fill="none" height="89.2656" style="stroke:#000000;stroke-width:1.5;" width="295" x="191" y="420.3594"/><text fill="#000000" font-family="sans-serif" font-size="13" font-weight="bold" lengthAdjust="spacing" textLength="31" x="206" y="433.4263">loop</text><text fill="#000000" font-family="sans-serif" font-size="11" font-weight="bold" lengthAdjust="spacing" textLength="106" x="282" y="432.5698">[for each choice]</text><line style="stroke:#181818;stroke-width:1.0;" x1="284" x2="326" y1="458.625" y2="458.625"/><line style="stroke:#181818;stroke-width:1.0;" x1="326" x2="326" y1="458.625" y2="471.625"/><line style="stroke:#181818;stroke-width:1.0;" x1="285" x2="326" y1="471.625" y2="471.625"/><polygon fill="#181818" points="295,467.625,285,471.625,295,475.625,291,471.625" style="stroke:#181818;stroke-width:1.0;"/><text fill="#000000" font-family="sans-serif" font-size="13" lengthAdjust="spacing" textLength="183" x="291" y="453.5591">Create AnswerChoice object</text><path d="M191,530.625 L255,530.625 L255,537.7578 L245,547.7578 L191,547.7578 L191,530.625 " fill="#EEEEEE" style="stroke:#000000;stroke-width:1.5;"/><rect fill="none" height="89.2656" style="stroke:#000000;stroke-width:1.5;" width="295" x="191" y="530.625"/><text fill="#000000" font-family="sans-serif" font-size="13" font-weight="bold" lengthAdjust="spacing" textLength="19" x="206" y="543.6919">alt</text><text fill="#000000" font-family="sans-serif" font-size="11" font-weight="bold" lengthAdjust="spacing" textLength="147" x="270" y="542.8354">[if single choice exists]</text><line style="stroke:#181818;stroke-width:1.0;" x1="284" x2="326" y1="568.8906" y2="568.8906"/><line style="stroke:#181818;stroke-width:1.0;" x1="326" x2="326" y1="568.8906" y2="581.8906"/><line style="stroke:#181818;stroke-width:1.0;" x1="285" x2="326" y1="581.8906" y2="581.8906"/><polygon fill="#181818" points="295,577.8906,285,581.8906,295,585.8906,291,581.8906" style="stroke:#181818;stroke-width:1.0;"/><text fill="#000000" font-family="sans-serif" font-size="13" lengthAdjust="spacing" textLength="183" x="291" y="563.8247">Create AnswerChoice object</text><path d="M181,633.8906 L245,633.8906 L245,641.0234 L235,651.0234 L181,651.0234 L181,633.8906 " fill="#EEEEEE" style="stroke:#000000;stroke-width:1.5;"/><rect fill="none" height="120.3984" style="stroke:#000000;stroke-width:1.5;" width="347" x="181" y="633.8906"/><text fill="#000000" font-family="sans-serif" font-size="13" font-weight="bold" lengthAdjust="spacing" textLength="19" x="196" y="646.9575">alt</text><text fill="#000000" font-family="sans-serif" font-size="11" font-weight="bold" lengthAdjust="spacing" textLength="134" x="260" y="646.1011">[if attachments exist]</text><path d="M191,658.0234 L267,658.0234 L267,665.1563 L257,675.1563 L191,675.1563 L191,658.0234 " fill="#EEEEEE" style="stroke:#000000;stroke-width:1.5;"/><rect fill="none" height="89.2656" style="stroke:#000000;stroke-width:1.5;" width="327" x="191" y="658.0234"/><text fill="#000000" font-family="sans-serif" font-size="13" font-weight="bold" lengthAdjust="spacing" textLength="31" x="206" y="671.0903">loop</text><text fill="#000000" font-family="sans-serif" font-size="11" font-weight="bold" lengthAdjust="spacing" textLength="135" x="282" y="670.2339">[for each attachment]</text><line style="stroke:#181818;stroke-width:1.0;" x1="284" x2="326" y1="696.2891" y2="696.2891"/><line style="stroke:#181818;stroke-width:1.0;" x1="326" x2="326" y1="696.2891" y2="709.2891"/><line style="stroke:#181818;stroke-width:1.0;" x1="285" x2="326" y1="709.2891" y2="709.2891"/><polygon fill="#181818" points="295,705.2891,285,709.2891,295,713.2891,291,709.2891" style="stroke:#181818;stroke-width:1.0;"/><text fill="#000000" font-family="sans-serif" font-size="13" lengthAdjust="spacing" textLength="215" x="291" y="691.2231">Create AnswerAttachment object</text><line style="stroke:#181818;stroke-width:1.0;" x1="284" x2="326" y1="782.4219" y2="782.4219"/><line style="stroke:#181818;stroke-width:1.0;" x1="326" x2="326" y1="782.4219" y2="795.4219"/><line style="stroke:#181818;stroke-width:1.0;" x1="285" x2="326" y1="795.4219" y2="795.4219"/><polygon fill="#181818" points="295,791.4219,285,795.4219,295,799.4219,291,795.4219" style="stroke:#181818;stroke-width:1.0;"/><text fill="#000000" font-family="sans-serif" font-size="13" lengthAdjust="spacing" textLength="186" x="291" y="777.356">Create ControlAnswer object</text><polygon fill="#181818" points="735,857.5547,745,861.5547,735,865.5547,739,861.5547" style="stroke:#181818;stroke-width:1.0;"/><line style="stroke:#181818;stroke-width:1.0;" x1="279" x2="741" y1="861.5547" y2="861.5547"/><text fill="#000000" font-family="sans-serif" font-size="13" lengthAdjust="spacing" textLength="449" x="286" y="856.4888">Create InspectionResponse object with Inspector, Store, and answers</text><polygon fill="#181818" points="35,916.6875,25,920.6875,35,924.6875,31,920.6875" style="stroke:#181818;stroke-width:1.0;"/><line style="stroke:#181818;stroke-width:1.0;stroke-dasharray:2.0,2.0;" x1="29" x2="273" y1="920.6875" y2="920.6875"/><text fill="#000000" font-family="sans-serif" font-size="13" lengthAdjust="spacing" textLength="221" x="41" y="915.6216">Return InspectionResponse object</text><!--SRC=[bLJBJiCm4BpxArQSG88Vu81a1KKj1v0IyG4csHAZr8vYy-ZVi_QcYTscIEHGnJlZcSruNTLuEyAhmr4CQlIwqOCo7gugT8Cr3ZU7TbH4kGBbeDhaf5Bt2FN1UTn7lAnpV6lSW8tNrXpb8crRhT8cax3AyPeWtXdVSh2mne-sbyPz8miKCcSmL6hisuZBSWqlEgiRTf756a5whvfkZyOpIGeHOeEx1yhb7heO55xV24LV_4Ml8IvHRGAXhE-XGjN2K_to3Ato2dQZtSEE0XHb3NUJo0mVDuRY8pQsnGHRe6B4O3G72Cgq71BOjmygkQMRc6kB-NfUSR89p0NHMpl0ZfG9wKW-907Q9Dq0dFMJ93xrGQnPcV87I9ne7U3UWzv14u_10Vve5tO1v1qm7e6BndoKYtDu5hTYggGTS0rDA_XtwSTfyqv3phRSbHF_yZvrEVND_TGyPPSpM3X_vx1CxAKiv4eMyZoBC_tiqgqSSI7p8wPrb6AXRNKwkSa_nAG6tzftos3VyZpUnW7dAKn7kye6ks8ZSWeNDDmy_pcQorxfPhgplm00]--></g></svg>